<svg xmlns="http://www.w3.org/2000/svg" xmlns:xlink="http://www.w3.org/1999/xlink" width="132" zoomAndPan="magnify" viewBox="0 0 98.88 98.999996" height="132" preserveAspectRatio="xMidYMid meet" version="1.0"><defs><clipPath id="e0ad0a4e23"><path d="M 0 0.0585938 L 98.761719 0.0585938 L 98.761719 98.9375 L 0 98.9375 Z M 0 0.0585938 " clip-rule="nonzero"/></clipPath><clipPath id="1e8f42c81e"><path d="M 11.144531 12.5 L 87.554688 12.5 L 87.554688 86.660156 L 11.144531 86.660156 Z M 11.144531 12.5 " clip-rule="nonzero"/></clipPath></defs><g clip-path="url(#e0ad0a4e23)"><path fill="#ffffff" d="M 0 0.0585938 L 98.878906 0.0585938 L 98.878906 98.941406 L 0 98.941406 Z M 0 0.0585938 " fill-opacity="1" fill-rule="nonzero"/><path fill="#ffffff" d="M 0 0.0585938 L 98.878906 0.0585938 L 98.878906 98.941406 L 0 98.941406 Z M 0 0.0585938 " fill-opacity="1" fill-rule="nonzero"/></g><g clip-path="url(#1e8f42c81e)"><path fill="#512d7c" d="M 20.230469 67.234375 L 29.679688 61.765625 C 31.863281 60.503906 34.054688 59.503906 36.453125 60.285156 C 39.546875 61.289062 44.59375 63.425781 49.75 64.371094 C 50.949219 64.796875 51.722656 65.996094 51.390625 67.226562 L 51.390625 67.230469 C 51.0625 68.449219 50.019531 69.039062 48.59375 68.878906 C 45.761719 68.296875 43.132812 67.433594 40.214844 66.652344 C 39.523438 66.464844 38.8125 66.875 38.625 67.566406 C 38.4375 68.261719 38.851562 68.972656 39.542969 69.160156 C 42.527344 69.960938 45.222656 70.839844 48.125 71.433594 C 48.144531 71.4375 48.160156 71.441406 48.179688 71.445312 L 49.773438 71.703125 C 49.777344 71.703125 49.777344 71.703125 49.777344 71.703125 C 52.140625 72.082031 54.304688 71.746094 56.371094 70.542969 L 69.230469 63.054688 C 71.835938 61.535156 73.746094 61.082031 75.105469 61.367188 C 76.558594 61.667969 77.105469 62.964844 77.007812 64.136719 C 76.945312 64.894531 76.636719 65.640625 76.039062 66.007812 L 52.699219 80.375 L 52.699219 80.378906 C 50.867188 81.507812 48.863281 81.761719 46.785156 81.207031 L 29.859375 76.671875 C 29.527344 76.582031 29.171875 76.628906 28.875 76.800781 L 26.4375 78.207031 Z M 15.871094 64.800781 L 26.472656 83.539062 C 26.632812 83.824219 26.535156 84.191406 26.25 84.351562 L 22.644531 86.394531 C 22.359375 86.554688 21.992188 86.457031 21.832031 86.171875 L 11.222656 67.429688 C 11.0625 67.144531 11.160156 66.777344 11.445312 66.617188 L 15.054688 64.574219 C 15.339844 64.414062 15.707031 64.515625 15.867188 64.800781 Z M 14.585938 67.132812 C 13.972656 67.21875 13.546875 67.789062 13.636719 68.40625 C 13.726562 69.019531 14.296875 69.449219 14.914062 69.355469 C 15.527344 69.269531 15.953125 68.695312 15.863281 68.078125 C 15.773438 67.464844 15.203125 67.039062 14.585938 67.132812 Z M 64.859375 44.535156 L 68.394531 52.136719 C 68.453125 52.253906 68.4375 52.382812 68.359375 52.480469 C 68.285156 52.585938 68.164062 52.632812 68.039062 52.609375 L 63 51.730469 L 60.421875 56.152344 C 60.363281 56.261719 60.25 56.320312 60.121094 56.316406 C 59.996094 56.3125 59.890625 56.242188 59.835938 56.125 L 57.019531 50.082031 C 59.359375 50.332031 61.625 49.28125 62.957031 47.238281 L 64.492188 44.894531 C 64.59375 44.742188 64.710938 44.625 64.859375 44.535156 Z M 48.589844 50.082031 L 45.773438 56.125 C 45.722656 56.242188 45.613281 56.3125 45.488281 56.316406 C 45.359375 56.320312 45.246094 56.261719 45.1875 56.152344 L 42.613281 51.730469 L 37.570312 52.609375 C 37.445312 52.632812 37.328125 52.585938 37.25 52.480469 C 37.171875 52.382812 37.15625 52.253906 37.214844 52.136719 L 40.75 44.535156 C 40.898438 44.625 41.015625 44.742188 41.117188 44.894531 C 41.117188 44.894531 42.652344 47.242188 42.652344 47.242188 C 43.984375 49.28125 46.25 50.332031 48.589844 50.082031 Z M 55.046875 13.257812 L 57.296875 14.945312 C 57.914062 15.40625 58.558594 15.644531 59.328125 15.683594 L 62.132812 15.839844 C 63.8125 15.933594 65.179688 17.082031 65.5625 18.71875 L 66.207031 21.457031 C 66.378906 22.207031 66.722656 22.804688 67.285156 23.328125 L 69.335938 25.253906 C 70.5625 26.402344 70.875 28.164062 70.113281 29.660156 L 68.84375 32.171875 C 68.5 32.859375 68.378906 33.535156 68.472656 34.300781 L 68.804688 37.09375 C 69.003906 38.761719 68.113281 40.308594 66.5625 40.972656 L 63.980469 42.078125 C 63.273438 42.378906 62.746094 42.824219 62.324219 43.46875 L 60.785156 45.820312 C 59.863281 47.230469 58.191406 47.835938 56.578125 47.351562 L 53.882812 46.539062 C 53.148438 46.3125 52.460938 46.3125 51.726562 46.539062 L 49.03125 47.351562 C 47.417969 47.835938 45.746094 47.230469 44.824219 45.820312 L 43.289062 43.46875 C 42.863281 42.824219 42.335938 42.378906 41.628906 42.078125 L 39.046875 40.972656 C 37.5 40.308594 36.605469 38.761719 36.804688 37.09375 L 37.136719 34.300781 C 37.230469 33.535156 37.109375 32.859375 36.765625 32.171875 L 35.496094 29.660156 C 34.734375 28.164062 35.046875 26.402344 36.273438 25.253906 L 38.324219 23.328125 C 38.886719 22.804688 39.230469 22.207031 39.402344 21.457031 L 40.046875 18.71875 C 40.429688 17.082031 41.796875 15.933594 43.476562 15.839844 L 46.28125 15.683594 C 47.054688 15.644531 47.703125 15.40625 48.3125 14.945312 L 50.566406 13.257812 C 51.914062 12.253906 53.695312 12.253906 55.046875 13.257812 Z M 52.808594 42.355469 C 59.601562 42.355469 65.144531 36.808594 65.144531 30.011719 C 65.144531 23.210938 59.601562 17.667969 52.808594 17.667969 C 46.007812 17.667969 40.464844 23.210938 40.464844 30.011719 C 40.464844 36.808594 46.007812 42.355469 52.808594 42.355469 Z M 52.808594 39.757812 C 47.4375 39.757812 43.058594 35.378906 43.058594 30.011719 C 43.058594 24.640625 47.4375 20.261719 52.808594 20.261719 C 58.171875 20.261719 62.550781 24.640625 62.550781 30.011719 C 62.550781 35.378906 58.171875 39.757812 52.808594 39.757812 Z M 51.875 23.847656 L 50.855469 26.984375 L 47.558594 26.984375 C 47.132812 26.984375 46.757812 27.257812 46.628906 27.660156 C 46.496094 28.0625 46.640625 28.503906 46.984375 28.75 L 49.652344 30.691406 L 48.632812 33.828125 C 48.503906 34.230469 48.644531 34.671875 48.988281 34.917969 C 49.328125 35.167969 49.792969 35.167969 50.136719 34.917969 L 52.804688 32.980469 L 55.472656 34.917969 C 55.816406 35.167969 56.28125 35.167969 56.621094 34.917969 C 56.964844 34.671875 57.109375 34.230469 56.976562 33.828125 L 55.957031 30.691406 L 58.625 28.75 C 58.96875 28.503906 59.113281 28.0625 58.980469 27.660156 C 58.851562 27.257812 58.476562 26.984375 58.050781 26.984375 L 54.753906 26.984375 L 53.734375 23.847656 C 53.601562 23.445312 53.226562 23.171875 52.804688 23.171875 C 52.382812 23.171875 52.007812 23.445312 51.875 23.847656 Z M 79.886719 28.867188 C 80.03125 28.425781 80.441406 28.128906 80.90625 28.128906 C 81.371094 28.128906 81.78125 28.425781 81.921875 28.867188 L 83.042969 32.308594 L 86.660156 32.308594 C 87.121094 32.308594 87.535156 32.605469 87.675781 33.046875 C 87.820312 33.488281 87.664062 33.972656 87.289062 34.246094 L 84.363281 36.371094 L 85.480469 39.8125 C 85.621094 40.253906 85.464844 40.734375 85.089844 41.007812 C 84.714844 41.28125 84.207031 41.28125 83.832031 41.007812 L 80.90625 38.882812 L 77.980469 41.007812 C 77.605469 41.28125 77.09375 41.28125 76.71875 41.007812 C 76.34375 40.734375 76.1875 40.253906 76.332031 39.8125 L 77.449219 36.371094 L 74.523438 34.246094 C 74.148438 33.972656 73.992188 33.488281 74.132812 33.046875 C 74.277344 32.605469 74.6875 32.308594 75.152344 32.308594 L 78.769531 32.308594 Z M 23.6875 28.867188 C 23.828125 28.425781 24.242188 28.128906 24.703125 28.128906 C 25.167969 28.128906 25.578125 28.425781 25.722656 28.867188 L 26.839844 32.308594 L 30.457031 32.308594 C 30.921875 32.308594 31.332031 32.605469 31.476562 33.046875 C 31.621094 33.488281 31.460938 33.972656 31.085938 34.246094 L 28.160156 36.371094 L 29.277344 39.8125 C 29.421875 40.253906 29.265625 40.734375 28.890625 41.007812 C 28.515625 41.28125 28.007812 41.28125 27.628906 41.007812 L 24.703125 38.882812 L 21.777344 41.007812 C 21.402344 41.28125 20.894531 41.28125 20.519531 41.007812 C 20.144531 40.734375 19.988281 40.253906 20.128906 39.8125 L 21.246094 36.371094 L 18.320312 34.246094 C 17.945312 33.972656 17.789062 33.488281 17.933594 33.046875 C 18.074219 32.605469 18.488281 32.308594 18.949219 32.308594 L 22.566406 32.308594 Z M 23.6875 28.867188 " fill-opacity="1" fill-rule="evenodd"/></g></svg>