<svg xmlns="http://www.w3.org/2000/svg" xmlns:xlink="http://www.w3.org/1999/xlink" width="132" zoomAndPan="magnify" viewBox="0 0 98.88 98.999996" height="132" preserveAspectRatio="xMidYMid meet" version="1.0"><defs><clipPath id="41105c15db"><path d="M 0 0.0585938 L 98.761719 0.0585938 L 98.761719 98.9375 L 0 98.9375 Z M 0 0.0585938 " clip-rule="nonzero"/></clipPath><clipPath id="a497b4f22c"><path d="M 13 15.84375 L 73 15.84375 L 73 42 L 13 42 Z M 13 15.84375 " clip-rule="nonzero"/></clipPath><clipPath id="9079a95c0e"><path d="M 54 73 L 86.902344 73 L 86.902344 83.265625 L 54 83.265625 Z M 54 73 " clip-rule="nonzero"/></clipPath><clipPath id="f325f72cb7"><path d="M 54 49 L 86.902344 49 L 86.902344 60 L 54 60 Z M 54 49 " clip-rule="nonzero"/></clipPath><clipPath id="ff87d27caf"><path d="M 54 62 L 86.902344 62 L 86.902344 72 L 54 72 Z M 54 62 " clip-rule="nonzero"/></clipPath><clipPath id="514a908c22"><path d="M 11.996094 35 L 30 35 L 30 65 L 11.996094 65 Z M 11.996094 35 " clip-rule="nonzero"/></clipPath><clipPath id="bedb4ecd2e"><path d="M 30 54 L 49 54 L 49 83.265625 L 30 83.265625 Z M 30 54 " clip-rule="nonzero"/></clipPath></defs><g clip-path="url(#41105c15db)"><path fill="#ffffff" d="M 0 0.0585938 L 98.878906 0.0585938 L 98.878906 98.941406 L 0 98.941406 Z M 0 0.0585938 " fill-opacity="1" fill-rule="nonzero"/><path fill="#ffffff" d="M 0 0.0585938 L 98.878906 0.0585938 L 98.878906 98.941406 L 0 98.941406 Z M 0 0.0585938 " fill-opacity="1" fill-rule="nonzero"/></g><g clip-path="url(#a497b4f22c)"><path fill="#512d7c" d="M 18.609375 33.601562 C 18.875 33.339844 19.179688 33.136719 19.523438 32.996094 C 19.867188 32.851562 20.222656 32.78125 20.59375 32.78125 C 20.96875 32.78125 21.324219 32.851562 21.667969 32.996094 C 22.011719 33.136719 22.316406 33.339844 22.582031 33.601562 L 30.480469 41.507812 C 31.441406 41.265625 32.421875 41.144531 33.414062 41.140625 C 34.5 41.140625 35.566406 41.285156 36.609375 41.578125 C 36.972656 40.667969 37.472656 39.839844 38.101562 39.089844 C 38.730469 38.339844 39.464844 37.710938 40.296875 37.195312 C 41.132812 36.683594 42.027344 36.316406 42.980469 36.089844 C 43.933594 35.867188 44.894531 35.796875 45.871094 35.882812 C 46.15625 35.054688 46.550781 34.285156 47.054688 33.570312 C 47.5625 32.855469 48.15625 32.226562 48.84375 31.683594 C 49.53125 31.140625 50.277344 30.703125 51.089844 30.375 C 51.902344 30.050781 52.742188 29.84375 53.613281 29.757812 C 54.484375 29.671875 55.351562 29.710938 56.210938 29.871094 C 57.070312 30.035156 57.890625 30.316406 58.667969 30.714844 C 59.449219 31.113281 60.15625 31.613281 60.789062 32.214844 C 61.425781 32.820312 61.964844 33.496094 62.402344 34.253906 C 63.207031 33.890625 64.042969 33.652344 64.914062 33.53125 C 65.785156 33.410156 66.65625 33.417969 67.527344 33.550781 C 68.398438 33.683594 69.230469 33.9375 70.027344 34.3125 C 70.824219 34.6875 71.550781 35.167969 72.210938 35.753906 C 72.214844 35.691406 72.214844 35.625 72.214844 35.5625 C 72.214844 35.210938 72.191406 34.863281 72.152344 34.519531 C 72.113281 34.171875 72.050781 33.832031 71.96875 33.492188 C 71.890625 33.152344 71.789062 32.820312 71.667969 32.492188 C 71.550781 32.164062 71.410156 31.84375 71.253906 31.535156 C 71.097656 31.222656 70.921875 30.921875 70.730469 30.628906 C 70.539062 30.339844 70.328125 30.0625 70.105469 29.792969 C 69.878906 29.527344 69.640625 29.277344 69.386719 29.039062 C 69.132812 28.796875 68.867188 28.574219 68.585938 28.367188 C 68.304688 28.160156 68.011719 27.972656 67.710938 27.796875 C 67.410156 27.625 67.097656 27.46875 66.777344 27.332031 C 66.457031 27.195312 66.128906 27.078125 65.792969 26.980469 C 65.460938 26.882812 65.121094 26.800781 64.777344 26.742188 C 64.433594 26.683594 64.085938 26.644531 63.738281 26.625 C 63.390625 26.609375 63.042969 26.609375 62.695312 26.632812 C 62.347656 26.652344 62.003906 26.695312 61.660156 26.757812 C 61.316406 26.820312 60.980469 26.902344 60.644531 27.003906 C 60.476562 27.058594 60.300781 27.066406 60.125 27.039062 C 59.949219 27.007812 59.789062 26.9375 59.648438 26.832031 C 59.503906 26.726562 59.390625 26.59375 59.3125 26.433594 C 59.230469 26.273438 59.191406 26.105469 59.191406 25.925781 L 59.191406 25.78125 C 59.191406 25.207031 59.117188 24.648438 58.964844 24.097656 C 58.816406 23.546875 58.59375 23.027344 58.304688 22.535156 C 58.015625 22.042969 57.664062 21.597656 57.253906 21.199219 C 56.84375 20.800781 56.390625 20.464844 55.890625 20.1875 C 55.390625 19.910156 54.867188 19.703125 54.3125 19.570312 C 53.757812 19.433594 53.195312 19.375 52.621094 19.386719 C 52.050781 19.402344 51.492188 19.492188 50.945312 19.65625 C 50.398438 19.820312 49.882812 20.054688 49.398438 20.355469 C 49.105469 20.542969 48.792969 20.582031 48.460938 20.476562 C 48.128906 20.367188 47.898438 20.152344 47.761719 19.832031 C 47.503906 19.203125 47.152344 18.628906 46.707031 18.109375 C 46.265625 17.589844 45.753906 17.15625 45.167969 16.800781 C 44.585938 16.445312 43.964844 16.191406 43.300781 16.039062 C 42.636719 15.882812 41.964844 15.835938 41.285156 15.894531 C 40.605469 15.953125 39.953125 16.117188 39.324219 16.386719 C 38.699219 16.65625 38.128906 17.015625 37.617188 17.464844 C 37.105469 17.914062 36.675781 18.433594 36.332031 19.023438 C 35.984375 19.609375 35.738281 20.234375 35.59375 20.902344 C 35.5625 21.046875 35.503906 21.179688 35.417969 21.300781 C 35.335938 21.425781 35.230469 21.527344 35.105469 21.605469 C 34.980469 21.6875 34.847656 21.742188 34.703125 21.769531 C 34.554688 21.796875 34.410156 21.796875 34.265625 21.765625 C 33.535156 21.617188 32.804688 21.597656 32.070312 21.703125 C 31.332031 21.808594 30.636719 22.035156 29.980469 22.386719 C 29.324219 22.734375 28.742188 23.183594 28.242188 23.734375 C 27.742188 24.285156 27.351562 24.902344 27.066406 25.589844 C 29.035156 26.605469 30.589844 27.929688 31.707031 29.53125 C 31.792969 29.652344 31.851562 29.789062 31.882812 29.933594 C 31.914062 30.078125 31.917969 30.226562 31.890625 30.371094 C 31.863281 30.519531 31.808594 30.652344 31.730469 30.78125 C 31.648438 30.90625 31.546875 31.011719 31.425781 31.09375 C 31.230469 31.230469 31.019531 31.296875 30.785156 31.296875 C 30.390625 31.296875 30.082031 31.136719 29.855469 30.8125 C 28.820312 29.316406 27.273438 28.109375 25.257812 27.21875 C 24.457031 26.90625 23.628906 26.714844 22.769531 26.640625 C 21.914062 26.570312 21.0625 26.621094 20.222656 26.792969 C 19.378906 26.964844 18.578125 27.25 17.816406 27.65625 C 17.058594 28.058594 16.371094 28.558594 15.757812 29.160156 C 15.140625 29.761719 14.625 30.4375 14.203125 31.1875 C 13.785156 31.9375 13.476562 32.730469 13.285156 33.570312 C 13.09375 34.410156 13.027344 35.257812 13.078125 36.117188 C 13.132812 36.972656 13.304688 37.808594 13.597656 38.617188 Z M 18.609375 33.601562 " fill-opacity="1" fill-rule="nonzero"/></g><g clip-path="url(#9079a95c0e)"><path fill="#f2b42c" d="M 83.335938 79.222656 L 75.007812 79.222656 C 74.855469 79.222656 74.714844 79.195312 74.574219 79.136719 C 74.4375 79.082031 74.316406 79 74.210938 78.894531 C 74.105469 78.789062 74.023438 78.667969 73.964844 78.527344 C 73.910156 78.390625 73.878906 78.246094 73.878906 78.097656 C 73.878906 77.949219 73.910156 77.804688 73.964844 77.667969 C 74.023438 77.53125 74.105469 77.40625 74.210938 77.300781 C 74.316406 77.195312 74.4375 77.117188 74.574219 77.058594 C 74.714844 77 74.855469 76.972656 75.007812 76.972656 L 83.335938 76.972656 C 83.484375 76.972656 83.628906 77 83.765625 77.058594 C 83.902344 77.117188 84.023438 77.195312 84.128906 77.300781 C 84.234375 77.40625 84.316406 77.53125 84.375 77.667969 C 84.433594 77.804688 84.460938 77.949219 84.460938 78.097656 C 84.460938 78.246094 84.433594 78.390625 84.375 78.527344 C 84.316406 78.667969 84.234375 78.789062 84.128906 78.894531 C 84.023438 79 83.902344 79.082031 83.765625 79.136719 C 83.628906 79.195312 83.484375 79.222656 83.335938 79.222656 Z M 68.511719 79.617188 C 68.3125 79.617188 68.117188 79.578125 67.933594 79.5 C 67.746094 79.421875 67.582031 79.3125 67.4375 79.171875 C 67.296875 79.027344 67.1875 78.863281 67.109375 78.679688 C 67.03125 78.492188 66.992188 78.296875 66.992188 78.097656 C 66.992188 77.894531 67.03125 77.703125 67.109375 77.515625 C 67.183594 77.328125 67.292969 77.164062 67.4375 77.023438 C 67.578125 76.878906 67.742188 76.769531 67.929688 76.691406 C 68.117188 76.617188 68.308594 76.578125 68.511719 76.578125 C 68.714844 76.578125 68.90625 76.617188 69.09375 76.691406 C 69.28125 76.769531 69.445312 76.878906 69.585938 77.023438 C 69.730469 77.164062 69.839844 77.332031 69.914062 77.515625 C 69.992188 77.703125 70.03125 77.898438 70.03125 78.097656 C 70.03125 78.300781 69.992188 78.492188 69.914062 78.679688 C 69.839844 78.863281 69.730469 79.027344 69.585938 79.171875 C 69.445312 79.3125 69.28125 79.421875 69.09375 79.5 C 68.910156 79.578125 68.714844 79.617188 68.511719 79.617188 Z M 59.769531 79.617188 C 59.566406 79.617188 59.375 79.578125 59.1875 79.5 C 59 79.421875 58.835938 79.3125 58.695312 79.171875 C 58.550781 79.027344 58.441406 78.863281 58.363281 78.679688 C 58.285156 78.492188 58.246094 78.296875 58.246094 78.097656 C 58.246094 77.894531 58.285156 77.703125 58.363281 77.515625 C 58.441406 77.328125 58.550781 77.164062 58.691406 77.023438 C 58.835938 76.878906 59 76.769531 59.1875 76.691406 C 59.371094 76.617188 59.566406 76.578125 59.765625 76.578125 C 59.96875 76.578125 60.164062 76.617188 60.347656 76.691406 C 60.535156 76.769531 60.699219 76.878906 60.839844 77.023438 C 60.984375 77.164062 61.09375 77.332031 61.171875 77.515625 C 61.246094 77.703125 61.285156 77.898438 61.285156 78.097656 C 61.285156 78.300781 61.246094 78.492188 61.171875 78.679688 C 61.09375 78.863281 60.984375 79.027344 60.839844 79.171875 C 60.699219 79.3125 60.535156 79.421875 60.347656 79.5 C 60.164062 79.578125 59.96875 79.617188 59.769531 79.617188 Z M 86.515625 73.40625 C 86.285156 73.179688 86.007812 73.070312 85.683594 73.070312 L 55.292969 73.070312 C 54.964844 73.070312 54.683594 73.1875 54.449219 73.417969 C 54.214844 73.652344 54.09375 73.933594 54.097656 74.265625 L 54.097656 81.925781 C 54.097656 82.085938 54.128906 82.238281 54.1875 82.386719 C 54.25 82.53125 54.335938 82.660156 54.445312 82.773438 C 54.558594 82.882812 54.6875 82.972656 54.835938 83.03125 C 54.980469 83.09375 55.132812 83.121094 55.292969 83.121094 L 85.683594 83.121094 C 85.84375 83.121094 85.996094 83.09375 86.144531 83.03125 C 86.289062 82.972656 86.417969 82.886719 86.53125 82.773438 C 86.644531 82.660156 86.730469 82.53125 86.789062 82.386719 C 86.851562 82.238281 86.878906 82.085938 86.878906 81.925781 L 86.878906 74.265625 C 86.878906 73.9375 86.765625 73.65625 86.53125 73.421875 C 86.527344 73.414062 86.519531 73.410156 86.515625 73.40625 Z M 86.515625 73.40625 " fill-opacity="1" fill-rule="nonzero"/></g><g clip-path="url(#f325f72cb7)"><path fill="#f2b42c" d="M 83.335938 55.941406 L 75.007812 55.941406 C 74.855469 55.941406 74.714844 55.914062 74.574219 55.855469 C 74.4375 55.800781 74.316406 55.71875 74.210938 55.613281 C 74.105469 55.507812 74.023438 55.386719 73.964844 55.246094 C 73.910156 55.109375 73.878906 54.964844 73.878906 54.816406 C 73.878906 54.667969 73.910156 54.523438 73.964844 54.386719 C 74.023438 54.246094 74.105469 54.125 74.210938 54.019531 C 74.316406 53.914062 74.4375 53.832031 74.574219 53.777344 C 74.714844 53.71875 74.855469 53.691406 75.007812 53.691406 L 83.335938 53.691406 C 83.484375 53.691406 83.628906 53.71875 83.765625 53.777344 C 83.902344 53.832031 84.023438 53.914062 84.128906 54.019531 C 84.234375 54.125 84.316406 54.246094 84.375 54.386719 C 84.433594 54.523438 84.460938 54.667969 84.460938 54.816406 C 84.460938 54.964844 84.433594 55.109375 84.375 55.246094 C 84.316406 55.386719 84.234375 55.507812 84.128906 55.613281 C 84.023438 55.71875 83.902344 55.800781 83.765625 55.855469 C 83.628906 55.914062 83.484375 55.941406 83.335938 55.941406 Z M 68.511719 56.332031 C 68.3125 56.332031 68.117188 56.292969 67.933594 56.21875 C 67.746094 56.140625 67.582031 56.03125 67.441406 55.890625 C 67.296875 55.746094 67.1875 55.582031 67.113281 55.398438 C 67.035156 55.210938 66.996094 55.015625 66.996094 54.816406 C 66.996094 54.613281 67.035156 54.421875 67.113281 54.234375 C 67.1875 54.050781 67.296875 53.886719 67.441406 53.742188 C 67.582031 53.601562 67.746094 53.492188 67.933594 53.414062 C 68.117188 53.335938 68.3125 53.300781 68.511719 53.300781 C 68.714844 53.300781 68.90625 53.335938 69.09375 53.414062 C 69.28125 53.492188 69.445312 53.601562 69.585938 53.742188 C 69.726562 53.886719 69.839844 54.050781 69.914062 54.234375 C 69.992188 54.421875 70.03125 54.613281 70.03125 54.816406 C 70.03125 55.015625 69.992188 55.210938 69.914062 55.398438 C 69.839844 55.582031 69.726562 55.746094 69.585938 55.890625 C 69.445312 56.03125 69.28125 56.140625 69.09375 56.21875 C 68.910156 56.292969 68.714844 56.332031 68.511719 56.332031 Z M 59.769531 56.4375 C 59.554688 56.4375 59.347656 56.394531 59.148438 56.3125 C 58.949219 56.234375 58.773438 56.117188 58.621094 55.964844 C 58.46875 55.8125 58.351562 55.636719 58.269531 55.4375 C 58.1875 55.242188 58.144531 55.035156 58.144531 54.820312 C 58.144531 54.605469 58.183594 54.398438 58.265625 54.199219 C 58.347656 54 58.464844 53.824219 58.617188 53.671875 C 58.769531 53.519531 58.945312 53.402344 59.144531 53.320312 C 59.339844 53.238281 59.546875 53.195312 59.761719 53.195312 C 59.976562 53.195312 60.183594 53.238281 60.382812 53.320312 C 60.582031 53.402344 60.757812 53.519531 60.910156 53.671875 C 61.0625 53.820312 61.179688 53.996094 61.261719 54.195312 C 61.34375 54.394531 61.382812 54.601562 61.382812 54.816406 C 61.382812 55.03125 61.34375 55.238281 61.261719 55.433594 C 61.179688 55.632812 61.0625 55.808594 60.910156 55.960938 C 60.761719 56.113281 60.585938 56.230469 60.386719 56.3125 C 60.1875 56.394531 59.984375 56.433594 59.769531 56.4375 Z M 85.683594 49.789062 L 55.292969 49.789062 C 55.132812 49.789062 54.980469 49.820312 54.835938 49.878906 C 54.6875 49.941406 54.558594 50.027344 54.445312 50.136719 C 54.335938 50.25 54.25 50.378906 54.1875 50.527344 C 54.128906 50.671875 54.097656 50.824219 54.097656 50.984375 L 54.097656 58.652344 C 54.097656 58.8125 54.128906 58.960938 54.191406 59.109375 C 54.25 59.253906 54.335938 59.382812 54.449219 59.492188 C 54.5625 59.605469 54.691406 59.691406 54.835938 59.75 C 54.980469 59.808594 55.132812 59.839844 55.292969 59.839844 L 85.683594 59.839844 C 85.84375 59.839844 85.996094 59.808594 86.140625 59.75 C 86.285156 59.691406 86.417969 59.605469 86.527344 59.492188 C 86.640625 59.382812 86.726562 59.253906 86.789062 59.109375 C 86.847656 58.964844 86.878906 58.8125 86.878906 58.652344 L 86.878906 50.984375 C 86.878906 50.824219 86.851562 50.671875 86.789062 50.527344 C 86.730469 50.378906 86.644531 50.25 86.53125 50.136719 C 86.417969 50.027344 86.289062 49.9375 86.144531 49.878906 C 85.996094 49.816406 85.84375 49.789062 85.683594 49.789062 Z M 85.683594 49.789062 " fill-opacity="1" fill-rule="nonzero"/></g><g clip-path="url(#ff87d27caf)"><path fill="#f2b42c" d="M 83.335938 68.242188 L 75.007812 68.242188 C 74.855469 68.242188 74.714844 68.210938 74.574219 68.15625 C 74.4375 68.097656 74.316406 68.015625 74.210938 67.910156 C 74.105469 67.804688 74.023438 67.683594 73.964844 67.546875 C 73.910156 67.40625 73.878906 67.265625 73.878906 67.113281 C 73.878906 66.964844 73.910156 66.820312 73.964844 66.683594 C 74.023438 66.546875 74.105469 66.425781 74.210938 66.320312 C 74.316406 66.214844 74.4375 66.132812 74.574219 66.074219 C 74.714844 66.015625 74.855469 65.988281 75.007812 65.988281 L 83.335938 65.988281 C 83.484375 65.988281 83.628906 66.015625 83.765625 66.074219 C 83.902344 66.132812 84.023438 66.214844 84.128906 66.320312 C 84.234375 66.425781 84.316406 66.546875 84.375 66.683594 C 84.433594 66.820312 84.460938 66.964844 84.460938 67.113281 C 84.460938 67.265625 84.433594 67.40625 84.375 67.546875 C 84.316406 67.683594 84.234375 67.804688 84.128906 67.910156 C 84.023438 68.015625 83.902344 68.097656 83.765625 68.15625 C 83.628906 68.210938 83.484375 68.242188 83.335938 68.242188 Z M 68.511719 68.640625 C 68.3125 68.640625 68.117188 68.601562 67.929688 68.527344 C 67.746094 68.449219 67.578125 68.339844 67.4375 68.199219 C 67.292969 68.054688 67.183594 67.890625 67.105469 67.707031 C 67.027344 67.519531 66.988281 67.324219 66.988281 67.125 C 66.988281 66.921875 67.027344 66.726562 67.101562 66.539062 C 67.179688 66.355469 67.289062 66.1875 67.429688 66.046875 C 67.574219 65.902344 67.738281 65.792969 67.921875 65.714844 C 68.109375 65.636719 68.304688 65.597656 68.503906 65.597656 C 68.707031 65.597656 68.902344 65.636719 69.085938 65.710938 C 69.273438 65.789062 69.4375 65.898438 69.582031 66.039062 C 69.726562 66.183594 69.835938 66.347656 69.914062 66.53125 C 69.992188 66.71875 70.03125 66.914062 70.03125 67.113281 C 70.03125 67.316406 69.992188 67.511719 69.917969 67.695312 C 69.839844 67.882812 69.730469 68.046875 69.589844 68.191406 C 69.445312 68.335938 69.28125 68.445312 69.09375 68.523438 C 68.910156 68.601562 68.714844 68.640625 68.511719 68.640625 Z M 59.769531 68.640625 C 59.566406 68.640625 59.371094 68.601562 59.1875 68.527344 C 59 68.449219 58.835938 68.339844 58.691406 68.199219 C 58.546875 68.054688 58.4375 67.890625 58.359375 67.703125 C 58.28125 67.519531 58.242188 67.324219 58.242188 67.125 C 58.242188 66.921875 58.28125 66.726562 58.359375 66.539062 C 58.433594 66.355469 58.542969 66.1875 58.6875 66.046875 C 58.828125 65.902344 58.992188 65.792969 59.179688 65.714844 C 59.363281 65.636719 59.558594 65.597656 59.761719 65.597656 C 59.960938 65.597656 60.15625 65.636719 60.34375 65.710938 C 60.527344 65.789062 60.695312 65.898438 60.835938 66.039062 C 60.980469 66.183594 61.089844 66.347656 61.167969 66.53125 C 61.246094 66.71875 61.285156 66.914062 61.285156 67.113281 C 61.285156 67.316406 61.25 67.511719 61.171875 67.695312 C 61.09375 67.882812 60.984375 68.046875 60.84375 68.191406 C 60.699219 68.335938 60.535156 68.445312 60.351562 68.523438 C 60.164062 68.601562 59.96875 68.640625 59.769531 68.640625 Z M 85.683594 62.089844 L 55.292969 62.089844 C 55.132812 62.089844 54.980469 62.121094 54.835938 62.183594 C 54.6875 62.242188 54.558594 62.328125 54.449219 62.441406 C 54.335938 62.550781 54.25 62.679688 54.1875 62.824219 C 54.128906 62.972656 54.097656 63.125 54.097656 63.28125 L 54.097656 70.953125 C 54.097656 70.976562 54.101562 71.007812 54.101562 71.035156 C 54.484375 70.890625 54.882812 70.820312 55.292969 70.820312 L 85.683594 70.820312 C 86.09375 70.820312 86.492188 70.894531 86.875 71.035156 C 86.878906 71.007812 86.878906 70.980469 86.878906 70.953125 L 86.878906 63.28125 C 86.878906 63.125 86.847656 62.972656 86.789062 62.824219 C 86.726562 62.679688 86.640625 62.550781 86.53125 62.4375 C 86.417969 62.328125 86.289062 62.242188 86.140625 62.179688 C 85.996094 62.121094 85.84375 62.089844 85.683594 62.089844 Z M 85.683594 62.089844 " fill-opacity="1" fill-rule="nonzero"/></g><g clip-path="url(#514a908c22)"><path fill="#f2b42c" d="M 12.550781 44.183594 L 16.558594 44.183594 C 16.710938 44.183594 16.851562 44.214844 16.992188 44.269531 C 17.128906 44.328125 17.25 44.410156 17.355469 44.515625 C 17.460938 44.621094 17.542969 44.742188 17.601562 44.878906 C 17.65625 45.019531 17.6875 45.160156 17.6875 45.3125 L 17.6875 61.222656 C 17.683594 61.609375 17.753906 61.984375 17.902344 62.34375 C 18.046875 62.703125 18.257812 63.019531 18.53125 63.296875 C 18.804688 63.570312 19.121094 63.78125 19.476562 63.933594 C 19.835938 64.082031 20.210938 64.15625 20.597656 64.15625 C 20.984375 64.15625 21.359375 64.082031 21.714844 63.933594 C 22.074219 63.78125 22.390625 63.570312 22.664062 63.296875 C 22.9375 63.019531 23.148438 62.703125 23.292969 62.34375 C 23.441406 61.984375 23.511719 61.609375 23.507812 61.222656 L 23.507812 45.3125 C 23.507812 45.160156 23.535156 45.019531 23.59375 44.878906 C 23.648438 44.742188 23.730469 44.621094 23.835938 44.515625 C 23.941406 44.410156 24.0625 44.328125 24.199219 44.269531 C 24.339844 44.214844 24.480469 44.183594 24.628906 44.183594 L 28.636719 44.183594 C 28.882812 44.1875 29.054688 44.074219 29.148438 43.84375 C 29.246094 43.617188 29.207031 43.414062 29.03125 43.238281 L 20.992188 35.195312 C 20.882812 35.085938 20.75 35.03125 20.59375 35.03125 C 20.441406 35.03125 20.3125 35.085938 20.203125 35.195312 L 12.160156 43.238281 C 11.984375 43.414062 11.945312 43.613281 12.039062 43.84375 C 12.132812 44.070312 12.304688 44.183594 12.550781 44.183594 Z M 12.550781 44.183594 " fill-opacity="1" fill-rule="nonzero"/></g><g clip-path="url(#bedb4ecd2e)"><path fill="#f2b42c" d="M 39.78125 54.179688 C 39.671875 54.074219 39.539062 54.019531 39.386719 54.019531 C 39.234375 54.023438 39.101562 54.078125 38.992188 54.183594 L 30.957031 62.222656 C 30.769531 62.398438 30.730469 62.597656 30.832031 62.832031 C 30.921875 63.066406 31.09375 63.179688 31.347656 63.175781 L 35.351562 63.175781 C 35.5 63.175781 35.644531 63.203125 35.78125 63.261719 C 35.921875 63.316406 36.042969 63.398438 36.148438 63.503906 C 36.253906 63.609375 36.335938 63.730469 36.390625 63.871094 C 36.449219 64.007812 36.476562 64.152344 36.476562 64.300781 L 36.476562 80.210938 C 36.480469 80.597656 36.554688 80.964844 36.707031 81.320312 C 36.855469 81.675781 37.066406 81.988281 37.335938 82.257812 C 37.609375 82.527344 37.925781 82.738281 38.28125 82.882812 C 38.636719 83.03125 39.003906 83.101562 39.390625 83.101562 C 39.773438 83.101562 40.144531 83.03125 40.5 82.882812 C 40.851562 82.738281 41.167969 82.527344 41.441406 82.257812 C 41.710938 81.988281 41.921875 81.675781 42.074219 81.320312 C 42.222656 80.964844 42.296875 80.597656 42.300781 80.210938 L 42.300781 64.300781 C 42.300781 64.152344 42.328125 64.007812 42.386719 63.871094 C 42.445312 63.730469 42.523438 63.609375 42.628906 63.503906 C 42.734375 63.398438 42.859375 63.316406 42.996094 63.261719 C 43.132812 63.203125 43.277344 63.175781 43.425781 63.175781 L 47.429688 63.175781 C 47.601562 63.179688 47.742188 63.117188 47.851562 62.988281 C 47.851562 62.984375 47.851562 62.980469 47.855469 62.980469 C 47.890625 62.9375 47.921875 62.886719 47.941406 62.835938 C 48.050781 62.605469 48.011719 62.398438 47.828125 62.222656 Z M 39.78125 54.179688 " fill-opacity="1" fill-rule="nonzero"/></g><path fill="#512d7c" d="M 55.289062 47.535156 L 85.1875 47.535156 C 84.746094 46.898438 84.234375 46.324219 83.652344 45.808594 C 83.070312 45.292969 82.433594 44.855469 81.75 44.496094 C 81.0625 44.132812 80.339844 43.859375 79.585938 43.671875 C 78.832031 43.488281 78.070312 43.390625 77.292969 43.390625 C 76.335938 43.386719 75.402344 43.527344 74.492188 43.808594 C 74.320312 43.859375 74.148438 43.871094 73.96875 43.84375 C 73.792969 43.8125 73.632812 43.746094 73.488281 43.636719 C 73.34375 43.53125 73.234375 43.398438 73.152344 43.238281 C 73.070312 43.082031 73.03125 42.910156 73.03125 42.730469 L 73.03125 42.578125 C 73.03125 41.964844 72.949219 41.359375 72.789062 40.769531 C 72.628906 40.175781 72.390625 39.613281 72.078125 39.085938 C 71.769531 38.554688 71.394531 38.078125 70.953125 37.648438 C 70.511719 37.21875 70.023438 36.855469 69.488281 36.558594 C 68.949219 36.261719 68.382812 36.039062 67.785156 35.894531 C 67.191406 35.75 66.585938 35.683594 65.972656 35.699219 C 65.355469 35.714844 64.757812 35.8125 64.167969 35.992188 C 63.582031 36.167969 63.027344 36.421875 62.507812 36.746094 C 62.367188 36.835938 62.214844 36.890625 62.050781 36.910156 C 61.882812 36.933594 61.722656 36.917969 61.566406 36.867188 C 61.40625 36.816406 61.265625 36.734375 61.144531 36.621094 C 61.023438 36.507812 60.929688 36.375 60.867188 36.222656 C 60.589844 35.542969 60.210938 34.925781 59.734375 34.371094 C 59.257812 33.8125 58.707031 33.34375 58.082031 32.964844 C 57.453125 32.582031 56.785156 32.308594 56.070312 32.144531 C 55.355469 31.976562 54.636719 31.925781 53.90625 31.988281 C 53.175781 32.054688 52.472656 32.230469 51.800781 32.519531 C 51.125 32.808594 50.515625 33.195312 49.964844 33.679688 C 49.414062 34.164062 48.953125 34.722656 48.582031 35.351562 C 48.207031 35.984375 47.945312 36.65625 47.789062 37.375 C 47.757812 37.519531 47.699219 37.652344 47.617188 37.773438 C 47.53125 37.898438 47.429688 38 47.304688 38.078125 C 47.179688 38.160156 47.046875 38.214844 46.902344 38.242188 C 46.753906 38.269531 46.609375 38.269531 46.464844 38.238281 C 46.074219 38.15625 45.675781 38.109375 45.277344 38.097656 C 44.878906 38.085938 44.480469 38.109375 44.085938 38.167969 C 43.691406 38.226562 43.300781 38.316406 42.921875 38.441406 C 42.542969 38.570312 42.175781 38.726562 41.824219 38.914062 C 41.472656 39.105469 41.140625 39.324219 40.824219 39.570312 C 40.511719 39.816406 40.222656 40.089844 39.953125 40.386719 C 39.6875 40.6875 39.449219 41.003906 39.238281 41.34375 C 39.027344 41.683594 38.847656 42.039062 38.699219 42.410156 C 41.847656 44.023438 44.046875 46.410156 45.074219 49.386719 C 45.121094 49.527344 45.140625 49.671875 45.132812 49.820312 C 45.125 49.96875 45.085938 50.109375 45.023438 50.242188 C 44.957031 50.378906 44.871094 50.496094 44.757812 50.59375 C 44.648438 50.691406 44.519531 50.765625 44.378906 50.816406 C 44.261719 50.855469 44.136719 50.875 44.011719 50.875 C 43.773438 50.878906 43.554688 50.808594 43.359375 50.667969 C 43.164062 50.53125 43.027344 50.347656 42.949219 50.121094 C 42.015625 47.449219 39.984375 45.402344 36.898438 44.039062 C 35.777344 43.605469 34.617188 43.390625 33.414062 43.390625 C 32.75 43.390625 32.09375 43.457031 31.445312 43.59375 C 31.445312 43.976562 31.375 44.347656 31.230469 44.703125 C 31.015625 45.226562 30.671875 45.648438 30.199219 45.964844 C 29.726562 46.28125 29.203125 46.4375 28.636719 46.4375 L 25.757812 46.4375 L 25.757812 58.757812 C 26.585938 59.859375 27.609375 60.738281 28.820312 61.398438 C 28.957031 61.113281 29.140625 60.855469 29.367188 60.632812 L 37.402344 52.589844 C 37.667969 52.328125 37.96875 52.128906 38.3125 51.988281 C 38.65625 51.84375 39.015625 51.773438 39.386719 51.773438 C 39.757812 51.773438 40.113281 51.84375 40.457031 51.988281 C 40.800781 52.128906 41.105469 52.328125 41.367188 52.589844 L 49.417969 60.632812 C 49.949219 61.167969 50.222656 61.8125 50.238281 62.566406 L 51.921875 62.566406 C 52.054688 61.957031 52.328125 61.425781 52.753906 60.964844 C 52.148438 60.3125 51.847656 59.542969 51.847656 58.652344 L 51.847656 50.984375 C 51.847656 50.527344 51.933594 50.085938 52.109375 49.664062 C 52.285156 49.242188 52.535156 48.871094 52.855469 48.546875 C 53.179688 48.226562 53.550781 47.976562 53.972656 47.800781 C 54.394531 47.625 54.835938 47.539062 55.292969 47.535156 Z M 55.289062 47.535156 " fill-opacity="1" fill-rule="nonzero"/></svg>