<svg xmlns="http://www.w3.org/2000/svg" xmlns:xlink="http://www.w3.org/1999/xlink" width="132" zoomAndPan="magnify" viewBox="0 0 98.88 98.999996" height="132" preserveAspectRatio="xMidYMid meet" version="1.0"><defs><clipPath id="15ff53ed3b"><path d="M 0 0.0585938 L 98.761719 0.0585938 L 98.761719 98.9375 L 0 98.9375 Z M 0 0.0585938 " clip-rule="nonzero"/></clipPath><clipPath id="57eb663963"><path d="M 11.777344 13.15625 L 87.4375 13.15625 L 87.4375 85.820312 L 11.777344 85.820312 Z M 11.777344 13.15625 " clip-rule="nonzero"/></clipPath></defs><g clip-path="url(#15ff53ed3b)"><path fill="#ffffff" d="M 0 0.0585938 L 98.878906 0.0585938 L 98.878906 98.941406 L 0 98.941406 Z M 0 0.0585938 " fill-opacity="1" fill-rule="nonzero"/><path fill="#ffffff" d="M 0 0.0585938 L 98.878906 0.0585938 L 98.878906 98.941406 L 0 98.941406 Z M 0 0.0585938 " fill-opacity="1" fill-rule="nonzero"/></g><path fill="#512d7c" d="M 19.4375 56.933594 C 19.074219 56.933594 18.78125 57.226562 18.78125 57.589844 L 18.78125 60.027344 C 18.78125 60.390625 19.074219 60.683594 19.4375 60.683594 C 19.800781 60.683594 20.097656 60.390625 20.097656 60.027344 L 20.097656 57.589844 C 20.097656 57.226562 19.800781 56.933594 19.4375 56.933594 Z M 19.4375 56.933594 " fill-opacity="1" fill-rule="nonzero"/><path fill="#512d7c" d="M 23.425781 57.65625 C 23.0625 57.65625 22.765625 57.949219 22.765625 58.3125 L 22.765625 60.746094 C 22.765625 61.109375 23.0625 61.402344 23.425781 61.402344 C 23.785156 61.402344 24.082031 61.109375 24.082031 60.746094 L 24.082031 58.3125 C 24.082031 57.949219 23.785156 57.65625 23.425781 57.65625 Z M 23.425781 57.65625 " fill-opacity="1" fill-rule="nonzero"/><path fill="#512d7c" d="M 27.410156 58.152344 C 27.046875 58.152344 26.753906 58.445312 26.753906 58.808594 L 26.753906 61.242188 C 26.753906 61.605469 27.046875 61.902344 27.410156 61.902344 C 27.773438 61.902344 28.066406 61.605469 28.066406 61.242188 L 28.066406 58.808594 C 28.066406 58.445312 27.773438 58.152344 27.410156 58.152344 Z M 27.410156 58.152344 " fill-opacity="1" fill-rule="nonzero"/><path fill="#512d7c" d="M 19.4375 77.015625 C 19.074219 77.015625 18.78125 77.3125 18.78125 77.675781 L 18.78125 80.109375 C 18.78125 80.472656 19.074219 80.765625 19.4375 80.765625 C 19.800781 80.765625 20.097656 80.472656 20.097656 80.109375 L 20.097656 77.675781 C 20.097656 77.3125 19.800781 77.015625 19.4375 77.015625 Z M 19.4375 77.015625 " fill-opacity="1" fill-rule="nonzero"/><path fill="#512d7c" d="M 23.425781 77.738281 C 23.0625 77.738281 22.765625 78.03125 22.765625 78.394531 L 22.765625 80.828125 C 22.765625 81.191406 23.0625 81.484375 23.425781 81.484375 C 23.785156 81.484375 24.082031 81.191406 24.082031 80.828125 L 24.082031 78.394531 C 24.082031 78.03125 23.785156 77.738281 23.425781 77.738281 Z M 23.425781 77.738281 " fill-opacity="1" fill-rule="nonzero"/><path fill="#512d7c" d="M 27.410156 78.234375 C 27.046875 78.234375 26.753906 78.527344 26.753906 78.890625 L 26.753906 81.324219 C 26.753906 81.6875 27.046875 81.984375 27.410156 81.984375 C 27.773438 81.984375 28.066406 81.6875 28.066406 81.324219 L 28.066406 78.890625 C 28.066406 78.527344 27.773438 78.234375 27.410156 78.234375 Z M 27.410156 78.234375 " fill-opacity="1" fill-rule="nonzero"/><g clip-path="url(#57eb663963)"><path fill="#512d7c" d="M 86.519531 22.171875 L 63.054688 13.273438 C 62.910156 13.21875 62.742188 13.21875 62.597656 13.273438 L 39.144531 22.171875 C 38.898438 22.265625 38.726562 22.488281 38.710938 22.75 C 38.34375 29.980469 39.671875 37.210938 42.523438 43.730469 C 40.488281 43.402344 38.316406 43.164062 36.03125 43.058594 C 33.824219 42.953125 31.71875 42.914062 29.261719 43.058594 C 20.597656 43.480469 11.859375 45.621094 11.765625 49.460938 C 11.753906 49.488281 11.753906 49.5 11.753906 49.527344 L 11.753906 59.121094 C 11.753906 59.121094 11.738281 59.121094 11.738281 59.136719 C 11.738281 59.226562 11.777344 59.304688 11.777344 59.382812 C 11.765625 59.449219 11.753906 59.503906 11.753906 59.570312 L 11.753906 69.152344 C 11.753906 69.164062 11.738281 69.164062 11.738281 69.175781 C 11.738281 69.269531 11.777344 69.347656 11.777344 69.425781 C 11.765625 69.492188 11.753906 69.546875 11.753906 69.609375 L 11.753906 79.195312 C 11.753906 79.207031 11.738281 79.207031 11.738281 79.21875 C 11.738281 83.480469 22.503906 85.765625 32.640625 85.765625 C 42.601562 85.765625 53.160156 83.542969 53.5 79.417969 C 53.511719 79.351562 53.539062 79.285156 53.539062 79.21875 L 53.539062 69.609375 C 53.539062 69.53125 53.511719 69.464844 53.488281 69.402344 C 53.496094 69.390625 53.5 69.382812 53.5 69.375 C 53.511719 69.308594 53.539062 69.242188 53.539062 69.175781 L 53.539062 59.570312 C 53.539062 59.488281 53.511719 59.425781 53.5 59.359375 C 53.527344 59.292969 53.539062 59.214844 53.539062 59.136719 L 53.539062 59.082031 C 56.90625 62.171875 60.164062 64.289062 62.503906 65.601562 C 62.609375 65.65625 62.714844 65.679688 62.832031 65.679688 C 62.9375 65.679688 63.042969 65.65625 63.148438 65.601562 C 68.144531 62.800781 77.359375 56.335938 82.8125 44.480469 C 85.902344 37.761719 87.335938 30.257812 86.941406 22.75 C 86.925781 22.488281 86.757812 22.265625 86.519531 22.171875 Z M 38.304688 47.554688 C 38.371094 47.488281 38.4375 47.449219 38.515625 47.410156 C 38.6875 47.34375 38.855469 47.34375 39.027344 47.410156 C 39.105469 47.449219 39.171875 47.488281 39.238281 47.554688 C 39.355469 47.671875 39.433594 47.84375 39.433594 48.015625 C 39.433594 48.183594 39.355469 48.355469 39.238281 48.472656 C 39.171875 48.539062 39.105469 48.59375 39.027344 48.621094 C 38.949219 48.660156 38.855469 48.671875 38.777344 48.671875 C 38.6875 48.671875 38.605469 48.660156 38.515625 48.621094 C 38.4375 48.59375 38.371094 48.539062 38.304688 48.472656 C 38.1875 48.355469 38.121094 48.183594 38.121094 48.015625 C 38.121094 47.84375 38.1875 47.671875 38.304688 47.554688 Z M 19.863281 48.539062 C 22.335938 47.6875 24.910156 47.121094 27.511719 46.859375 C 29.589844 46.632812 31.691406 46.609375 33.769531 46.765625 C 34.136719 46.792969 34.414062 47.109375 34.386719 47.476562 C 34.347656 47.832031 34.03125 48.09375 33.679688 48.082031 C 31.667969 47.921875 29.644531 47.949219 27.644531 48.160156 C 25.148438 48.421875 22.675781 48.960938 20.285156 49.777344 C 20.21875 49.800781 20.140625 49.816406 20.074219 49.816406 C 19.796875 49.816406 19.546875 49.644531 19.457031 49.367188 C 19.335938 49.027344 19.519531 48.660156 19.863281 48.539062 Z M 52.226562 79.179688 C 52.226562 79.195312 52.210938 79.207031 52.210938 79.21875 C 52.210938 81.691406 44.167969 84.453125 32.640625 84.453125 C 21.113281 84.453125 13.082031 81.703125 13.066406 79.234375 L 13.066406 71.570312 C 16.222656 74.277344 24.621094 75.722656 32.640625 75.722656 C 40.65625 75.722656 49.070312 74.277344 52.226562 71.554688 Z M 18.785156 70.070312 L 18.785156 67.625 C 18.785156 67.269531 19.074219 66.96875 19.441406 66.96875 C 19.796875 66.96875 20.101562 67.269531 20.101562 67.625 L 20.101562 70.070312 C 20.101562 70.425781 19.796875 70.726562 19.441406 70.726562 C 19.074219 70.726562 18.785156 70.425781 18.785156 70.070312 Z M 22.769531 70.78125 L 22.769531 68.347656 C 22.769531 67.996094 23.058594 67.691406 23.425781 67.691406 C 23.792969 67.691406 24.082031 67.996094 24.082031 68.347656 L 24.082031 70.78125 C 24.082031 71.148438 23.792969 71.4375 23.425781 71.4375 C 23.058594 71.4375 22.769531 71.148438 22.769531 70.78125 Z M 26.75 71.28125 L 26.75 68.847656 C 26.75 68.480469 27.039062 68.191406 27.40625 68.191406 C 27.777344 68.191406 28.066406 68.480469 28.066406 68.847656 L 28.066406 71.28125 C 28.066406 71.648438 27.777344 71.9375 27.40625 71.9375 C 27.039062 71.9375 26.75 71.648438 26.75 71.28125 Z M 52.226562 59.082031 C 52.226562 59.09375 52.210938 59.121094 52.210938 59.136719 C 52.210938 61.605469 44.167969 64.367188 32.640625 64.367188 C 21.113281 64.367188 13.082031 61.621094 13.066406 59.148438 L 13.066406 51.90625 C 16.207031 54.613281 24.621094 56.058594 32.640625 56.058594 C 38.921875 56.058594 44.691406 55.242188 48.625 53.8125 C 49.792969 55.285156 51.015625 56.609375 52.226562 57.820312 Z M 81.617188 43.925781 C 76.425781 55.203125 67.75 61.460938 62.832031 64.273438 C 57.902344 61.460938 49.226562 55.203125 44.035156 43.925781 C 41.089844 37.539062 39.710938 30.386719 40.015625 23.25 L 62.832031 14.585938 L 85.640625 23.25 C 85.953125 30.386719 84.5625 37.539062 81.617188 43.925781 Z M 81.617188 43.925781 " fill-opacity="1" fill-rule="nonzero"/></g><path fill="#512d7c" d="M 81.078125 25.945312 L 63.054688 19.109375 C 62.910156 19.042969 62.742188 19.042969 62.597656 19.109375 L 44.574219 25.945312 C 44.3125 26.035156 44.140625 26.300781 44.140625 26.589844 C 44.363281 32.03125 45.613281 37.261719 47.835938 42.113281 C 51.792969 50.695312 57.96875 56.097656 62.464844 59.136719 C 62.570312 59.199219 62.703125 59.238281 62.832031 59.238281 C 62.953125 59.238281 63.082031 59.199219 63.199219 59.136719 C 67.683594 56.097656 73.859375 50.695312 77.816406 42.113281 C 80.050781 37.261719 81.289062 32.03125 81.511719 26.589844 C 81.523438 26.300781 81.355469 26.035156 81.078125 25.945312 Z M 70.613281 47.398438 C 70.613281 47.765625 70.3125 48.054688 69.957031 48.054688 L 55.707031 48.054688 C 55.339844 48.054688 55.050781 47.765625 55.050781 47.398438 L 55.050781 33.148438 C 55.050781 32.792969 55.339844 32.492188 55.707031 32.492188 L 57.46875 32.492188 L 57.46875 29.179688 C 57.46875 26.222656 59.875 23.816406 62.832031 23.816406 C 65.789062 23.816406 68.183594 26.222656 68.183594 29.179688 L 68.183594 32.492188 L 69.957031 32.492188 C 70.3125 32.492188 70.613281 32.792969 70.613281 33.148438 Z M 70.613281 47.398438 " fill-opacity="1" fill-rule="nonzero"/><path fill="#512d7c" d="M 56.367188 46.738281 L 69.300781 46.738281 L 69.300781 33.804688 L 56.367188 33.804688 Z M 62.832031 35.789062 C 64.753906 35.789062 66.316406 37.339844 66.316406 39.273438 C 66.316406 40.96875 65.09375 42.375 63.488281 42.691406 L 63.488281 44.664062 C 63.488281 45.03125 63.1875 45.320312 62.832031 45.320312 C 62.464844 45.320312 62.175781 45.03125 62.175781 44.664062 L 62.175781 42.691406 C 60.558594 42.375 59.347656 40.96875 59.347656 39.273438 C 59.347656 37.339844 60.902344 35.789062 62.832031 35.789062 Z M 62.832031 35.789062 " fill-opacity="1" fill-rule="nonzero"/><path fill="#512d7c" d="M 66.867188 29.179688 C 66.867188 26.945312 65.054688 25.128906 62.832031 25.128906 C 60.597656 25.128906 58.785156 26.945312 58.785156 29.179688 L 58.785156 32.492188 L 66.867188 32.492188 Z M 66.867188 29.179688 " fill-opacity="1" fill-rule="nonzero"/><path fill="#512d7c" d="M 62.832031 41.441406 C 64.027344 41.441406 65 40.46875 65 39.273438 C 65 38.078125 64.027344 37.105469 62.832031 37.105469 C 61.636719 37.105469 60.664062 38.078125 60.664062 39.273438 C 60.664062 40.46875 61.636719 41.441406 62.832031 41.441406 Z M 62.832031 41.441406 " fill-opacity="1" fill-rule="nonzero"/></svg>