<svg xmlns="http://www.w3.org/2000/svg" xmlns:xlink="http://www.w3.org/1999/xlink" width="132" zoomAndPan="magnify" viewBox="0 0 98.88 98.999996" height="132" preserveAspectRatio="xMidYMid meet" version="1.0"><defs><clipPath id="7ad4866a66"><path d="M 0 0.0585938 L 98.761719 0.0585938 L 98.761719 98.9375 L 0 98.9375 Z M 0 0.0585938 " clip-rule="nonzero"/></clipPath><clipPath id="fa626e89d0"><path d="M 15 13 L 87.515625 13 L 87.515625 62 L 15 62 Z M 15 13 " clip-rule="nonzero"/></clipPath><clipPath id="1906745d59"><path d="M 11.109375 18 L 28 18 L 28 23 L 11.109375 23 Z M 11.109375 18 " clip-rule="nonzero"/></clipPath><clipPath id="b69c32ce2b"><path d="M 11.109375 27 L 26 27 L 26 32 L 11.109375 32 Z M 11.109375 27 " clip-rule="nonzero"/></clipPath></defs><g clip-path="url(#7ad4866a66)"><path fill="#ffffff" d="M 0 0.0585938 L 98.878906 0.0585938 L 98.878906 98.941406 L 0 98.941406 Z M 0 0.0585938 " fill-opacity="1" fill-rule="nonzero"/><path fill="#ffffff" d="M 0 0.0585938 L 98.878906 0.0585938 L 98.878906 98.941406 L 0 98.941406 Z M 0 0.0585938 " fill-opacity="1" fill-rule="nonzero"/></g><path fill="#ffcc00" d="M 43.597656 68.289062 L 48.722656 68.15625 L 48.976562 85.84375 L 43.828125 85.609375 Z M 43.597656 68.289062 " fill-opacity="1" fill-rule="evenodd"/><path fill="#ffcc00" d="M 34.429688 85.636719 C 33.660156 80.105469 33.914062 65.996094 34.328125 60.148438 L 39.433594 60.277344 L 39.269531 85.507812 Z M 34.328125 60.148438 C 34.257812 60.226562 34.167969 60.339844 34.140625 60.402344 L 33.882812 84.867188 C 34.195312 86.011719 33.503906 85.277344 34.429688 85.636719 Z M 34.328125 60.148438 " fill-opacity="1" fill-rule="evenodd"/><g clip-path="url(#fa626e89d0)"><path fill="#512d7c" d="M 77.652344 31.863281 C 78.523438 34.707031 79.152344 37.050781 82.558594 37.265625 C 86.230469 37.496094 87.589844 35.464844 87.683594 32.226562 C 87.777344 28.871094 87.675781 25.398438 87.710938 22.019531 C 87.746094 18.570312 88.1875 15.945312 86.0625 14.101562 C 83.640625 12.003906 80.566406 13.457031 77.832031 14.203125 C 75.175781 14.929688 72.6875 15.390625 69.941406 16.03125 C 63.347656 17.566406 62.929688 22.929688 69.992188 25.628906 C 68.445312 27.597656 51.796875 44.035156 49.789062 44.863281 C 46.925781 43.503906 44.074219 41.730469 41.355469 40.21875 C 32.042969 35.03125 33.335938 38.449219 23.242188 47.730469 C 21.074219 49.722656 21.632812 49.046875 18.691406 51.046875 C 11.28125 56.8125 17.214844 66.921875 27.066406 57.285156 L 36.402344 48.15625 C 44.03125 50.542969 48.605469 58.9375 54.691406 53.496094 L 68.628906 40.410156 C 72.367188 36.757812 73.269531 35.488281 77.652344 31.863281 Z M 77.652344 31.863281 " fill-opacity="1" fill-rule="evenodd"/></g><path fill="#ffcc00" d="M 71.675781 85.535156 C 73.132812 86.113281 75.183594 86.011719 77.191406 85.800781 C 77.148438 74.136719 77.402344 61.605469 76.902344 49.941406 C 75.160156 48.738281 75.5 49.421875 75.464844 49.414062 L 71.4375 49.46875 L 71.445312 76.492188 Z M 71.675781 85.535156 " fill-opacity="1" fill-rule="evenodd"/><path fill="#ffcc00" d="M 86.46875 55.832031 C 79.835938 55.566406 80.929688 53.441406 80.902344 68.078125 C 80.890625 73.929688 80.832031 79.785156 80.976562 85.792969 L 86.640625 85.867188 C 86.914062 81.097656 87.289062 59.414062 86.46875 55.832031 Z M 86.46875 55.832031 " fill-opacity="1" fill-rule="evenodd"/><path fill="#ffcc00" d="M 62.304688 85.71875 C 64.050781 85.992188 66.164062 86.160156 67.765625 85.386719 L 67.78125 55.300781 L 62.09375 55.105469 Z M 62.304688 85.71875 " fill-opacity="1" fill-rule="evenodd"/><path fill="#ffcc00" d="M 34.429688 85.636719 L 39.269531 85.507812 L 39.433594 60.277344 L 34.328125 60.148438 C 33.914062 65.996094 33.660156 80.105469 34.429688 85.636719 Z M 34.429688 85.636719 " fill-opacity="1" fill-rule="evenodd"/><path fill="#ffcc00" d="M 24.738281 66.027344 C 24.046875 68.863281 24.425781 82.160156 24.617188 85.867188 L 30.210938 85.75 C 30.402344 82.578125 30.730469 68.171875 29.832031 66.367188 C 28.515625 65.597656 26.664062 66.054688 24.738281 66.027344 Z M 24.738281 66.027344 " fill-opacity="1" fill-rule="evenodd"/><path fill="#ffcc00" d="M 53.234375 85.414062 L 58.148438 85.5625 C 58.628906 82.820312 58.550781 65.691406 57.878906 63.277344 C 57.011719 63.1875 55.96875 63.117188 55.089844 63.164062 C 54.785156 63.179688 54.191406 63.242188 53.890625 63.304688 C 52.699219 63.554688 53.566406 63.222656 52.996094 63.683594 Z M 53.234375 85.414062 " fill-opacity="1" fill-rule="evenodd"/><path fill="#ffcc00" d="M 14.949219 85.832031 L 20.695312 85.910156 L 20.550781 68.898438 L 14.910156 69.140625 Z M 14.949219 85.832031 " fill-opacity="1" fill-rule="evenodd"/><path fill="#ffcc00" d="M 43.828125 85.609375 L 48.976562 85.84375 L 48.722656 68.15625 L 43.597656 68.289062 Z M 43.828125 85.609375 " fill-opacity="1" fill-rule="evenodd"/><g clip-path="url(#1906745d59)"><path fill="#ffcc00" d="M 22.335938 18.597656 C 20.335938 18.628906 13.382812 18.226562 12.1875 19 C 11.976562 19.132812 8.191406 22.957031 17.015625 22.835938 C 20.132812 22.792969 24.617188 23.039062 27.308594 22.511719 C 28.933594 18.363281 26.558594 18.519531 22.335938 18.597656 Z M 22.335938 18.597656 " fill-opacity="1" fill-rule="evenodd"/></g><path fill="#ffcc00" d="M 40.492188 22.8125 C 44.597656 22.800781 48.085938 23.714844 47.234375 19.132812 C 45.054688 18.214844 41.195312 18.613281 38.277344 18.59375 C 34.792969 18.570312 32.089844 17.664062 31.042969 20.691406 C 32.726562 23.699219 32.398438 22.839844 40.492188 22.8125 Z M 40.492188 22.8125 " fill-opacity="1" fill-rule="evenodd"/><g clip-path="url(#b69c32ce2b)"><path fill="#ffcc00" d="M 16.578125 31.375 C 19.09375 31.375 24.152344 32.046875 25.367188 30.320312 C 27.601562 27.136719 22.59375 27.316406 20.117188 27.316406 C 17.460938 27.316406 10.796875 26.390625 11.121094 29.550781 C 11.34375 31.730469 15.03125 31.375 16.578125 31.375 Z M 16.578125 31.375 " fill-opacity="1" fill-rule="evenodd"/></g><path fill="#ffcc00" d="M 51.832031 27.902344 C 49.835938 27.003906 42.988281 26.5 41.257812 28.117188 C 38.964844 32.878906 49.875 31.578125 51.867188 30.679688 Z M 51.832031 27.902344 " fill-opacity="1" fill-rule="evenodd"/><path fill="#ffcc00" d="M 34.429688 85.636719 C 33.660156 80.105469 33.914062 65.996094 34.328125 60.148438 L 39.433594 60.277344 L 39.269531 85.507812 Z M 34.328125 60.148438 C 34.257812 60.226562 34.167969 60.339844 34.140625 60.402344 L 33.882812 84.867188 C 34.195312 86.011719 33.503906 85.277344 34.429688 85.636719 Z M 34.328125 60.148438 " fill-opacity="1" fill-rule="evenodd"/><path fill="#ffcc00" d="M 34.429688 85.636719 L 39.269531 85.507812 L 39.433594 60.277344 L 34.328125 60.148438 C 33.914062 65.996094 33.660156 80.105469 34.429688 85.636719 Z M 34.429688 85.636719 " fill-opacity="1" fill-rule="evenodd"/></svg>