<svg xmlns="http://www.w3.org/2000/svg" xmlns:xlink="http://www.w3.org/1999/xlink" width="132" zoomAndPan="magnify" viewBox="0 0 98.88 98.999996" height="132" preserveAspectRatio="xMidYMid meet" version="1.0"><defs><clipPath id="2ec3b4b3a4"><path d="M 0 0.0585938 L 98.761719 0.0585938 L 98.761719 98.9375 L 0 98.9375 Z M 0 0.0585938 " clip-rule="nonzero"/></clipPath><clipPath id="ba7e9017fa"><path d="M 24 20.398438 L 89 20.398438 L 89 60 L 24 60 Z M 24 20.398438 " clip-rule="nonzero"/></clipPath><clipPath id="98433220ad"><path d="M 23 20.398438 L 89.519531 20.398438 L 89.519531 60 L 23 60 Z M 23 20.398438 " clip-rule="nonzero"/></clipPath><clipPath id="aa511273b9"><path d="M 47 36 L 89.519531 36 L 89.519531 60 L 47 60 Z M 47 36 " clip-rule="nonzero"/></clipPath></defs><g clip-path="url(#2ec3b4b3a4)"><path fill="#ffffff" d="M 0 0.0585938 L 98.878906 0.0585938 L 98.878906 98.941406 L 0 98.941406 Z M 0 0.0585938 " fill-opacity="1" fill-rule="nonzero"/><path fill="#ffffff" d="M 0 0.0585938 L 98.878906 0.0585938 L 98.878906 98.941406 L 0 98.941406 Z M 0 0.0585938 " fill-opacity="1" fill-rule="nonzero"/></g><g clip-path="url(#ba7e9017fa)"><path fill="#ffffff" d="M 88.785156 59.304688 L 24.054688 59.304688 L 24.054688 20.992188 L 88.785156 20.992188 L 88.785156 59.304688 " fill-opacity="1" fill-rule="nonzero"/></g><g clip-path="url(#98433220ad)"><path fill="#4b1615" d="M 88.785156 59.304688 L 88.785156 58.714844 L 24.640625 58.714844 L 24.640625 21.582031 L 88.199219 21.582031 L 88.199219 59.304688 L 88.785156 59.304688 L 88.785156 58.714844 L 88.785156 59.304688 L 89.371094 59.304688 L 89.371094 20.992188 C 89.371094 20.835938 89.308594 20.6875 89.199219 20.574219 C 89.089844 20.464844 88.9375 20.402344 88.785156 20.402344 L 24.054688 20.402344 C 23.898438 20.402344 23.75 20.464844 23.640625 20.574219 C 23.53125 20.6875 23.46875 20.835938 23.46875 20.992188 L 23.46875 59.304688 C 23.46875 59.460938 23.53125 59.613281 23.640625 59.722656 C 23.75 59.832031 23.898438 59.894531 24.054688 59.894531 L 88.785156 59.894531 C 88.9375 59.894531 89.089844 59.832031 89.199219 59.722656 C 89.308594 59.613281 89.371094 59.460938 89.371094 59.304688 L 88.785156 59.304688 " fill-opacity="1" fill-rule="nonzero"/></g><path fill="#fddd47" d="M 64.929688 32.398438 C 64.929688 36.675781 61.476562 40.148438 57.210938 40.148438 C 52.945312 40.148438 49.488281 36.675781 49.488281 32.398438 C 49.488281 28.117188 52.945312 24.644531 57.210938 24.644531 C 61.476562 24.644531 64.929688 28.117188 64.929688 32.398438 " fill-opacity="1" fill-rule="nonzero"/><path fill="#4b1615" d="M 64.929688 32.398438 L 64.34375 32.398438 C 64.34375 34.378906 63.546875 36.164062 62.253906 37.460938 C 60.960938 38.757812 59.183594 39.558594 57.210938 39.558594 C 55.238281 39.558594 53.457031 38.757812 52.164062 37.460938 C 50.875 36.164062 50.074219 34.378906 50.074219 32.398438 C 50.074219 30.417969 50.875 28.628906 52.164062 27.332031 C 53.457031 26.035156 55.238281 25.234375 57.210938 25.234375 C 59.183594 25.234375 60.960938 26.035156 62.253906 27.332031 C 63.546875 28.628906 64.34375 30.417969 64.34375 32.398438 L 65.519531 32.398438 C 65.519531 30.097656 64.585938 28.007812 63.085938 26.5 C 61.582031 24.988281 59.503906 24.054688 57.210938 24.054688 C 54.917969 24.054688 52.835938 24.988281 51.335938 26.5 C 49.832031 28.007812 48.902344 30.097656 48.902344 32.398438 C 48.902344 37.003906 52.621094 40.738281 57.210938 40.738281 C 59.503906 40.738281 61.582031 39.804688 63.085938 38.292969 C 64.585938 36.789062 65.519531 34.699219 65.519531 32.398438 L 64.929688 32.398438 " fill-opacity="1" fill-rule="nonzero"/><path fill="#64c9a7" d="M 68.675781 59.304688 L 48.5625 59.304688 L 58.621094 48.257812 L 68.675781 37.207031 L 78.730469 48.257812 L 88.785156 59.304688 L 68.675781 59.304688 " fill-opacity="1" fill-rule="nonzero"/><g clip-path="url(#aa511273b9)"><path fill="#4b1615" d="M 68.675781 59.304688 L 68.675781 58.714844 L 49.894531 58.714844 L 59.054688 48.652344 L 68.671875 38.078125 L 78.296875 48.652344 L 87.453125 58.714844 L 68.675781 58.714844 L 68.675781 59.894531 L 88.785156 59.894531 C 89.015625 59.894531 89.226562 59.757812 89.320312 59.542969 C 89.414062 59.328125 89.375 59.078125 89.21875 58.90625 L 79.164062 47.859375 L 69.105469 36.808594 C 68.996094 36.683594 68.839844 36.617188 68.671875 36.617188 C 68.507812 36.617188 68.351562 36.683594 68.242188 36.808594 L 58.1875 47.859375 L 48.128906 58.90625 C 47.972656 59.078125 47.933594 59.328125 48.027344 59.542969 C 48.121094 59.757812 48.332031 59.894531 48.5625 59.894531 L 68.675781 59.894531 L 68.675781 59.304688 " fill-opacity="1" fill-rule="nonzero"/></g><path fill="#64c9a7" d="M 50.570312 44.800781 L 37.367188 30.292969 L 24.167969 44.800781 L 24.054688 44.925781 L 24.054688 59.304688 L 63.769531 59.304688 L 50.570312 44.800781 " fill-opacity="1" fill-rule="nonzero"/><path fill="#4b1615" d="M 50.570312 44.800781 L 51.003906 44.402344 L 37.800781 29.894531 C 37.691406 29.773438 37.535156 29.703125 37.367188 29.703125 C 37.203125 29.703125 37.046875 29.773438 36.9375 29.894531 L 23.734375 44.402344 L 23.734375 44.40625 L 23.617188 44.53125 C 23.523438 44.640625 23.46875 44.78125 23.46875 44.925781 L 23.46875 59.304688 C 23.46875 59.460938 23.53125 59.613281 23.640625 59.722656 C 23.75 59.832031 23.898438 59.894531 24.054688 59.894531 L 63.769531 59.894531 C 64.003906 59.894531 64.214844 59.757812 64.308594 59.542969 C 64.402344 59.328125 64.359375 59.078125 64.203125 58.90625 L 51.003906 44.402344 L 50.570312 44.800781 L 50.136719 45.195312 L 62.441406 58.714844 L 24.640625 58.714844 L 24.640625 44.925781 L 24.054688 44.925781 L 24.492188 45.320312 L 24.605469 45.195312 L 24.601562 45.195312 L 37.367188 31.164062 L 50.136719 45.195312 L 50.570312 44.800781 " fill-opacity="1" fill-rule="nonzero"/><path fill="#f8a22d" d="M 32.660156 53.390625 C 34.128906 57.226562 37.164062 56.160156 42.058594 53.820312 C 47.582031 51.179688 49.238281 57.964844 49.257812 58.023438 C 50.359375 61.164062 49.839844 64.613281 48.429688 67.667969 C 44.648438 75.851562 33.714844 78.824219 24 74.300781 C 14.289062 69.785156 9.480469 59.484375 13.257812 51.300781 C 16.207031 44.917969 23.1875 40.667969 31.199219 42.75 C 37.90625 44.496094 31.191406 49.550781 32.660156 53.390625 " fill-opacity="1" fill-rule="nonzero"/><path fill="#4b1615" d="M 32.660156 53.390625 L 32.109375 53.601562 C 32.296875 54.089844 32.515625 54.515625 32.761719 54.886719 C 33.136719 55.4375 33.59375 55.859375 34.121094 56.128906 C 34.648438 56.398438 35.234375 56.515625 35.84375 56.515625 C 36.742188 56.515625 37.710938 56.273438 38.78125 55.890625 C 39.847656 55.503906 41.019531 54.96875 42.3125 54.355469 C 43.148438 53.953125 43.855469 53.800781 44.460938 53.800781 C 45.234375 53.804688 45.851562 54.046875 46.390625 54.433594 C 46.792969 54.726562 47.140625 55.097656 47.4375 55.5 C 47.878906 56.105469 48.195312 56.773438 48.398438 57.289062 C 48.5 57.546875 48.570312 57.769531 48.621094 57.921875 C 48.644531 58 48.660156 58.0625 48.671875 58.105469 C 48.679688 58.125 48.683594 58.140625 48.6875 58.15625 L 48.691406 58.171875 L 48.695312 58.183594 C 48.699219 58.195312 48.699219 58.195312 48.710938 58.226562 L 49.257812 58.023438 L 48.707031 58.21875 C 49.089844 59.316406 49.265625 60.453125 49.265625 61.605469 C 49.265625 63.5625 48.753906 65.558594 47.894531 67.421875 C 46.660156 70.097656 44.628906 72.191406 42.097656 73.625 C 39.570312 75.058594 36.539062 75.828125 33.339844 75.824219 C 30.367188 75.828125 27.25 75.164062 24.246094 73.769531 C 20.609375 72.074219 17.679688 69.550781 15.667969 66.644531 C 13.652344 63.738281 12.554688 60.449219 12.554688 57.226562 C 12.554688 55.285156 12.953125 53.363281 13.789062 51.550781 C 14.964844 49.007812 16.800781 46.820312 19.085938 45.269531 C 21.375 43.71875 24.113281 42.804688 27.109375 42.804688 C 28.378906 42.804688 29.699219 42.96875 31.050781 43.320312 C 31.601562 43.464844 32.042969 43.628906 32.390625 43.800781 C 32.910156 44.066406 33.214844 44.34375 33.394531 44.625 C 33.570312 44.902344 33.644531 45.199219 33.648438 45.566406 C 33.648438 45.957031 33.554688 46.414062 33.394531 46.917969 C 33.15625 47.671875 32.78125 48.519531 32.457031 49.398438 C 32.136719 50.28125 31.855469 51.203125 31.855469 52.15625 C 31.855469 52.636719 31.929688 53.125 32.109375 53.601562 L 32.660156 53.390625 L 33.207031 53.175781 C 33.082031 52.855469 33.027344 52.515625 33.027344 52.15625 C 33.027344 51.679688 33.125 51.164062 33.285156 50.625 C 33.519531 49.820312 33.890625 48.96875 34.214844 48.121094 C 34.535156 47.273438 34.816406 46.425781 34.820312 45.566406 C 34.820312 45.207031 34.769531 44.84375 34.636719 44.492188 C 34.4375 43.964844 34.0625 43.488281 33.515625 43.105469 C 32.972656 42.722656 32.261719 42.417969 31.34375 42.179688 C 29.898438 41.804688 28.480469 41.625 27.109375 41.625 C 23.871094 41.625 20.898438 42.617188 18.429688 44.292969 C 15.957031 45.96875 13.988281 48.324219 12.726562 51.054688 C 11.8125 53.027344 11.382812 55.125 11.382812 57.226562 C 11.382812 60.71875 12.570312 64.234375 14.703125 67.316406 C 16.839844 70.402344 19.929688 73.058594 23.753906 74.835938 C 26.910156 76.304688 30.195312 77.003906 33.339844 77.003906 C 36.726562 77.003906 39.953125 76.191406 42.675781 74.652344 C 45.394531 73.109375 47.617188 70.832031 48.960938 67.914062 C 49.878906 65.925781 50.441406 63.769531 50.441406 61.605469 C 50.441406 60.332031 50.246094 59.058594 49.8125 57.828125 L 49.808594 57.816406 L 49.289062 58.011719 L 49.820312 57.851562 C 49.820312 57.847656 49.820312 57.84375 49.808594 57.816406 L 49.289062 58.011719 L 49.820312 57.851562 L 49.503906 57.949219 L 49.824219 57.855469 L 49.820312 57.851562 L 49.503906 57.949219 L 49.824219 57.855469 C 49.824219 57.855469 49.8125 57.816406 49.800781 57.769531 C 49.695312 57.40625 49.324219 56.175781 48.511719 54.988281 C 48.105469 54.394531 47.582031 53.808594 46.910156 53.363281 C 46.242188 52.917969 45.414062 52.621094 44.460938 52.621094 C 43.65625 52.621094 42.769531 52.828125 41.804688 53.289062 C 40.527344 53.902344 39.382812 54.417969 38.382812 54.78125 C 37.382812 55.140625 36.527344 55.339844 35.84375 55.339844 C 35.53125 55.339844 35.257812 55.300781 35.011719 55.222656 C 34.636719 55.109375 34.324219 54.914062 34.023438 54.59375 C 33.726562 54.269531 33.449219 53.808594 33.207031 53.175781 L 32.660156 53.390625 " fill-opacity="1" fill-rule="nonzero"/><path fill="#ffffff" d="M 42.988281 66.890625 C 43.675781 65.402344 43.03125 63.628906 41.546875 62.941406 C 40.058594 62.25 38.296875 62.898438 37.609375 64.386719 C 36.921875 65.878906 37.566406 67.648438 39.050781 68.339844 C 40.539062 69.03125 42.300781 68.382812 42.988281 66.890625 " fill-opacity="1" fill-rule="nonzero"/><path fill="#4b1615" d="M 42.988281 66.890625 L 43.519531 67.140625 C 43.742188 66.65625 43.851562 66.144531 43.851562 65.640625 C 43.851562 64.96875 43.660156 64.3125 43.308594 63.746094 C 42.957031 63.179688 42.4375 62.707031 41.792969 62.40625 C 41.308594 62.179688 40.800781 62.074219 40.300781 62.074219 C 39.628906 62.074219 38.976562 62.265625 38.410156 62.617188 C 37.847656 62.972656 37.375 63.492188 37.078125 64.140625 C 36.855469 64.625 36.746094 65.136719 36.746094 65.636719 C 36.746094 66.3125 36.9375 66.96875 37.289062 67.535156 C 37.640625 68.097656 38.160156 68.574219 38.804688 68.875 C 39.289062 69.097656 39.796875 69.203125 40.296875 69.203125 C 40.96875 69.203125 41.621094 69.015625 42.183594 68.660156 C 42.746094 68.308594 43.222656 67.789062 43.519531 67.140625 L 42.988281 66.890625 L 42.457031 66.644531 C 42.253906 67.082031 41.941406 67.425781 41.5625 67.660156 C 41.183594 67.898438 40.746094 68.027344 40.296875 68.027344 C 39.960938 68.027344 39.625 67.957031 39.296875 67.804688 C 38.863281 67.601562 38.519531 67.289062 38.285156 66.910156 C 38.046875 66.53125 37.921875 66.089844 37.921875 65.636719 C 37.921875 65.300781 37.992188 64.960938 38.144531 64.636719 C 38.34375 64.199219 38.65625 63.855469 39.035156 63.617188 C 39.410156 63.378906 39.851562 63.253906 40.300781 63.253906 C 40.632812 63.253906 40.972656 63.324219 41.300781 63.472656 C 41.734375 63.675781 42.074219 63.992188 42.3125 64.371094 C 42.546875 64.75 42.675781 65.191406 42.675781 65.640625 C 42.675781 65.976562 42.605469 66.316406 42.457031 66.644531 L 42.988281 66.890625 " fill-opacity="1" fill-rule="nonzero"/><path fill="#64c9a7" d="M 33.554688 70.355469 C 34.242188 68.867188 33.597656 67.097656 32.109375 66.40625 C 30.625 65.714844 28.863281 66.363281 28.175781 67.855469 C 27.484375 69.34375 28.132812 71.113281 29.617188 71.804688 C 31.101562 72.496094 32.863281 71.847656 33.554688 70.355469 " fill-opacity="1" fill-rule="nonzero"/><path fill="#4b1615" d="M 33.554688 70.355469 L 34.085938 70.605469 C 34.308594 70.121094 34.414062 69.609375 34.414062 69.105469 C 34.414062 68.433594 34.226562 67.777344 33.871094 67.210938 C 33.519531 66.644531 33.003906 66.171875 32.359375 65.871094 C 31.875 65.648438 31.367188 65.539062 30.867188 65.539062 C 30.195312 65.539062 29.539062 65.730469 28.976562 66.085938 C 28.414062 66.4375 27.941406 66.957031 27.640625 67.605469 C 27.417969 68.089844 27.3125 68.601562 27.3125 69.105469 C 27.3125 69.777344 27.503906 70.433594 27.855469 71 C 28.207031 71.566406 28.722656 72.039062 29.371094 72.339844 C 29.851562 72.566406 30.359375 72.671875 30.863281 72.671875 C 31.53125 72.671875 32.1875 72.480469 32.75 72.125 C 33.3125 71.773438 33.785156 71.253906 34.085938 70.605469 L 33.019531 70.109375 C 32.816406 70.546875 32.503906 70.890625 32.128906 71.128906 C 31.75 71.363281 31.308594 71.492188 30.863281 71.492188 C 30.527344 71.492188 30.1875 71.421875 29.863281 71.269531 C 29.429688 71.066406 29.085938 70.753906 28.851562 70.375 C 28.613281 69.996094 28.484375 69.554688 28.484375 69.105469 C 28.484375 68.769531 28.554688 68.429688 28.707031 68.101562 C 28.910156 67.664062 29.222656 67.320312 29.597656 67.085938 C 29.976562 66.847656 30.417969 66.71875 30.867188 66.71875 C 31.199219 66.71875 31.539062 66.789062 31.863281 66.941406 C 32.300781 67.144531 32.640625 67.457031 32.878906 67.835938 C 33.113281 68.214844 33.242188 68.65625 33.242188 69.105469 C 33.242188 69.445312 33.171875 69.785156 33.019531 70.109375 L 33.554688 70.355469 " fill-opacity="1" fill-rule="nonzero"/><path fill="#4ac3d6" d="M 24.808594 66.285156 C 25.496094 64.796875 24.851562 63.027344 23.363281 62.335938 C 21.878906 61.644531 20.117188 62.292969 19.429688 63.785156 C 18.738281 65.273438 19.386719 67.042969 20.871094 67.734375 C 22.355469 68.425781 24.117188 67.777344 24.808594 66.285156 " fill-opacity="1" fill-rule="nonzero"/><path fill="#4b1615" d="M 24.808594 66.285156 L 25.339844 66.535156 C 25.5625 66.050781 25.667969 65.539062 25.667969 65.035156 C 25.667969 64.363281 25.476562 63.707031 25.125 63.140625 C 24.773438 62.574219 24.257812 62.101562 23.609375 61.800781 C 23.128906 61.578125 22.621094 61.46875 22.121094 61.46875 C 21.449219 61.46875 20.792969 61.660156 20.230469 62.015625 C 19.667969 62.367188 19.195312 62.886719 18.894531 63.535156 C 18.671875 64.019531 18.566406 64.53125 18.566406 65.035156 C 18.566406 65.707031 18.753906 66.363281 19.105469 66.929688 C 19.460938 67.496094 19.976562 67.96875 20.625 68.269531 C 21.105469 68.492188 21.613281 68.601562 22.113281 68.601562 C 22.785156 68.601562 23.441406 68.410156 24.003906 68.054688 C 24.566406 67.703125 25.039062 67.183594 25.339844 66.535156 L 24.808594 66.285156 L 24.273438 66.039062 C 24.070312 66.476562 23.757812 66.820312 23.378906 67.054688 C 23.003906 67.292969 22.5625 67.421875 22.113281 67.421875 C 21.78125 67.421875 21.441406 67.351562 21.117188 67.199219 C 20.683594 66.996094 20.339844 66.683594 20.101562 66.304688 C 19.867188 65.925781 19.738281 65.484375 19.738281 65.035156 C 19.738281 64.699219 19.808594 64.359375 19.960938 64.03125 C 20.164062 63.59375 20.476562 63.25 20.855469 63.011719 C 21.230469 62.777344 21.671875 62.648438 22.121094 62.648438 C 22.453125 62.648438 22.792969 62.71875 23.117188 62.871094 C 23.550781 63.074219 23.894531 63.386719 24.132812 63.765625 C 24.367188 64.144531 24.496094 64.585938 24.496094 65.035156 C 24.496094 65.375 24.425781 65.710938 24.273438 66.039062 L 24.808594 66.285156 " fill-opacity="1" fill-rule="nonzero"/><path fill="#fddd47" d="M 21.027344 56.671875 C 21.71875 55.179688 21.070312 53.410156 19.585938 52.722656 C 18.101562 52.027344 16.339844 52.679688 15.648438 54.167969 C 14.960938 55.660156 15.609375 57.429688 17.09375 58.121094 C 18.578125 58.8125 20.339844 58.164062 21.027344 56.671875 " fill-opacity="1" fill-rule="nonzero"/><path fill="#4b1615" d="M 21.027344 56.671875 L 21.5625 56.917969 C 21.785156 56.4375 21.890625 55.925781 21.890625 55.421875 C 21.890625 54.75 21.699219 54.09375 21.347656 53.527344 C 20.996094 52.960938 20.480469 52.488281 19.832031 52.1875 C 19.351562 51.960938 18.839844 51.855469 18.339844 51.855469 C 17.671875 51.855469 17.015625 52.046875 16.453125 52.398438 C 15.890625 52.753906 15.417969 53.273438 15.117188 53.921875 C 14.894531 54.40625 14.789062 54.917969 14.789062 55.417969 C 14.789062 56.09375 14.976562 56.75 15.332031 57.316406 C 15.683594 57.878906 16.199219 58.355469 16.847656 58.65625 C 17.328125 58.878906 17.835938 58.988281 18.339844 58.988281 C 19.007812 58.988281 19.664062 58.796875 20.226562 58.441406 C 20.789062 58.089844 21.261719 57.570312 21.5625 56.917969 L 20.496094 56.425781 C 20.292969 56.863281 19.980469 57.203125 19.601562 57.441406 C 19.226562 57.679688 18.785156 57.808594 18.339844 57.808594 C 18.003906 57.808594 17.664062 57.738281 17.339844 57.585938 C 16.902344 57.382812 16.5625 57.066406 16.324219 56.691406 C 16.089844 56.3125 15.960938 55.867188 15.960938 55.417969 C 15.960938 55.082031 16.03125 54.746094 16.183594 54.417969 C 16.386719 53.980469 16.699219 53.636719 17.074219 53.398438 C 17.453125 53.160156 17.894531 53.035156 18.339844 53.035156 C 18.675781 53.035156 19.015625 53.105469 19.339844 53.253906 C 19.773438 53.457031 20.117188 53.773438 20.351562 54.152344 C 20.589844 54.53125 20.71875 54.972656 20.71875 55.421875 C 20.71875 55.757812 20.648438 56.097656 20.496094 56.425781 L 21.027344 56.671875 " fill-opacity="1" fill-rule="nonzero"/><path fill="#ef2ea1" d="M 28.320312 49.9375 C 29.007812 48.445312 28.359375 46.675781 26.875 45.984375 C 25.390625 45.292969 23.628906 45.941406 22.9375 47.433594 C 22.25 48.925781 22.898438 50.691406 24.382812 51.382812 C 25.867188 52.074219 27.628906 51.425781 28.320312 49.9375 " fill-opacity="1" fill-rule="nonzero"/><path fill="#4b1615" d="M 28.320312 49.9375 L 28.851562 50.183594 C 29.074219 49.699219 29.179688 49.1875 29.179688 48.6875 C 29.179688 48.011719 28.992188 47.355469 28.636719 46.789062 C 28.285156 46.222656 27.769531 45.75 27.125 45.449219 C 26.640625 45.226562 26.132812 45.117188 25.628906 45.117188 C 24.960938 45.117188 24.304688 45.308594 23.742188 45.664062 C 23.179688 46.015625 22.707031 46.535156 22.40625 47.183594 C 22.183594 47.667969 22.078125 48.179688 22.078125 48.683594 C 22.078125 49.355469 22.265625 50.011719 22.621094 50.578125 C 22.972656 51.144531 23.488281 51.617188 24.136719 51.917969 C 24.617188 52.140625 25.128906 52.25 25.628906 52.25 C 26.296875 52.25 26.953125 52.058594 27.515625 51.703125 C 28.078125 51.351562 28.550781 50.832031 28.851562 50.183594 L 27.785156 49.6875 C 27.585938 50.125 27.269531 50.46875 26.894531 50.707031 C 26.515625 50.941406 26.074219 51.070312 25.628906 51.070312 C 25.292969 51.070312 24.957031 51 24.628906 50.847656 C 24.191406 50.644531 23.851562 50.332031 23.617188 49.953125 C 23.378906 49.574219 23.25 49.132812 23.25 48.683594 C 23.25 48.347656 23.320312 48.007812 23.472656 47.679688 C 23.675781 47.242188 23.988281 46.898438 24.363281 46.664062 C 24.742188 46.425781 25.183594 46.296875 25.628906 46.296875 C 25.964844 46.296875 26.304688 46.367188 26.628906 46.519531 C 27.0625 46.722656 27.40625 47.039062 27.644531 47.414062 C 27.878906 47.792969 28.007812 48.238281 28.007812 48.6875 C 28.007812 49.023438 27.9375 49.363281 27.785156 49.6875 L 28.320312 49.9375 " fill-opacity="1" fill-rule="nonzero"/><path fill="#fddd47" d="M 51.6875 64.9375 L 44.898438 38.433594 C 44.597656 37.351562 43.480469 36.722656 42.40625 37.023438 C 41.328125 37.328125 40.703125 38.449219 41.003906 39.53125 L 48.917969 65.714844 L 51.6875 64.9375 " fill-opacity="1" fill-rule="nonzero"/><path fill="#4b1615" d="M 51.6875 64.9375 L 52.253906 64.789062 L 45.464844 38.285156 L 45.464844 38.273438 C 45.304688 37.699219 44.960938 37.214844 44.515625 36.882812 C 44.070312 36.550781 43.523438 36.359375 42.949219 36.359375 C 42.71875 36.359375 42.480469 36.390625 42.246094 36.457031 C 41.671875 36.621094 41.191406 36.964844 40.859375 37.410156 C 40.527344 37.859375 40.339844 38.40625 40.339844 38.980469 C 40.339844 39.214844 40.371094 39.453125 40.4375 39.6875 L 40.441406 39.699219 L 48.355469 65.886719 C 48.449219 66.191406 48.765625 66.367188 49.074219 66.28125 L 51.84375 65.503906 C 52.152344 65.417969 52.335938 65.097656 52.253906 64.789062 L 51.6875 64.9375 L 51.527344 64.367188 L 49.3125 64.992188 L 41.5625 39.359375 L 41.003906 39.53125 L 41.566406 39.371094 C 41.53125 39.238281 41.511719 39.109375 41.511719 38.980469 C 41.511719 38.667969 41.617188 38.363281 41.800781 38.117188 C 41.984375 37.871094 42.246094 37.683594 42.566406 37.59375 C 42.695312 37.554688 42.824219 37.539062 42.949219 37.539062 C 43.261719 37.539062 43.566406 37.644531 43.8125 37.828125 C 44.058594 38.011719 44.242188 38.273438 44.332031 38.59375 L 44.898438 38.433594 L 44.332031 38.582031 L 51.117188 65.082031 L 51.6875 64.9375 L 51.527344 64.367188 L 51.6875 64.9375 " fill-opacity="1" fill-rule="nonzero"/><path fill="#64c9a7" d="M 46.242188 56.863281 L 48.917969 65.714844 L 51.6875 64.9375 L 49.390625 55.972656 L 46.242188 56.863281 " fill-opacity="1" fill-rule="nonzero"/><path fill="#4b1615" d="M 46.242188 56.863281 L 45.679688 57.03125 L 48.355469 65.886719 C 48.449219 66.191406 48.765625 66.367188 49.074219 66.28125 L 51.84375 65.503906 C 52.152344 65.417969 52.335938 65.097656 52.253906 64.789062 L 49.960938 55.828125 C 49.921875 55.675781 49.820312 55.542969 49.683594 55.464844 C 49.550781 55.386719 49.382812 55.363281 49.234375 55.40625 L 46.082031 56.292969 C 45.929688 56.335938 45.800781 56.4375 45.726562 56.578125 C 45.648438 56.714844 45.632812 56.882812 45.679688 57.03125 L 46.242188 56.863281 L 46.398438 57.429688 L 48.972656 56.703125 L 50.976562 64.523438 L 49.3125 64.992188 L 46.800781 56.691406 L 46.242188 56.863281 L 46.398438 57.429688 L 46.242188 56.863281 " fill-opacity="1" fill-rule="nonzero"/><path fill="#f8a22d" d="M 54 67.347656 C 54.613281 69.539062 51.832031 70.8125 52.6875 73.875 C 52.6875 73.875 48.800781 71.175781 48.1875 68.980469 C 47.574219 66.785156 48.589844 65.398438 50.195312 64.949219 C 51.800781 64.496094 53.386719 65.152344 54 67.347656 " fill-opacity="1" fill-rule="nonzero"/><path fill="#4b1615" d="M 54 67.347656 L 53.433594 67.503906 C 53.480469 67.675781 53.5 67.832031 53.5 67.984375 C 53.5 68.273438 53.429688 68.558594 53.300781 68.875 C 53.109375 69.351562 52.78125 69.878906 52.488281 70.5 C 52.195312 71.121094 51.933594 71.855469 51.9375 72.726562 C 51.933594 73.136719 51.992188 73.574219 52.121094 74.035156 L 52.6875 73.875 L 53.019531 73.394531 L 53.011719 73.386719 C 52.910156 73.316406 51.953125 72.636719 50.964844 71.726562 C 50.472656 71.273438 49.96875 70.761719 49.566406 70.253906 C 49.164062 69.746094 48.863281 69.234375 48.753906 68.820312 C 48.640625 68.425781 48.59375 68.070312 48.59375 67.757812 C 48.597656 67.132812 48.777344 66.667969 49.074219 66.304688 C 49.371094 65.941406 49.808594 65.667969 50.355469 65.515625 C 50.621094 65.4375 50.882812 65.402344 51.132812 65.402344 C 51.640625 65.40625 52.085938 65.550781 52.476562 65.871094 C 52.867188 66.195312 53.210938 66.710938 53.433594 67.503906 L 54 67.347656 L 54.566406 67.1875 C 54.292969 66.21875 53.832031 65.46875 53.222656 64.964844 C 52.617188 64.460938 51.875 64.222656 51.132812 64.222656 C 50.765625 64.222656 50.398438 64.277344 50.039062 64.378906 C 49.300781 64.585938 48.644531 64.976562 48.167969 65.554688 C 47.691406 66.132812 47.417969 66.894531 47.421875 67.757812 C 47.421875 68.191406 47.488281 68.65625 47.621094 69.140625 C 47.8125 69.8125 48.214844 70.441406 48.691406 71.042969 C 49.410156 71.9375 50.320312 72.753906 51.050781 73.363281 C 51.785156 73.96875 52.34375 74.355469 52.351562 74.363281 C 52.558594 74.503906 52.828125 74.5 53.027344 74.355469 C 53.230469 74.210938 53.320312 73.957031 53.25 73.71875 C 53.152344 73.351562 53.109375 73.027344 53.109375 72.726562 C 53.109375 72.300781 53.191406 71.921875 53.320312 71.550781 C 53.515625 71 53.824219 70.472656 54.113281 69.90625 C 54.257812 69.625 54.398438 69.328125 54.5 69.011719 C 54.605469 68.695312 54.675781 68.351562 54.675781 67.984375 C 54.675781 67.726562 54.640625 67.460938 54.566406 67.1875 L 54 67.347656 " fill-opacity="1" fill-rule="nonzero"/></svg>