<svg xmlns="http://www.w3.org/2000/svg" xmlns:xlink="http://www.w3.org/1999/xlink" width="132" zoomAndPan="magnify" viewBox="0 0 98.88 98.999996" height="132" preserveAspectRatio="xMidYMid meet" version="1.0"><defs><clipPath id="ac4832cc90"><path d="M 0 0.0585938 L 98.761719 0.0585938 L 98.761719 98.9375 L 0 98.9375 Z M 0 0.0585938 " clip-rule="nonzero"/></clipPath><clipPath id="395a7a669d"><path d="M 10 12.105469 L 89.292969 12.105469 L 89.292969 89.261719 L 10 89.261719 Z M 10 12.105469 " clip-rule="nonzero"/></clipPath><clipPath id="6f69743dca"><path d="M 9.886719 12.105469 L 89.292969 12.105469 L 89.292969 89.261719 L 9.886719 89.261719 Z M 9.886719 12.105469 " clip-rule="nonzero"/></clipPath></defs><g clip-path="url(#ac4832cc90)"><path fill="#ffffff" d="M 0 0.0585938 L 98.878906 0.0585938 L 98.878906 98.941406 L 0 98.941406 Z M 0 0.0585938 " fill-opacity="1" fill-rule="nonzero"/><path fill="#ffffff" d="M 0 0.0585938 L 98.878906 0.0585938 L 98.878906 98.941406 L 0 98.941406 Z M 0 0.0585938 " fill-opacity="1" fill-rule="nonzero"/></g><g clip-path="url(#395a7a669d)"><path fill="#f5f6f7" d="M 88.164062 32.46875 L 88.226562 28.539062 C 88.226562 28.539062 88.21875 28.296875 87.738281 28.527344 C 87.257812 28.753906 84.464844 30.179688 84.464844 30.179688 L 78.980469 31.011719 L 79.898438 29.554688 L 81.476562 26.929688 C 81.476562 26.929688 83.304688 23.839844 84.007812 22.414062 C 84.707031 20.984375 85.375 20.074219 85.710938 18.597656 C 86.003906 17.386719 85.773438 16.761719 85.054688 16.953125 C 85.175781 16.632812 85.511719 15.816406 84.570312 15.820312 C 84.761719 15.523438 84.667969 14.871094 83.925781 15.121094 C 83.976562 14.957031 84.046875 14.878906 84.046875 14.878906 C 84.046875 14.878906 84.828125 13.925781 85.160156 13.242188 C 85.492188 12.558594 85.136719 12.324219 84.832031 12.355469 C 84.53125 12.390625 83.902344 12.867188 82.972656 14.085938 C 82.039062 15.308594 80.59375 17.152344 80.59375 17.152344 L 80.414062 15.703125 C 80.414062 15.703125 80.414062 14.894531 80.140625 14.460938 C 79.867188 14.03125 79.628906 13.476562 78.980469 13.625 C 78.554688 13.722656 78.804688 14.457031 78.75 15.589844 C 78.722656 16.140625 78.542969 18.289062 78.386719 19.613281 C 78.226562 20.9375 78.0625 21.84375 78.0625 21.84375 C 78.0625 21.84375 77.746094 22.484375 77.171875 23.273438 C 76.597656 24.0625 74.179688 27.332031 71.5 30.496094 C 68.820312 33.660156 67.507812 34.671875 63.546875 37.949219 C 63.605469 37.628906 63.632812 37.394531 63.632812 37.394531 C 63.632812 37.394531 64.449219 37.058594 64.511719 36.578125 C 64.578125 36.097656 63.621094 35.207031 63.621094 35.207031 C 63.621094 35.207031 63.535156 32.925781 63.136719 31.402344 C 57.757812 31.664062 57.644531 31.671875 57.644531 31.671875 L 57.535156 34.59375 C 57.535156 34.59375 56.824219 33.953125 55.71875 34.554688 C 54.609375 35.152344 54.910156 36.480469 55.429688 36.988281 C 55.945312 37.496094 56.835938 37.609375 57.519531 37.421875 C 57.132812 38.46875 56.625 39.382812 54.890625 39.832031 C 54.886719 40.667969 54.878906 41.148438 54.878906 41.367188 L 44.371094 41.367188 L 44.371094 23.136719 C 44.371094 22.480469 43.835938 21.949219 43.183594 21.949219 L 17.660156 21.949219 C 17.003906 21.949219 16.472656 22.480469 16.472656 23.136719 L 16.472656 35.214844 L 10.367188 35.214844 C 10.171875 35.214844 10.011719 35.375 10.011719 35.570312 L 10.011719 42.710938 C 10.011719 42.90625 10.171875 43.066406 10.367188 43.066406 L 16.472656 43.066406 L 16.472656 56.5625 C 16.472656 57.21875 17.003906 57.75 17.660156 57.75 L 22.871094 57.75 L 22.871094 71.691406 C 20.628906 71.410156 17.835938 72.652344 17.726562 76.066406 C 17.652344 78.425781 20.21875 80.933594 22.871094 80.164062 L 22.871094 83.980469 C 22.871094 84.238281 23.082031 84.449219 23.34375 84.449219 L 25.710938 84.449219 L 25.710938 86.230469 L 20.878906 86.230469 C 20.621094 86.230469 20.410156 86.441406 20.410156 86.703125 L 20.410156 88.710938 C 20.410156 88.972656 20.621094 89.179688 20.878906 89.179688 L 79.183594 89.179688 C 79.445312 89.179688 79.65625 88.972656 79.65625 88.710938 L 79.65625 86.703125 C 79.65625 86.441406 79.445312 86.230469 79.183594 86.230469 L 74.355469 86.230469 L 74.355469 84.449219 L 76.722656 84.449219 C 76.980469 84.449219 77.191406 84.238281 77.191406 83.980469 L 77.191406 77.425781 L 79.535156 77.425781 L 79.535156 69.175781 L 77.191406 69.175781 L 77.191406 48.425781 C 77.390625 47.9375 77.679688 47.191406 77.828125 46.636719 C 79.003906 46.171875 80.726562 45.660156 81.203125 44.871094 C 81.679688 44.082031 81.238281 43.722656 81.238281 43.722656 C 81.238281 43.722656 81.929688 43.191406 81.238281 42.347656 C 81.613281 41.949219 81.519531 41.316406 81.078125 41.085938 C 81.132812 40.855469 81.222656 40.078125 80.085938 39.988281 C 80.074219 39.257812 80.074219 37.84375 80.074219 37.84375 L 84.589844 38.105469 L 87.300781 39.363281 L 88.09375 39.695312 C 88.09375 39.695312 88.226562 39.777344 88.226562 39.296875 C 88.226562 38.816406 88.277344 35.398438 88.277344 35.398438 C 88.277344 35.398438 89.164062 35.125 89.164062 33.859375 C 89.164062 32.59375 88.164062 32.46875 88.164062 32.46875 Z M 74.308594 37.445312 C 74.988281 37.515625 76.980469 37.621094 76.980469 37.621094 L 76.980469 39.21875 C 76.980469 39.21875 75.433594 39.59375 74.746094 40.363281 C 74.496094 40.644531 74.402344 41.011719 74.382812 41.367188 L 70.710938 41.367188 C 71.339844 40.71875 73.972656 38 74.308594 37.445312 Z M 59.351562 41.226562 L 59.527344 40.230469 L 60.605469 40.355469 L 59.472656 41.316406 L 59.5 41.367188 L 59.378906 41.367188 Z M 67.257812 85.359375 L 32.804688 85.359375 L 32.804688 84.449219 L 67.257812 84.449219 Z M 38.972656 46.203125 L 38.523438 46.199219 L 38.621094 45.761719 C 38.683594 45.484375 38.507812 45.210938 38.230469 45.148438 C 37.953125 45.085938 37.679688 45.261719 37.617188 45.539062 L 37.46875 46.195312 L 36.011719 46.191406 L 36.105469 45.761719 C 36.167969 45.484375 35.992188 45.210938 35.714844 45.148438 C 35.4375 45.085938 35.164062 45.261719 35.101562 45.539062 L 34.957031 46.1875 L 34.289062 46.1875 C 34.003906 46.1875 33.773438 46.417969 33.773438 46.699219 C 33.769531 46.984375 34 47.214844 34.285156 47.214844 L 34.726562 47.21875 L 34.410156 48.640625 L 33.734375 48.640625 C 33.449219 48.640625 33.21875 48.867188 33.21875 49.152344 C 33.21875 49.4375 33.445312 49.667969 33.730469 49.667969 L 34.179688 49.667969 L 34.082031 50.105469 C 34.023438 50.386719 34.195312 50.660156 34.472656 50.722656 C 34.511719 50.730469 34.550781 50.734375 34.585938 50.734375 C 34.824219 50.734375 35.035156 50.570312 35.089844 50.332031 L 35.234375 49.671875 L 36.695312 49.675781 L 36.597656 50.105469 C 36.539062 50.386719 36.710938 50.660156 36.992188 50.722656 C 37.027344 50.730469 37.066406 50.734375 37.101562 50.734375 C 37.339844 50.734375 37.550781 50.570312 37.605469 50.332031 L 37.75 49.679688 L 38.417969 49.683594 C 38.703125 49.683594 38.933594 49.453125 38.933594 49.167969 C 38.933594 48.886719 38.703125 48.65625 38.421875 48.652344 L 37.980469 48.652344 L 38.296875 47.230469 L 38.972656 47.230469 C 39.257812 47.230469 39.488281 47 39.488281 46.71875 C 39.488281 46.433594 39.257812 46.203125 38.972656 46.203125 Z M 36.925781 48.648438 L 35.464844 48.644531 L 35.78125 47.222656 L 37.242188 47.226562 Z M 50.808594 20.191406 L 58.5625 20.191406 L 59.894531 22.097656 L 61.226562 20.191406 L 68.503906 20.191406 C 69.925781 20.191406 71.074219 19.042969 71.074219 17.625 C 71.074219 16.207031 69.925781 15.058594 68.503906 15.058594 L 50.808594 15.058594 C 49.390625 15.058594 48.242188 16.207031 48.242188 17.625 C 48.242188 19.042969 49.390625 20.191406 50.808594 20.191406 Z M 82.636719 64.933594 C 84 64.933594 85.101562 63.832031 85.101562 62.472656 C 85.101562 61.113281 84 60.011719 82.636719 60.011719 C 81.277344 60.011719 80.175781 61.113281 80.175781 62.472656 C 80.175781 63.832031 81.277344 64.933594 82.636719 64.933594 Z M 82.636719 64.933594 " fill-opacity="1" fill-rule="nonzero"/></g><path fill="#fe696e" d="M 82.742188 59.132812 C 80.992188 59.132812 79.574219 60.546875 79.574219 62.296875 C 79.574219 64.042969 80.992188 65.457031 82.742188 65.457031 C 84.492188 65.457031 85.910156 64.042969 85.910156 62.296875 C 85.910156 60.546875 84.492188 59.132812 82.742188 59.132812 Z M 84.585938 63.332031 C 84.585938 63.5625 84.402344 63.746094 84.171875 63.746094 L 80.898438 63.746094 L 80.898438 61.898438 L 81.726562 61.898438 C 81.726562 61.898438 82.558594 61.644531 82.773438 61.289062 C 82.988281 60.9375 83.023438 60.503906 83.21875 60.277344 C 83.449219 60.007812 83.789062 60.261719 83.601562 61.734375 L 84.171875 61.734375 C 84.402344 61.734375 84.585938 61.921875 84.585938 62.148438 Z M 33.476562 62.097656 C 32.773438 62.097656 32.203125 62.667969 32.203125 63.371094 C 32.203125 64.070312 32.773438 64.640625 33.476562 64.640625 C 34.179688 64.640625 34.746094 64.070312 34.746094 63.371094 C 34.746094 62.667969 34.179688 62.097656 33.476562 62.097656 Z M 69.441406 66.40625 C 69.179688 66.40625 68.96875 66.621094 68.96875 66.882812 C 68.96875 67.144531 69.179688 67.355469 69.441406 67.355469 C 69.703125 67.355469 69.917969 67.144531 69.917969 66.882812 C 69.917969 66.621094 69.703125 66.40625 69.441406 66.40625 Z M 22.84375 75.148438 L 22.074219 73.589844 L 21.304688 75.148438 L 19.585938 75.398438 L 20.828125 76.609375 L 20.535156 78.324219 L 22.074219 77.515625 L 23.617188 78.324219 L 23.320312 76.609375 L 24.566406 75.398438 Z M 74.058594 31.945312 C 74.058594 31.945312 74.277344 37.015625 74.289062 37.328125 C 74.304688 37.640625 74.445312 37.484375 74.445312 37.484375 L 79.101562 37.792969 L 79.109375 31.070312 L 74.199219 31.773438 Z M 74.667969 73.125 L 72.5625 71.972656 C 72.429688 71.898438 72.261719 71.996094 72.261719 72.148438 L 72.261719 74.453125 C 72.261719 74.605469 72.429688 74.707031 72.5625 74.632812 L 73.492188 74.125 L 74.667969 73.480469 C 74.808594 73.402344 74.808594 73.199219 74.667969 73.125 Z M 64.515625 50.480469 C 64.515625 50.480469 62.605469 48.179688 61.082031 46.738281 C 59.554688 45.292969 59.183594 45.3125 58.285156 45.390625 C 57.386719 45.46875 55.75 45.929688 55.117188 49.972656 C 54.484375 54.015625 55.207031 56.640625 55.636719 57.957031 C 56.054688 59.246094 58.914062 61.714844 60.820312 58.363281 C 60.152344 57.527344 59.074219 56.085938 59.074219 56.085938 Z M 61.175781 40.433594 L 60.703125 40.363281 L 59.40625 41.367188 L 59.398438 42.621094 L 60.273438 42.621094 L 60.273438 46.019531 L 63.03125 48.804688 L 66.0625 45.992188 Z M 52.953125 42.621094 L 52.664062 44.84375 C 52.664062 44.84375 53.464844 44.121094 55.488281 44.21875 C 57.511719 44.316406 59.394531 45.289062 60.273438 46.019531 C 60.273438 45.097656 60.273438 42.621094 60.273438 42.621094 Z M 21.328125 53.671875 C 20.777344 53.261719 20.339844 54.039062 20.339844 54.039062 C 20.339844 54.039062 19.90625 53.261719 19.355469 53.671875 C 18.730469 54.140625 19.859375 55.527344 20.339844 55.527344 C 20.824219 55.527344 21.953125 54.140625 21.328125 53.671875 Z M 62.867188 16.683594 C 62.238281 16.214844 61.742188 17.101562 61.742188 17.101562 C 61.742188 17.101562 61.246094 16.214844 60.621094 16.683594 C 59.910156 17.21875 61.195312 18.792969 61.742188 18.792969 C 62.292969 18.792969 63.578125 17.21875 62.867188 16.683594 Z M 62.867188 16.683594 " fill-opacity="1" fill-rule="nonzero"/><g clip-path="url(#6f69743dca)"><path fill="#0a0147" d="M 89.261719 33.945312 C 89.261719 33.253906 88.886719 32.648438 88.324219 32.410156 L 88.324219 28.539062 C 88.324219 28.449219 88.277344 28.363281 88.199219 28.316406 C 88.121094 28.269531 88.027344 28.265625 87.945312 28.304688 C 86.789062 28.878906 84.609375 29.960938 84.4375 30.039062 L 79.179688 30.878906 C 82.398438 25.820312 85.074219 20.667969 85.101562 20.613281 C 85.875 19.003906 86.097656 17.609375 85.671875 17.066406 C 85.550781 16.914062 85.382812 16.835938 85.179688 16.84375 C 85.433594 16.398438 85.347656 16.125 85.214844 15.972656 C 85.085938 15.816406 84.878906 15.746094 84.691406 15.730469 C 84.796875 15.28125 84.621094 15.082031 84.496094 15.003906 C 84.394531 14.941406 84.269531 14.914062 84.132812 14.921875 C 85.042969 13.878906 85.476562 13.054688 85.347656 12.59375 C 85.304688 12.4375 85.199219 12.332031 85.042969 12.28125 C 84.5 12.113281 83.765625 12.894531 82.757812 14.207031 C 82.246094 14.875 81.082031 16.414062 80.671875 16.960938 C 80.632812 16.609375 80.550781 15.910156 80.40625 15.003906 C 80.261719 14.097656 79.550781 13.429688 79.054688 13.476562 C 78.789062 13.5 78.636719 13.730469 78.648438 14.089844 C 78.691406 15.128906 78.636719 17.378906 78.386719 18.898438 C 78.308594 19.363281 78.257812 19.839844 78.203125 20.300781 C 78.121094 21.03125 78.046875 21.726562 77.890625 22.011719 C 77.6875 22.640625 70.859375 31.683594 67.679688 34.394531 C 66.871094 35.082031 66.144531 35.707031 65.476562 36.277344 C 64.820312 36.839844 64.226562 37.351562 63.667969 37.828125 C 63.691406 37.703125 63.710938 37.582031 63.722656 37.460938 C 63.9375 37.351562 64.671875 36.945312 64.605469 36.503906 C 64.542969 36.089844 63.875 35.339844 63.71875 35.167969 C 63.710938 34.847656 63.652344 32.683594 63.234375 31.394531 C 63.117188 30.167969 62.644531 29.230469 61.832031 28.605469 C 60.65625 27.699219 58.789062 27.449219 56.277344 27.859375 C 51.726562 28.601562 51.484375 32.261719 51.742188 34.378906 C 51.949219 36.054688 52.527344 36.945312 53.457031 38.210938 C 54.136719 39.136719 54.5625 39.664062 54.792969 39.875 L 54.785156 41.269531 L 44.464844 41.269531 L 44.464844 23.136719 C 44.464844 22.429688 43.890625 21.855469 43.183594 21.855469 L 17.660156 21.855469 C 16.953125 21.855469 16.378906 22.429688 16.378906 23.136719 L 16.378906 35.121094 L 10.371094 35.121094 C 10.121094 35.121094 9.917969 35.324219 9.917969 35.574219 L 9.917969 42.707031 C 9.917969 42.957031 10.121094 43.160156 10.371094 43.160156 L 16.378906 43.160156 L 16.378906 56.5625 C 16.378906 57.304688 16.859375 57.847656 17.527344 57.847656 L 22.773438 57.847656 L 22.773438 71.617188 C 22.539062 71.578125 22.292969 71.554688 22.046875 71.554688 C 19.617188 71.554688 17.640625 73.527344 17.640625 75.957031 C 17.640625 78.382812 19.617188 80.355469 22.046875 80.355469 C 22.292969 80.355469 22.539062 80.335938 22.773438 80.292969 L 22.773438 83.980469 C 22.773438 84.292969 23.03125 84.546875 23.34375 84.546875 L 25.613281 84.546875 L 25.613281 86.132812 L 20.773438 86.132812 C 20.519531 86.132812 20.3125 86.339844 20.3125 86.59375 L 20.3125 88.820312 C 20.3125 89.074219 20.519531 89.277344 20.773438 89.277344 L 79.292969 89.277344 C 79.546875 89.277344 79.75 89.074219 79.75 88.820312 L 79.75 86.59375 C 79.75 86.339844 79.546875 86.132812 79.292969 86.132812 L 74.449219 86.132812 L 74.449219 84.546875 L 76.722656 84.546875 C 77.035156 84.546875 77.289062 84.292969 77.289062 83.980469 L 77.289062 77.523438 L 79.535156 77.523438 C 79.589844 77.523438 79.632812 77.480469 79.632812 77.425781 L 79.632812 69.175781 C 79.632812 69.121094 79.589844 69.078125 79.535156 69.078125 L 77.289062 69.078125 L 77.289062 48.65625 C 77.625 47.636719 77.839844 46.921875 77.90625 46.707031 C 78.226562 46.585938 80.066406 45.882812 80.640625 45.515625 C 81.207031 45.160156 81.59375 44.59375 81.582031 44.140625 C 81.574219 43.957031 81.507812 43.808594 81.378906 43.703125 C 81.558594 43.453125 81.648438 43.089844 81.605469 42.789062 C 81.578125 42.59375 81.496094 42.4375 81.375 42.332031 C 81.566406 42.058594 81.625 41.726562 81.53125 41.445312 C 81.460938 41.242188 81.3125 41.089844 81.117188 41.019531 C 81.195312 40.691406 81.160156 40.425781 81.003906 40.230469 C 80.773438 39.941406 80.363281 39.894531 80.171875 39.890625 L 80.171875 37.894531 L 84.523438 38.1875 C 84.53125 38.1875 84.539062 38.1875 84.546875 38.191406 L 87.953125 39.773438 C 88.03125 39.808594 88.125 39.804688 88.203125 39.753906 C 88.277344 39.707031 88.324219 39.625 88.324219 39.535156 L 88.324219 35.480469 C 88.886719 35.242188 89.261719 34.636719 89.261719 33.945312 Z M 79.976562 39.910156 L 77.078125 40.542969 L 77.078125 37.722656 L 79.976562 37.882812 Z M 58.941406 56.175781 C 59.015625 56.277344 59.683594 57.1875 60.707031 58.3125 C 60.597656 58.605469 60.035156 59.949219 58.726562 59.949219 C 57.792969 59.988281 57.019531 59.664062 56.414062 58.992188 C 55.03125 57.453125 54.597656 54.125 55.230469 49.855469 C 55.539062 47.785156 56.234375 46.425781 57.296875 45.8125 C 58.421875 45.171875 59.574219 45.621094 59.585938 45.625 C 59.589844 45.628906 59.589844 45.625 59.59375 45.628906 C 60.703125 46.398438 61.753906 47.488281 62.957031 48.867188 C 62.957031 48.867188 62.960938 48.867188 62.960938 48.867188 C 63.359375 49.324219 63.777344 49.808594 64.21875 50.328125 C 64.265625 50.382812 64.316406 50.441406 64.363281 50.496094 L 58.953125 56.050781 C 58.917969 56.085938 58.914062 56.136719 58.941406 56.175781 Z M 68.917969 69.078125 C 68.867188 69.078125 68.824219 69.121094 68.824219 69.175781 L 68.824219 77.425781 C 68.824219 77.480469 68.867188 77.523438 68.917969 77.523438 L 75.960938 77.523438 L 75.960938 82.503906 C 75.960938 82.710938 75.792969 82.878906 75.585938 82.878906 L 62.042969 82.878906 L 62.171875 71.253906 L 62.675781 71.253906 C 62.726562 71.253906 62.769531 71.214844 62.769531 71.164062 L 63.328125 60.824219 C 64.890625 62.089844 66.683594 63.117188 68.402344 63.117188 C 68.484375 63.117188 68.566406 63.113281 68.648438 63.109375 C 71.371094 62.953125 74.160156 57.070312 75.960938 52.382812 L 75.960938 69.078125 Z M 23.984375 79.90625 C 25.445312 79.1875 26.453125 77.6875 26.453125 75.957031 C 26.453125 74.222656 25.445312 72.722656 23.984375 72.003906 L 23.984375 57.847656 L 43.34375 57.847656 C 44.066406 57.847656 44.464844 57.390625 44.464844 56.5625 L 44.464844 43.789062 L 52.722656 43.789062 L 52.574219 44.78125 C 52.160156 44.996094 51.777344 45.261719 51.417969 45.582031 C 49.746094 47.074219 48.734375 49.734375 48.640625 52.875 C 48.511719 57.066406 49.332031 71.023438 49.339844 71.164062 C 49.34375 71.214844 49.386719 71.253906 49.4375 71.253906 L 49.804688 71.253906 C 49.753906 72.023438 49.480469 77.066406 50.484375 82.878906 L 24.359375 82.878906 C 24.152344 82.878906 23.984375 82.710938 23.984375 82.503906 Z M 54.875 42.71875 L 60.175781 42.71875 L 60.175781 45.828125 C 60.015625 45.703125 59.855469 45.585938 59.695312 45.472656 C 59.683594 45.464844 59.671875 45.453125 59.65625 45.445312 C 59.65625 45.445312 59.652344 45.445312 59.652344 45.445312 C 58.578125 44.710938 57.4375 44.257812 56.0625 44.148438 C 54.839844 44.050781 53.742188 44.230469 52.785156 44.675781 L 53.078125 42.71875 Z M 59.503906 41.414062 C 59.785156 41.207031 60.089844 40.964844 60.386719 40.734375 C 60.507812 40.640625 60.621094 40.550781 60.730469 40.464844 C 60.847656 40.472656 60.96875 40.476562 61.085938 40.480469 L 65.929688 45.984375 C 64.425781 47.414062 63.320312 48.414062 63.039062 48.664062 C 62.105469 47.605469 61.246094 46.699219 60.367188 45.984375 L 60.367188 42.621094 C 60.367188 42.570312 60.324219 42.527344 60.273438 42.527344 L 59.496094 42.527344 Z M 59.503906 41.171875 L 59.507812 40.328125 C 59.691406 40.355469 60.042969 40.40625 60.445312 40.441406 C 60.386719 40.488281 60.328125 40.535156 60.269531 40.582031 C 60.011719 40.78125 59.75 40.988281 59.503906 41.171875 Z M 62.582031 71.0625 L 49.527344 71.0625 C 49.457031 69.84375 48.710938 56.882812 48.832031 52.882812 C 48.925781 49.792969 49.914062 47.183594 51.546875 45.726562 C 52.734375 44.664062 54.25 44.195312 56.046875 44.339844 C 57.203125 44.433594 58.179688 44.761719 59.097656 45.308594 C 58.625 45.238281 57.917969 45.238281 57.203125 45.644531 C 56.085938 46.285156 55.355469 47.691406 55.039062 49.828125 C 54.398438 54.152344 54.847656 57.539062 56.269531 59.121094 C 56.882812 59.800781 57.660156 60.144531 58.578125 60.144531 C 58.628906 60.144531 58.679688 60.144531 58.730469 60.144531 C 60.042969 60.144531 60.667969 58.917969 60.851562 58.472656 C 61.5 59.179688 62.285156 59.957031 63.144531 60.671875 Z M 64.582031 50.410156 C 64.566406 50.394531 64.542969 50.386719 64.519531 50.382812 C 64.46875 50.324219 64.414062 50.261719 64.363281 50.203125 C 63.949219 49.714844 63.550781 49.25 63.164062 48.8125 C 63.449219 48.558594 64.582031 47.53125 66.121094 46.066406 C 66.121094 46.066406 66.125 46.066406 66.125 46.0625 C 66.128906 46.0625 66.128906 46.058594 66.132812 46.054688 C 66.839844 45.382812 67.636719 44.613281 68.46875 43.789062 L 73.65625 43.789062 C 73.441406 44.582031 73.183594 45.363281 72.859375 45.96875 C 72.03125 47.496094 68.558594 53.449219 68.039062 54.339844 C 66.71875 52.941406 65.601562 51.648438 64.609375 50.488281 C 64.613281 50.460938 64.605469 50.429688 64.582031 50.410156 Z M 73.707031 43.597656 L 68.664062 43.597656 C 69.347656 42.914062 70.058594 42.199219 70.769531 41.460938 L 74.226562 41.460938 C 74.167969 41.695312 74.105469 41.957031 74.039062 42.242188 C 73.9375 42.667969 73.832031 43.128906 73.707031 43.597656 Z M 74.273438 41.269531 L 70.953125 41.269531 C 72.121094 40.054688 73.285156 38.789062 74.339844 37.554688 C 74.371094 37.570312 74.40625 37.578125 74.441406 37.582031 L 76.882812 37.710938 L 76.882812 39.144531 C 76.527344 39.253906 74.886719 39.792969 74.523438 40.519531 C 74.441406 40.683594 74.359375 40.945312 74.273438 41.269531 Z M 74.175781 36.917969 L 73.363281 36.917969 C 73.226562 36.917969 73.113281 36.8125 73.105469 36.675781 L 72.902344 32.96875 C 72.890625 32.765625 73.039062 32.589844 73.246094 32.570312 L 73.984375 32.5 Z M 76.984375 37.523438 L 74.453125 37.390625 C 74.417969 37.386719 74.386719 37.359375 74.386719 37.324219 L 74.152344 31.941406 C 74.152344 31.90625 74.175781 31.875 74.214844 31.871094 L 79.011719 31.101562 L 79.011719 37.636719 Z M 84.910156 16.914062 C 84.636719 17.175781 83.449219 18.351562 83.347656 19.046875 C 83.320312 19.039062 83.289062 19.046875 83.261719 19.066406 C 83.128906 19.175781 82.960938 19.199219 82.851562 19.132812 C 82.699219 19.035156 82.664062 18.765625 82.753906 18.394531 C 83.007812 17.328125 83.949219 16.191406 84.457031 15.945312 C 84.496094 15.929688 84.554688 15.917969 84.621094 15.917969 C 84.769531 15.917969 84.960938 15.96875 85.070312 16.09375 C 85.257812 16.320312 85.082031 16.671875 84.910156 16.914062 Z M 84.394531 15.167969 C 84.535156 15.257812 84.570312 15.460938 84.492188 15.738281 C 84.449219 15.746094 84.40625 15.757812 84.375 15.773438 C 83.761719 16.066406 82.820312 17.28125 82.566406 18.347656 C 82.539062 18.460938 82.527344 18.558594 82.519531 18.644531 C 82.207031 18.601562 82.019531 18.476562 81.949219 18.273438 C 81.695312 17.539062 82.96875 15.917969 83.496094 15.425781 C 83.796875 15.144531 84.183594 15.035156 84.394531 15.167969 Z M 65.605469 36.425781 C 66.269531 35.851562 66.996094 35.230469 67.804688 34.539062 C 71 31.816406 77.867188 22.707031 78.066406 22.089844 C 78.234375 21.785156 78.308594 21.105469 78.398438 20.320312 C 78.449219 19.863281 78.5 19.390625 78.578125 18.929688 C 78.828125 17.398438 78.882812 15.128906 78.84375 14.082031 C 78.835938 13.902344 78.871094 13.6875 79.074219 13.667969 C 79.441406 13.632812 80.082031 14.1875 80.21875 15.035156 C 80.425781 16.335938 80.503906 17.21875 80.503906 17.226562 C 80.507812 17.265625 80.535156 17.300781 80.574219 17.308594 C 80.613281 17.320312 80.652344 17.308594 80.675781 17.273438 C 80.691406 17.253906 82.285156 15.136719 82.910156 14.324219 C 83.414062 13.667969 84.46875 12.304688 84.984375 12.464844 C 85.078125 12.496094 85.136719 12.554688 85.160156 12.644531 C 85.203125 12.796875 85.234375 13.410156 83.859375 14.945312 C 83.847656 14.957031 83.839844 14.972656 83.835938 14.988281 C 83.675781 15.050781 83.511719 15.148438 83.363281 15.285156 C 82.921875 15.699219 81.457031 17.4375 81.765625 18.335938 C 81.863281 18.617188 82.117188 18.785156 82.519531 18.839844 C 82.542969 19.109375 82.660156 19.238281 82.75 19.292969 C 82.917969 19.402344 83.15625 19.378906 83.351562 19.242188 C 83.359375 19.277344 83.371094 19.308594 83.390625 19.339844 C 83.480469 19.492188 83.617188 19.578125 83.789062 19.589844 C 83.800781 19.589844 83.8125 19.589844 83.824219 19.589844 C 84.277344 19.589844 84.890625 19.09375 85.253906 18.609375 C 85.285156 18.570312 85.277344 18.507812 85.234375 18.476562 C 85.191406 18.445312 85.128906 18.453125 85.097656 18.496094 C 84.761719 18.945312 84.167969 19.417969 83.800781 19.398438 C 83.695312 19.390625 83.613281 19.339844 83.558594 19.242188 C 83.351562 18.886719 84.351562 17.722656 85.046875 17.050781 C 85.054688 17.050781 85.0625 17.050781 85.074219 17.050781 C 85.269531 17.007812 85.414062 17.054688 85.519531 17.1875 C 85.832031 17.585938 85.769531 18.773438 84.925781 20.527344 C 84.878906 20.621094 82.167969 25.839844 78.921875 30.921875 L 74.183594 31.679688 C 74.050781 31.699219 73.953125 31.8125 73.960938 31.949219 L 73.976562 32.308594 L 73.226562 32.378906 C 72.917969 32.40625 72.691406 32.671875 72.707031 32.980469 L 72.914062 36.6875 C 72.925781 36.925781 73.125 37.109375 73.363281 37.109375 L 74.183594 37.109375 L 74.195312 37.332031 C 74.195312 37.359375 74.203125 37.382812 74.210938 37.40625 C 71.628906 40.429688 68.402344 43.628906 66.066406 45.851562 L 61.347656 40.480469 C 61.953125 40.476562 62.511719 40.386719 62.699219 40.105469 C 63.140625 39.453125 63.4375 38.804688 63.601562 38.136719 C 64.214844 37.617188 64.875 37.050781 65.605469 36.425781 Z M 63.527344 35.207031 C 63.527344 35.234375 63.535156 35.253906 63.550781 35.273438 C 63.777344 35.511719 64.367188 36.207031 64.417969 36.535156 C 64.457031 36.796875 63.929688 37.148438 63.589844 37.308594 C 63.5625 37.324219 63.539062 37.351562 63.539062 37.386719 C 63.445312 38.285156 63.121094 39.136719 62.539062 39.996094 C 62.375 40.238281 61.785156 40.300781 61.136719 40.289062 C 61.136719 40.285156 61.136719 40.285156 61.132812 40.285156 C 60.996094 40.285156 60.855469 40.277344 60.714844 40.269531 C 60.210938 40.234375 59.722656 40.167969 59.429688 40.117188 C 59.402344 40.113281 59.371094 40.121094 59.351562 40.140625 C 59.328125 40.15625 59.316406 40.183594 59.316406 40.214844 L 59.304688 42.527344 L 54.972656 42.527344 L 54.980469 41.40625 C 54.984375 41.394531 54.988281 41.378906 54.988281 41.367188 C 54.988281 41.351562 54.984375 41.339844 54.980469 41.328125 L 54.988281 39.917969 C 56.847656 39.65625 57.601562 37.472656 57.609375 37.449219 C 57.621094 37.417969 57.613281 37.378906 57.589844 37.355469 C 57.566406 37.328125 57.527344 37.316406 57.492188 37.328125 C 56.355469 37.613281 55.59375 37.15625 55.261719 36.632812 C 54.933594 36.113281 54.96875 35.472656 55.359375 35 C 56.242188 33.929688 57.433594 34.644531 57.484375 34.675781 C 57.511719 34.695312 57.546875 34.695312 57.578125 34.683594 C 57.609375 34.667969 57.628906 34.636719 57.628906 34.601562 C 57.632812 34.585938 57.753906 33.015625 57.742188 31.761719 L 63.066406 31.5 C 63.484375 32.847656 63.527344 35.183594 63.527344 35.207031 Z M 54.785156 41.460938 L 54.78125 42.527344 L 52.996094 42.527344 C 52.949219 42.527344 52.90625 42.5625 52.898438 42.609375 L 52.753906 43.597656 L 44.464844 43.597656 L 44.464844 41.460938 Z M 10.109375 42.707031 L 10.109375 35.574219 C 10.109375 35.429688 10.226562 35.3125 10.371094 35.3125 L 30.230469 35.3125 C 30.375 35.3125 30.492188 35.429688 30.492188 35.574219 L 30.492188 42.707031 C 30.492188 42.851562 30.375 42.96875 30.230469 42.96875 L 29.144531 42.96875 C 29.109375 42.96875 29.078125 42.988281 29.0625 43.015625 L 25.027344 50.058594 L 26.382812 43.082031 C 26.386719 43.054688 26.378906 43.027344 26.363281 43.003906 C 26.34375 42.980469 26.316406 42.96875 26.285156 42.96875 L 10.371094 42.96875 C 10.226562 42.96875 10.109375 42.851562 10.109375 42.707031 Z M 19.265625 43.160156 L 26.171875 43.160156 L 24.726562 50.59375 C 24.71875 50.640625 24.742188 50.6875 24.789062 50.703125 C 24.796875 50.707031 24.808594 50.707031 24.820312 50.707031 C 24.855469 50.707031 24.886719 50.691406 24.90625 50.660156 L 29.199219 43.160156 L 30.230469 43.160156 C 30.480469 43.160156 30.6875 42.957031 30.6875 42.707031 L 30.6875 35.574219 C 30.6875 35.324219 30.480469 35.121094 30.230469 35.121094 L 19.265625 35.121094 L 19.265625 29.734375 L 41.125 29.734375 L 41.125 52.332031 L 19.265625 52.332031 Z M 16.570312 56.5625 L 16.570312 43.160156 L 19.074219 43.160156 L 19.074219 52.429688 C 19.074219 52.484375 19.117188 52.527344 19.171875 52.527344 L 41.222656 52.527344 C 41.277344 52.527344 41.320312 52.484375 41.320312 52.429688 L 41.320312 29.636719 C 41.320312 29.582031 41.277344 29.539062 41.222656 29.539062 L 19.171875 29.539062 C 19.117188 29.539062 19.074219 29.582031 19.074219 29.636719 L 19.074219 35.121094 L 16.570312 35.121094 L 16.570312 23.136719 C 16.570312 22.535156 17.058594 22.046875 17.660156 22.046875 L 43.183594 22.046875 C 43.785156 22.046875 44.273438 22.535156 44.273438 23.136719 L 44.273438 56.5625 C 44.273438 57.285156 43.960938 57.652344 43.34375 57.652344 L 17.527344 57.652344 C 16.972656 57.652344 16.570312 57.195312 16.570312 56.5625 Z M 22.96875 57.847656 L 23.789062 57.847656 L 23.789062 71.914062 C 23.527344 71.800781 23.253906 71.714844 22.96875 71.652344 Z M 17.832031 75.957031 C 17.832031 73.636719 19.722656 71.746094 22.046875 71.746094 C 24.367188 71.746094 26.257812 73.636719 26.257812 75.957031 C 26.257812 77.628906 25.273438 79.078125 23.851562 79.757812 C 23.851562 79.757812 23.847656 79.757812 23.847656 79.757812 C 23.300781 80.019531 22.691406 80.164062 22.046875 80.164062 C 19.722656 80.164062 17.832031 78.277344 17.832031 75.957031 Z M 25.804688 84.546875 L 32.707031 84.546875 L 32.707031 86.132812 L 25.804688 86.132812 Z M 32.902344 86.132812 L 32.902344 85.429688 L 67.164062 85.429688 L 67.164062 86.132812 Z M 79.558594 86.59375 L 79.558594 88.820312 C 79.558594 88.964844 79.4375 89.085938 79.292969 89.085938 L 20.773438 89.085938 C 20.625 89.085938 20.507812 88.964844 20.507812 88.820312 L 20.507812 86.59375 C 20.507812 86.445312 20.625 86.328125 20.773438 86.328125 L 79.292969 86.328125 C 79.4375 86.328125 79.558594 86.445312 79.558594 86.59375 Z M 74.257812 86.132812 L 67.355469 86.132812 L 67.355469 84.546875 L 74.257812 84.546875 Z M 77.097656 83.980469 C 77.097656 84.183594 76.929688 84.351562 76.722656 84.351562 L 25.757812 84.351562 C 25.742188 84.34375 25.726562 84.339844 25.710938 84.339844 C 25.691406 84.339844 25.675781 84.34375 25.664062 84.351562 L 23.34375 84.351562 C 23.136719 84.351562 22.96875 84.183594 22.96875 83.980469 L 22.96875 80.257812 C 23.253906 80.199219 23.527344 80.109375 23.789062 79.996094 L 23.789062 82.503906 C 23.789062 82.816406 24.042969 83.070312 24.359375 83.070312 L 61.941406 83.070312 C 61.945312 83.070312 61.945312 83.070312 61.945312 83.070312 L 75.585938 83.070312 C 75.898438 83.070312 76.152344 82.816406 76.152344 82.503906 L 76.152344 77.523438 L 77.097656 77.523438 Z M 79.4375 77.332031 L 69.015625 77.332031 L 69.015625 69.273438 L 79.4375 69.273438 Z M 77.097656 69.078125 L 76.152344 69.078125 L 76.152344 51.871094 C 76.515625 50.90625 76.835938 50.007812 77.097656 49.230469 Z M 80.851562 40.351562 C 80.972656 40.503906 80.992188 40.730469 80.917969 41.011719 L 80.167969 41.273438 C 80.117188 41.292969 80.089844 41.347656 80.109375 41.398438 C 80.121094 41.4375 80.160156 41.460938 80.199219 41.460938 C 80.210938 41.460938 80.21875 41.460938 80.230469 41.457031 L 81 41.1875 C 81.167969 41.230469 81.289062 41.339844 81.347656 41.507812 C 81.429688 41.746094 81.359375 42.042969 81.175781 42.269531 L 80.316406 42.617188 C 80.269531 42.640625 80.246094 42.695312 80.265625 42.746094 C 80.28125 42.78125 80.316406 42.804688 80.355469 42.804688 C 80.367188 42.804688 80.378906 42.800781 80.390625 42.796875 L 81.222656 42.460938 C 81.347656 42.558594 81.398438 42.703125 81.414062 42.816406 C 81.453125 43.078125 81.371094 43.390625 81.210938 43.601562 C 81.207031 43.601562 81.203125 43.601562 81.199219 43.601562 L 80.316406 43.960938 C 80.269531 43.980469 80.246094 44.039062 80.265625 44.085938 C 80.28125 44.125 80.316406 44.148438 80.355469 44.148438 C 80.367188 44.148438 80.378906 44.144531 80.390625 44.140625 L 81.199219 43.8125 C 81.320312 43.882812 81.382812 43.996094 81.386719 44.144531 C 81.398438 44.527344 81.039062 45.035156 80.539062 45.355469 C 79.9375 45.734375 77.8125 46.539062 77.792969 46.546875 C 77.765625 46.554688 77.742188 46.578125 77.734375 46.609375 C 77.6875 46.769531 72.949219 62.667969 68.636719 62.917969 C 68.558594 62.921875 68.484375 62.921875 68.40625 62.921875 C 64.355469 62.921875 59.671875 56.828125 59.148438 56.128906 L 64.488281 50.644531 C 65.5 51.824219 66.636719 53.140625 67.988281 54.566406 C 68.007812 54.589844 68.039062 54.601562 68.070312 54.597656 C 68.101562 54.59375 68.125 54.574219 68.140625 54.550781 C 68.183594 54.480469 72.136719 47.707031 73.027344 46.058594 C 73.585938 45.027344 73.941406 43.507812 74.226562 42.285156 C 74.402344 41.539062 74.554688 40.894531 74.699219 40.605469 C 75.007812 39.988281 76.449219 39.488281 76.882812 39.347656 L 76.882812 40.5625 C 76.882812 40.570312 76.886719 40.578125 76.886719 40.582031 L 76.246094 40.722656 C 76.195312 40.734375 76.160156 40.785156 76.171875 40.839844 C 76.183594 40.890625 76.234375 40.925781 76.289062 40.910156 L 80.089844 40.082031 C 80.09375 40.082031 80.621094 40.058594 80.851562 40.351562 Z M 80.078125 37.695312 L 79.203125 37.648438 L 79.203125 31.070312 L 84.371094 30.246094 L 84.492188 37.992188 Z M 88.128906 39.535156 C 88.128906 39.570312 88.109375 39.585938 88.097656 39.59375 C 88.089844 39.597656 88.0625 39.609375 88.03125 39.597656 L 84.683594 38.042969 L 84.5625 30.191406 C 84.761719 30.097656 85.457031 29.753906 88.03125 28.476562 C 88.0625 28.460938 88.089844 28.476562 88.097656 28.480469 C 88.109375 28.488281 88.128906 28.503906 88.128906 28.539062 Z M 61.171875 39.339844 C 61.21875 39.355469 61.269531 39.363281 61.320312 39.363281 C 61.664062 39.363281 62.007812 39.046875 62.136719 38.59375 C 62.207031 38.347656 62.203125 38.097656 62.125 37.886719 C 62.042969 37.664062 61.894531 37.507812 61.699219 37.457031 C 61.3125 37.347656 60.878906 37.683594 60.734375 38.203125 C 60.664062 38.449219 60.667969 38.699219 60.746094 38.910156 C 60.824219 39.132812 60.976562 39.285156 61.171875 39.339844 Z M 60.917969 38.253906 C 61.023438 37.886719 61.289062 37.628906 61.546875 37.628906 C 61.582031 37.628906 61.613281 37.632812 61.648438 37.640625 C 61.777344 37.679688 61.882812 37.789062 61.941406 37.949219 C 62.007812 38.125 62.007812 38.335938 61.949219 38.542969 C 61.832031 38.960938 61.507812 39.234375 61.222656 39.15625 C 61.089844 39.117188 60.984375 39.007812 60.925781 38.847656 C 60.863281 38.671875 60.859375 38.460938 60.917969 38.253906 Z M 33.328125 64.761719 L 33.328125 70.316406 C 33.328125 70.316406 33.328125 70.320312 33.328125 70.320312 C 33.328125 70.328125 33.332031 70.335938 33.335938 70.34375 C 33.335938 70.347656 33.335938 70.351562 33.335938 70.355469 C 33.339844 70.359375 33.34375 70.363281 33.347656 70.371094 C 33.351562 70.375 33.355469 70.382812 33.359375 70.386719 C 33.359375 70.390625 33.363281 70.390625 33.367188 70.390625 C 33.375 70.398438 33.382812 70.402344 33.390625 70.40625 C 33.402344 70.410156 33.414062 70.414062 33.425781 70.414062 L 42.894531 70.414062 C 42.90625 70.414062 42.917969 70.410156 42.929688 70.40625 C 42.9375 70.402344 42.945312 70.398438 42.953125 70.390625 C 42.953125 70.390625 42.957031 70.390625 42.960938 70.386719 C 42.964844 70.382812 42.96875 70.375 42.972656 70.371094 C 42.976562 70.363281 42.980469 70.359375 42.980469 70.355469 C 42.984375 70.351562 42.984375 70.347656 42.984375 70.34375 C 42.988281 70.335938 42.988281 70.328125 42.988281 70.320312 C 42.988281 70.320312 42.988281 70.316406 42.988281 70.316406 L 42.988281 63.359375 C 42.988281 63.355469 42.988281 63.355469 42.988281 63.355469 C 42.988281 63.347656 42.988281 63.34375 42.984375 63.335938 C 42.984375 63.328125 42.984375 63.324219 42.980469 63.320312 C 42.980469 63.316406 42.976562 63.316406 42.976562 63.3125 C 42.972656 63.304688 42.96875 63.296875 42.960938 63.289062 C 42.957031 63.285156 42.953125 63.285156 42.949219 63.28125 C 42.945312 63.277344 42.9375 63.273438 42.929688 63.269531 C 42.921875 63.265625 42.914062 63.265625 42.90625 63.265625 C 42.902344 63.261719 42.898438 63.261719 42.894531 63.261719 L 34.839844 63.261719 C 34.765625 62.574219 34.183594 62.035156 33.476562 62.035156 C 32.722656 62.035156 32.109375 62.648438 32.109375 63.402344 C 32.109375 64.109375 32.644531 64.6875 33.328125 64.761719 Z M 34.339844 64.464844 L 35.230469 65.410156 L 33.523438 69.804688 L 33.523438 64.769531 C 33.832031 64.757812 34.113281 64.648438 34.339844 64.464844 Z M 34.84375 63.453125 L 42.667969 63.453125 L 40.910156 65.316406 L 38.160156 68.226562 L 34.480469 64.332031 C 34.695312 64.097656 34.832031 63.792969 34.84375 63.453125 Z M 38.089844 68.433594 C 38.109375 68.453125 38.132812 68.464844 38.160156 68.464844 C 38.1875 68.464844 38.210938 68.453125 38.230469 68.433594 L 40.941406 65.5625 L 42.753906 70.222656 L 33.566406 70.222656 L 35.378906 65.5625 Z M 41.089844 65.410156 L 42.796875 63.601562 L 42.796875 69.804688 Z M 33.476562 62.230469 C 34.109375 62.230469 34.628906 62.734375 34.652344 63.359375 C 34.652344 63.359375 34.652344 63.359375 34.652344 63.363281 C 34.652344 63.363281 34.652344 63.367188 34.652344 63.375 C 34.652344 63.382812 34.652344 63.394531 34.652344 63.402344 C 34.652344 64.050781 34.125 64.578125 33.476562 64.578125 L 33.453125 64.578125 C 33.449219 64.578125 33.429688 64.574219 33.429688 64.574219 C 32.804688 64.550781 32.300781 64.035156 32.300781 63.402344 C 32.300781 62.753906 32.828125 62.230469 33.476562 62.230469 Z M 32.832031 63.960938 L 32.992188 63.960938 L 32.992188 62.902344 L 32.882812 62.902344 C 32.847656 62.960938 32.773438 63.011719 32.652344 63.019531 L 32.652344 63.132812 L 32.832031 63.132812 Z M 33.394531 63.976562 C 33.554688 63.976562 33.648438 63.878906 33.648438 63.71875 L 33.648438 63.453125 C 33.648438 63.324219 33.578125 63.242188 33.457031 63.242188 C 33.382812 63.242188 33.328125 63.277344 33.304688 63.316406 L 33.304688 63.054688 L 33.609375 63.054688 L 33.609375 62.902344 L 33.148438 62.902344 L 33.148438 63.507812 L 33.304688 63.507812 L 33.304688 63.488281 C 33.304688 63.425781 33.347656 63.386719 33.402344 63.386719 C 33.457031 63.386719 33.488281 63.414062 33.488281 63.476562 L 33.488281 63.722656 C 33.488281 63.792969 33.453125 63.824219 33.394531 63.824219 C 33.335938 63.824219 33.296875 63.792969 33.296875 63.707031 L 33.296875 63.671875 L 33.144531 63.6875 L 33.144531 63.71875 C 33.144531 63.878906 33.238281 63.976562 33.394531 63.976562 Z M 34.054688 63.960938 L 34.214844 63.960938 L 34.214844 63.742188 L 34.300781 63.742188 L 34.300781 63.589844 L 34.214844 63.589844 L 34.214844 62.902344 L 34.023438 62.902344 L 33.742188 63.597656 L 33.742188 63.742188 L 34.054688 63.742188 Z M 33.894531 63.589844 L 34.054688 63.175781 L 34.054688 63.589844 Z M 20.777344 24.273438 C 19.835938 24.273438 19.074219 25.035156 19.074219 25.972656 C 19.074219 26.910156 19.835938 27.671875 20.777344 27.671875 C 21.714844 27.671875 22.476562 26.910156 22.476562 25.972656 C 22.476562 25.035156 21.714844 24.273438 20.777344 24.273438 Z M 37.609375 26.441406 L 24.257812 26.441406 C 24.019531 26.441406 23.824219 26.632812 23.824219 26.871094 L 23.824219 27.078125 C 23.824219 27.316406 24.019531 27.511719 24.257812 27.511719 L 37.609375 27.511719 C 37.851562 27.511719 38.046875 27.316406 38.046875 27.078125 L 38.046875 26.871094 C 38.046875 26.632812 37.851562 26.441406 37.609375 26.441406 Z M 37.851562 27.078125 C 37.851562 27.210938 37.742188 27.316406 37.609375 27.316406 L 24.257812 27.316406 C 24.125 27.316406 24.019531 27.210938 24.019531 27.078125 L 24.019531 26.871094 C 24.019531 26.742188 24.125 26.632812 24.257812 26.632812 L 37.609375 26.632812 C 37.742188 26.632812 37.851562 26.742188 37.851562 26.871094 Z M 24.257812 25.503906 L 29.554688 25.503906 C 29.792969 25.503906 29.988281 25.3125 29.988281 25.070312 L 29.988281 24.867188 C 29.988281 24.628906 29.792969 24.433594 29.554688 24.433594 L 24.257812 24.433594 C 24.019531 24.433594 23.824219 24.628906 23.824219 24.867188 L 23.824219 25.070312 C 23.824219 25.3125 24.019531 25.503906 24.257812 25.503906 Z M 24.019531 24.867188 C 24.019531 24.734375 24.125 24.628906 24.257812 24.628906 L 29.554688 24.628906 C 29.6875 24.628906 29.792969 24.734375 29.792969 24.867188 L 29.792969 25.070312 C 29.792969 25.203125 29.6875 25.3125 29.554688 25.3125 L 24.257812 25.3125 C 24.125 25.3125 24.019531 25.203125 24.019531 25.070312 Z M 39.402344 55.613281 L 40.292969 55.175781 L 41.179688 55.613281 C 41.195312 55.621094 41.207031 55.625 41.222656 55.625 C 41.242188 55.625 41.257812 55.621094 41.273438 55.609375 C 41.300781 55.59375 41.320312 55.5625 41.320312 55.527344 L 41.320312 53.550781 C 41.320312 53.5 41.277344 53.457031 41.222656 53.457031 L 39.359375 53.457031 C 39.308594 53.457031 39.265625 53.5 39.265625 53.550781 L 39.265625 55.527344 C 39.265625 55.5625 39.28125 55.59375 39.308594 55.609375 C 39.339844 55.628906 39.375 55.628906 39.402344 55.613281 Z M 21.386719 53.59375 C 21.222656 53.472656 21.054688 53.429688 20.882812 53.46875 C 20.632812 53.519531 20.445312 53.726562 20.339844 53.863281 C 20.238281 53.726562 20.046875 53.519531 19.800781 53.46875 C 19.628906 53.429688 19.457031 53.472656 19.296875 53.59375 C 19.074219 53.761719 19.015625 54.042969 19.132812 54.390625 C 19.324219 54.964844 19.96875 55.625 20.339844 55.625 C 20.714844 55.625 21.355469 54.964844 21.550781 54.390625 C 21.664062 54.042969 21.605469 53.761719 21.386719 53.59375 Z M 21.367188 54.328125 C 21.191406 54.851562 20.605469 55.433594 20.339844 55.433594 C 20.074219 55.433594 19.488281 54.851562 19.316406 54.328125 C 19.226562 54.058594 19.257812 53.863281 19.414062 53.75 C 19.503906 53.683594 19.589844 53.648438 19.683594 53.648438 C 19.707031 53.648438 19.734375 53.652344 19.757812 53.65625 C 20.046875 53.714844 20.253906 54.082031 20.257812 54.085938 C 20.289062 54.148438 20.390625 54.148438 20.425781 54.085938 C 20.425781 54.082031 20.636719 53.71875 20.921875 53.65625 C 21.039062 53.632812 21.152344 53.664062 21.269531 53.75 C 21.421875 53.863281 21.457031 54.058594 21.367188 54.328125 Z M 24.007812 55.675781 C 24.179688 55.675781 24.347656 55.636719 24.503906 55.558594 L 25.035156 55.625 C 25.070312 55.628906 25.101562 55.613281 25.125 55.589844 C 25.144531 55.5625 25.152344 55.527344 25.140625 55.496094 L 25 55.089844 C 25.09375 54.921875 25.144531 54.730469 25.144531 54.539062 C 25.144531 53.914062 24.632812 53.402344 24.007812 53.402344 C 23.378906 53.402344 22.871094 53.914062 22.871094 54.539062 C 22.871094 55.167969 23.378906 55.675781 24.007812 55.675781 Z M 24.007812 53.597656 C 24.527344 53.597656 24.953125 54.019531 24.953125 54.539062 C 24.953125 54.714844 24.902344 54.886719 24.804688 55.039062 C 24.785156 55.074219 24.789062 55.113281 24.8125 55.144531 L 24.90625 55.414062 L 24.570312 55.371094 C 24.539062 55.347656 24.496094 55.34375 24.460938 55.363281 C 24.316406 55.441406 24.164062 55.484375 24.007812 55.484375 C 23.488281 55.484375 23.0625 55.058594 23.0625 54.539062 C 23.0625 54.019531 23.488281 53.597656 24.007812 53.597656 Z M 26.445312 54.140625 L 27.484375 54.578125 L 27.921875 55.617188 C 27.9375 55.652344 27.972656 55.675781 28.011719 55.675781 C 28.015625 55.675781 28.015625 55.675781 28.019531 55.675781 C 28.058594 55.671875 28.09375 55.644531 28.105469 55.605469 L 28.65625 53.523438 C 28.65625 53.523438 28.65625 53.519531 28.65625 53.515625 C 28.660156 53.503906 28.660156 53.496094 28.65625 53.484375 C 28.65625 53.480469 28.65625 53.476562 28.652344 53.472656 C 28.648438 53.457031 28.644531 53.445312 28.632812 53.433594 C 28.621094 53.421875 28.605469 53.414062 28.589844 53.410156 C 28.589844 53.410156 28.585938 53.40625 28.582031 53.40625 C 28.570312 53.40625 28.558594 53.40625 28.546875 53.40625 C 28.542969 53.40625 28.539062 53.40625 28.539062 53.40625 L 26.457031 53.957031 C 26.417969 53.96875 26.386719 54.003906 26.386719 54.042969 C 26.382812 54.085938 26.40625 54.125 26.445312 54.140625 Z M 27.992188 55.28125 L 27.671875 54.527344 L 28.378906 53.820312 Z M 28.242188 53.683594 L 27.535156 54.390625 L 26.78125 54.070312 Z M 12.953125 36.363281 C 12.316406 36.363281 11.796875 36.878906 11.796875 37.515625 C 11.796875 38.152344 12.316406 38.671875 12.953125 38.671875 C 13.589844 38.671875 14.109375 38.152344 14.109375 37.515625 C 14.109375 36.878906 13.589844 36.363281 12.953125 36.363281 Z M 12.953125 38.480469 C 12.421875 38.480469 11.988281 38.046875 11.988281 37.515625 C 11.988281 36.988281 12.421875 36.554688 12.953125 36.554688 C 13.484375 36.554688 13.914062 36.988281 13.914062 37.515625 C 13.914062 38.046875 13.484375 38.480469 12.953125 38.480469 Z M 15.296875 38.671875 L 28.917969 38.671875 C 28.972656 38.671875 29.015625 38.628906 29.015625 38.574219 C 29.015625 38.523438 28.972656 38.480469 28.917969 38.480469 L 15.296875 38.480469 C 15.242188 38.480469 15.199219 38.523438 15.199219 38.574219 C 15.199219 38.628906 15.242188 38.671875 15.296875 38.671875 Z M 15.296875 37.613281 L 23.738281 37.613281 C 23.789062 37.613281 23.832031 37.570312 23.832031 37.515625 C 23.832031 37.464844 23.789062 37.421875 23.738281 37.421875 L 15.296875 37.421875 C 15.242188 37.421875 15.199219 37.464844 15.199219 37.515625 C 15.199219 37.570312 15.242188 37.613281 15.296875 37.613281 Z M 12.953125 39.558594 C 12.316406 39.558594 11.796875 40.078125 11.796875 40.714844 C 11.796875 41.351562 12.316406 41.867188 12.953125 41.867188 C 13.589844 41.867188 14.109375 41.351562 14.109375 40.714844 C 14.109375 40.078125 13.589844 39.558594 12.953125 39.558594 Z M 12.953125 41.675781 C 12.421875 41.675781 11.988281 41.242188 11.988281 40.714844 C 11.988281 40.183594 12.421875 39.75 12.953125 39.75 C 13.484375 39.75 13.914062 40.183594 13.914062 40.714844 C 13.914062 41.242188 13.484375 41.675781 12.953125 41.675781 Z M 29.015625 41.773438 C 29.015625 41.71875 28.972656 41.675781 28.917969 41.675781 L 15.296875 41.675781 C 15.242188 41.675781 15.199219 41.71875 15.199219 41.773438 C 15.199219 41.824219 15.242188 41.867188 15.296875 41.867188 L 28.917969 41.867188 C 28.972656 41.867188 29.015625 41.824219 29.015625 41.773438 Z M 15.296875 40.808594 L 23.738281 40.808594 C 23.789062 40.808594 23.832031 40.765625 23.832031 40.714844 C 23.832031 40.660156 23.789062 40.617188 23.738281 40.617188 L 15.296875 40.617188 C 15.242188 40.617188 15.199219 40.660156 15.199219 40.714844 C 15.199219 40.765625 15.242188 40.808594 15.296875 40.808594 Z M 69.441406 66.285156 C 69.113281 66.285156 68.847656 66.554688 68.847656 66.882812 C 68.847656 67.210938 69.113281 67.476562 69.441406 67.476562 C 69.769531 67.476562 70.039062 67.210938 70.039062 66.882812 C 70.039062 66.554688 69.769531 66.285156 69.441406 66.285156 Z M 69.441406 67.285156 C 69.21875 67.285156 69.039062 67.101562 69.039062 66.882812 C 69.039062 66.660156 69.21875 66.480469 69.441406 66.480469 C 69.664062 66.480469 69.84375 66.660156 69.84375 66.882812 C 69.84375 67.101562 69.664062 67.285156 69.441406 67.285156 Z M 71.457031 65.976562 L 71.183594 65.976562 L 71.183594 67.785156 L 71.945312 67.785156 L 71.945312 67.527344 L 71.457031 67.527344 Z M 72.15625 67.785156 L 72.429688 67.785156 L 72.429688 65.976562 L 72.15625 65.976562 Z M 73.128906 67.398438 L 72.921875 65.976562 L 72.644531 65.976562 L 72.941406 67.785156 L 73.308594 67.785156 L 73.609375 65.976562 L 73.335938 65.976562 Z M 74.601562 66.234375 L 74.601562 65.976562 L 73.824219 65.976562 L 73.824219 67.785156 L 74.601562 67.785156 L 74.601562 67.527344 L 74.097656 67.527344 L 74.097656 66.996094 L 74.496094 66.996094 L 74.496094 66.738281 L 74.097656 66.738281 L 74.097656 66.234375 Z M 74.714844 73.039062 L 72.609375 71.886719 C 72.515625 71.835938 72.40625 71.835938 72.3125 71.890625 C 72.222656 71.945312 72.167969 72.042969 72.167969 72.148438 L 72.167969 74.453125 C 72.167969 74.558594 72.222656 74.65625 72.3125 74.710938 C 72.359375 74.738281 72.414062 74.753906 72.464844 74.753906 C 72.515625 74.753906 72.566406 74.742188 72.609375 74.714844 L 74.714844 73.5625 C 74.8125 73.511719 74.871094 73.414062 74.871094 73.300781 C 74.871094 73.191406 74.8125 73.09375 74.714844 73.039062 Z M 74.621094 73.394531 L 73.445312 74.039062 L 72.515625 74.546875 C 72.46875 74.574219 72.425781 74.554688 72.410156 74.542969 C 72.394531 74.535156 72.359375 74.507812 72.359375 74.453125 L 72.359375 72.148438 C 72.359375 72.09375 72.394531 72.066406 72.410156 72.058594 C 72.421875 72.050781 72.441406 72.042969 72.464844 72.042969 C 72.480469 72.042969 72.5 72.046875 72.515625 72.054688 L 74.621094 73.207031 C 74.671875 73.234375 74.679688 73.28125 74.679688 73.300781 C 74.679688 73.320312 74.671875 73.367188 74.621094 73.394531 Z M 75.90625 70.886719 C 75.90625 70.832031 75.863281 70.789062 75.8125 70.789062 L 70.972656 70.789062 C 70.921875 70.789062 70.878906 70.832031 70.878906 70.886719 L 70.878906 75.71875 C 70.878906 75.769531 70.921875 75.8125 70.972656 75.8125 L 75.8125 75.8125 C 75.863281 75.8125 75.90625 75.769531 75.90625 75.71875 L 75.90625 74.34375 L 77.695312 75.324219 C 77.773438 75.367188 77.867188 75.363281 77.945312 75.316406 C 78.023438 75.273438 78.070312 75.191406 78.070312 75.101562 L 78.070312 71.5 C 78.070312 71.410156 78.023438 71.332031 77.945312 71.285156 C 77.867188 71.238281 77.773438 71.238281 77.695312 71.28125 L 75.90625 72.257812 Z M 75.714844 75.621094 L 71.070312 75.621094 L 71.070312 70.980469 L 75.714844 70.980469 Z M 77.789062 71.449219 C 77.816406 71.433594 77.839844 71.445312 77.847656 71.449219 C 77.855469 71.457031 77.875 71.472656 77.875 71.5 L 77.875 75.101562 C 77.875 75.132812 77.855469 75.148438 77.847656 75.152344 C 77.839844 75.15625 77.816406 75.167969 77.789062 75.152344 L 75.90625 74.125 L 75.90625 72.476562 Z M 71.425781 80.695312 C 71.554688 80.695312 71.671875 80.636719 71.75 80.546875 L 73.191406 81.34375 C 73.179688 81.382812 73.171875 81.421875 73.171875 81.464844 C 73.171875 81.707031 73.371094 81.90625 73.613281 81.90625 C 73.855469 81.90625 74.050781 81.707031 74.050781 81.464844 C 74.050781 81.222656 73.855469 81.027344 73.613281 81.027344 C 73.484375 81.027344 73.367188 81.085938 73.285156 81.175781 L 71.84375 80.378906 C 71.855469 80.339844 71.863281 80.296875 71.863281 80.253906 C 71.863281 80.210938 71.855469 80.171875 71.84375 80.132812 L 73.285156 79.335938 C 73.367188 79.425781 73.484375 79.484375 73.613281 79.484375 C 73.855469 79.484375 74.050781 79.285156 74.050781 79.042969 C 74.050781 78.800781 73.855469 78.605469 73.613281 78.605469 C 73.371094 78.605469 73.171875 78.800781 73.171875 79.042969 C 73.171875 79.085938 73.179688 79.128906 73.191406 79.167969 L 71.75 79.964844 C 71.671875 79.875 71.554688 79.816406 71.425781 79.816406 C 71.183594 79.816406 70.984375 80.011719 70.984375 80.253906 C 70.984375 80.496094 71.183594 80.695312 71.425781 80.695312 Z M 73.613281 81.21875 C 73.75 81.21875 73.859375 81.332031 73.859375 81.464844 C 73.859375 81.601562 73.75 81.710938 73.613281 81.710938 C 73.476562 81.710938 73.367188 81.601562 73.367188 81.464844 C 73.367188 81.332031 73.476562 81.21875 73.613281 81.21875 Z M 73.613281 78.796875 C 73.75 78.796875 73.859375 78.910156 73.859375 79.042969 C 73.859375 79.179688 73.75 79.289062 73.613281 79.289062 C 73.476562 79.289062 73.367188 79.179688 73.367188 79.042969 C 73.367188 78.910156 73.476562 78.796875 73.613281 78.796875 Z M 71.425781 80.007812 C 71.5625 80.007812 71.671875 80.121094 71.671875 80.253906 C 71.671875 80.390625 71.5625 80.5 71.425781 80.5 C 71.289062 80.5 71.179688 80.390625 71.179688 80.253906 C 71.179688 80.121094 71.289062 80.007812 71.425781 80.007812 Z M 23.363281 76.625 L 24.535156 75.480469 C 24.5625 75.457031 24.574219 75.417969 24.5625 75.382812 C 24.550781 75.347656 24.519531 75.320312 24.484375 75.316406 L 22.859375 75.082031 L 22.132812 73.609375 C 22.101562 73.542969 21.992188 73.542969 21.960938 73.609375 L 21.234375 75.082031 L 19.609375 75.316406 C 19.574219 75.320312 19.542969 75.347656 19.53125 75.382812 C 19.519531 75.417969 19.527344 75.457031 19.554688 75.480469 L 20.730469 76.625 L 20.453125 78.242188 C 20.445312 78.277344 20.460938 78.3125 20.492188 78.335938 C 20.507812 78.347656 20.527344 78.355469 20.546875 78.355469 C 20.5625 78.355469 20.578125 78.351562 20.59375 78.34375 L 22.046875 77.578125 L 23.5 78.34375 C 23.53125 78.359375 23.570312 78.355469 23.601562 78.335938 C 23.628906 78.3125 23.644531 78.277344 23.640625 78.242188 Z M 22.089844 77.386719 C 22.078125 77.378906 22.0625 77.375 22.046875 77.375 C 22.03125 77.375 22.015625 77.378906 22 77.386719 L 20.675781 78.082031 L 20.929688 76.609375 C 20.933594 76.578125 20.925781 76.542969 20.902344 76.523438 L 19.828125 75.480469 L 21.3125 75.265625 C 21.34375 75.257812 21.371094 75.238281 21.382812 75.210938 L 22.046875 73.871094 L 22.707031 75.210938 C 22.722656 75.238281 22.75 75.257812 22.78125 75.265625 L 24.261719 75.480469 L 23.191406 76.523438 C 23.167969 76.542969 23.15625 76.578125 23.164062 76.609375 L 23.414062 78.082031 Z M 52.339844 17.554688 C 52.675781 17.554688 52.949219 17.28125 52.949219 16.949219 C 52.949219 16.613281 52.675781 16.34375 52.339844 16.34375 C 52.007812 16.34375 51.734375 16.613281 51.734375 16.949219 C 51.734375 17.28125 52.007812 17.554688 52.339844 17.554688 Z M 52.339844 16.535156 C 52.570312 16.535156 52.753906 16.722656 52.753906 16.949219 C 52.753906 17.175781 52.570312 17.363281 52.339844 17.363281 C 52.113281 17.363281 51.929688 17.175781 51.929688 16.949219 C 51.929688 16.722656 52.113281 16.535156 52.339844 16.535156 Z M 51.449219 18.890625 L 53.230469 18.890625 C 53.285156 18.890625 53.328125 18.847656 53.328125 18.792969 C 53.328125 18.195312 52.886719 17.703125 52.339844 17.703125 C 51.796875 17.703125 51.355469 18.195312 51.355469 18.792969 C 51.355469 18.847656 51.398438 18.890625 51.449219 18.890625 Z M 52.339844 17.898438 C 52.75 17.898438 53.089844 18.25 53.132812 18.699219 L 51.550781 18.699219 C 51.59375 18.25 51.933594 17.898438 52.339844 17.898438 Z M 54.84375 18.789062 C 55.191406 18.789062 55.398438 18.570312 55.398438 18.226562 L 55.398438 18.011719 C 55.398438 17.796875 55.304688 17.640625 55.128906 17.558594 C 55.289062 17.476562 55.375 17.328125 55.375 17.121094 L 55.375 16.972656 C 55.375 16.640625 55.175781 16.429688 54.835938 16.429688 C 54.5 16.429688 54.300781 16.640625 54.300781 16.972656 L 54.300781 17.050781 L 54.632812 17.050781 L 54.632812 16.996094 C 54.632812 16.832031 54.707031 16.757812 54.832031 16.757812 C 54.957031 16.757812 55.027344 16.832031 55.027344 16.964844 L 55.027344 17.140625 C 55.027344 17.324219 54.949219 17.402344 54.765625 17.402344 L 54.652344 17.402344 L 54.652344 17.730469 L 54.789062 17.730469 C 54.972656 17.730469 55.050781 17.808594 55.050781 17.992188 L 55.050781 18.230469 C 55.050781 18.382812 54.972656 18.460938 54.835938 18.460938 C 54.703125 18.460938 54.625 18.382812 54.625 18.199219 L 54.625 18.125 L 54.289062 18.15625 L 54.289062 18.226562 C 54.289062 18.570312 54.496094 18.789062 54.84375 18.789062 Z M 56.058594 18.0625 L 56.191406 17.8125 L 56.554688 18.753906 L 56.929688 18.753906 L 56.402344 17.4375 L 56.890625 16.464844 L 56.519531 16.464844 L 56.058594 17.394531 L 56.058594 16.464844 L 55.710938 16.464844 L 55.710938 18.753906 L 56.058594 18.753906 Z M 61.742188 18.890625 C 62.164062 18.890625 62.886719 18.148438 63.105469 17.496094 C 63.234375 17.105469 63.171875 16.792969 62.921875 16.605469 C 62.742188 16.472656 62.554688 16.421875 62.359375 16.464844 C 62.074219 16.523438 61.855469 16.769531 61.742188 16.925781 C 61.632812 16.769531 61.414062 16.523438 61.125 16.464844 C 60.933594 16.421875 60.742188 16.472656 60.5625 16.605469 C 60.316406 16.792969 60.253906 17.105469 60.382812 17.496094 C 60.597656 18.148438 61.324219 18.890625 61.742188 18.890625 Z M 60.679688 16.761719 C 60.785156 16.683594 60.886719 16.644531 60.992188 16.644531 C 61.023438 16.644531 61.054688 16.644531 61.085938 16.652344 C 61.417969 16.722656 61.65625 17.144531 61.660156 17.148438 C 61.695312 17.207031 61.792969 17.207031 61.828125 17.148438 C 61.832031 17.144531 62.070312 16.722656 62.402344 16.652344 C 62.539062 16.625 62.671875 16.660156 62.808594 16.761719 C 62.988281 16.894531 63.027344 17.121094 62.921875 17.433594 C 62.722656 18.03125 62.050781 18.699219 61.742188 18.699219 C 61.4375 18.699219 60.765625 18.03125 60.566406 17.433594 C 60.460938 17.121094 60.5 16.894531 60.679688 16.761719 Z M 64.75 18.789062 C 65.089844 18.789062 65.296875 18.578125 65.296875 18.230469 L 65.296875 17.65625 C 65.296875 17.375 65.140625 17.195312 64.882812 17.195312 C 64.722656 17.195312 64.597656 17.273438 64.550781 17.359375 L 64.550781 16.789062 L 65.207031 16.789062 L 65.207031 16.464844 L 64.214844 16.464844 L 64.214844 17.773438 L 64.550781 17.773438 L 64.550781 17.734375 C 64.550781 17.59375 64.640625 17.507812 64.765625 17.507812 C 64.878906 17.507812 64.949219 17.574219 64.949219 17.707031 L 64.949219 18.238281 C 64.949219 18.386719 64.871094 18.460938 64.742188 18.460938 C 64.617188 18.460938 64.535156 18.386719 64.535156 18.203125 L 64.535156 18.128906 L 64.203125 18.164062 L 64.203125 18.230469 C 64.203125 18.578125 64.410156 18.789062 64.75 18.789062 Z M 66.128906 18.789062 C 66.464844 18.789062 66.6875 18.566406 66.6875 18.234375 L 66.6875 16.984375 C 66.6875 16.652344 66.464844 16.429688 66.128906 16.429688 C 65.796875 16.429688 65.574219 16.652344 65.574219 16.984375 L 65.574219 18.234375 C 65.574219 18.566406 65.796875 18.789062 66.128906 18.789062 Z M 65.921875 16.984375 C 65.921875 16.839844 66.003906 16.757812 66.128906 16.757812 C 66.257812 16.757812 66.339844 16.839844 66.339844 16.984375 L 66.339844 18.234375 C 66.339844 18.378906 66.257812 18.460938 66.128906 18.460938 C 66.003906 18.460938 65.921875 18.378906 65.921875 18.234375 Z M 67.554688 18.789062 C 67.886719 18.789062 68.109375 18.566406 68.109375 18.234375 L 68.109375 16.984375 C 68.109375 16.652344 67.886719 16.429688 67.554688 16.429688 C 67.21875 16.429688 66.996094 16.652344 66.996094 16.984375 L 66.996094 18.234375 C 66.996094 18.566406 67.21875 18.789062 67.554688 18.789062 Z M 67.34375 16.984375 C 67.34375 16.839844 67.425781 16.757812 67.554688 16.757812 C 67.679688 16.757812 67.761719 16.839844 67.761719 16.984375 L 67.761719 18.234375 C 67.761719 18.378906 67.679688 18.460938 67.554688 18.460938 C 67.425781 18.460938 67.34375 18.378906 67.34375 18.234375 Z M 50.808594 20.289062 L 58.511719 20.289062 L 59.816406 22.152344 C 59.832031 22.179688 59.863281 22.191406 59.894531 22.191406 C 59.925781 22.191406 59.953125 22.179688 59.972656 22.152344 L 61.277344 20.289062 L 68.503906 20.289062 C 69.976562 20.289062 71.171875 19.09375 71.171875 17.625 C 71.171875 16.15625 69.976562 14.964844 68.503906 14.964844 L 50.808594 14.964844 C 49.339844 14.964844 48.144531 16.15625 48.144531 17.625 C 48.144531 19.09375 49.339844 20.289062 50.808594 20.289062 Z M 50.808594 15.15625 L 68.503906 15.15625 C 69.867188 15.15625 70.976562 16.265625 70.976562 17.625 C 70.976562 18.988281 69.867188 20.09375 68.503906 20.09375 L 61.226562 20.09375 C 61.195312 20.09375 61.164062 20.109375 61.148438 20.136719 L 59.894531 21.929688 L 58.640625 20.136719 C 58.621094 20.109375 58.59375 20.09375 58.5625 20.09375 L 50.808594 20.09375 C 49.445312 20.09375 48.335938 18.988281 48.335938 17.625 C 48.335938 16.265625 49.445312 15.15625 50.808594 15.15625 Z M 80.96875 22.3125 C 80.976562 22.316406 80.984375 22.316406 80.992188 22.316406 C 81.035156 22.316406 81.074219 22.285156 81.085938 22.242188 C 81.492188 20.351562 83.160156 20.226562 83.230469 20.222656 C 83.285156 20.21875 83.324219 20.171875 83.320312 20.117188 C 83.320312 20.066406 83.273438 20.027344 83.21875 20.027344 C 83.199219 20.03125 81.335938 20.164062 80.894531 22.199219 C 80.886719 22.25 80.917969 22.304688 80.96875 22.3125 Z M 82.742188 59.035156 C 80.941406 59.035156 79.480469 60.496094 79.480469 62.296875 C 79.480469 64.09375 80.941406 65.554688 82.742188 65.554688 C 84.542969 65.554688 86.003906 64.09375 86.003906 62.296875 C 86.003906 60.496094 84.542969 59.035156 82.742188 59.035156 Z M 82.742188 65.363281 C 81.050781 65.363281 79.671875 63.984375 79.671875 62.296875 C 79.671875 60.605469 81.050781 59.226562 82.742188 59.226562 C 84.433594 59.226562 85.8125 60.605469 85.8125 62.296875 C 85.8125 63.984375 84.433594 65.363281 82.742188 65.363281 Z M 84.171875 61.640625 L 83.710938 61.640625 C 83.8125 60.757812 83.726562 60.21875 83.476562 60.105469 C 83.367188 60.058594 83.246094 60.097656 83.144531 60.214844 C 83.03125 60.347656 82.96875 60.535156 82.902344 60.734375 C 82.847656 60.90625 82.789062 61.082031 82.691406 61.238281 C 82.53125 61.5 81.941406 61.730469 81.710938 61.800781 L 80.898438 61.800781 C 80.84375 61.800781 80.800781 61.84375 80.800781 61.898438 L 80.800781 63.746094 C 80.800781 63.800781 80.84375 63.84375 80.898438 63.84375 L 84.171875 63.84375 C 84.453125 63.84375 84.683594 63.613281 84.683594 63.332031 L 84.683594 62.148438 C 84.683594 61.867188 84.453125 61.640625 84.171875 61.640625 Z M 80.992188 61.996094 L 81.632812 61.996094 L 81.632812 63.652344 L 80.992188 63.652344 Z M 84.492188 63.332031 C 84.492188 63.507812 84.347656 63.652344 84.171875 63.652344 L 81.824219 63.652344 L 81.824219 61.96875 C 82.03125 61.898438 82.660156 61.664062 82.855469 61.339844 C 82.964844 61.164062 83.027344 60.96875 83.085938 60.792969 C 83.144531 60.613281 83.203125 60.445312 83.292969 60.339844 C 83.308594 60.320312 83.363281 60.265625 83.398438 60.28125 C 83.492188 60.324219 83.636719 60.679688 83.507812 61.722656 C 83.503906 61.75 83.511719 61.777344 83.53125 61.800781 C 83.550781 61.820312 83.574219 61.832031 83.605469 61.832031 L 84.171875 61.832031 C 84.347656 61.832031 84.492188 61.976562 84.492188 62.148438 Z M 37.242188 47.128906 L 35.78125 47.125 C 35.738281 47.121094 35.695312 47.15625 35.6875 47.199219 L 35.371094 48.625 C 35.363281 48.652344 35.371094 48.679688 35.390625 48.703125 C 35.40625 48.726562 35.433594 48.742188 35.464844 48.742188 L 36.925781 48.746094 C 36.96875 48.746094 37.007812 48.714844 37.019531 48.667969 L 37.335938 47.246094 C 37.339844 47.21875 37.335938 47.1875 37.316406 47.164062 C 37.296875 47.144531 37.269531 47.128906 37.242188 47.128906 Z M 36.847656 48.550781 L 35.585938 48.546875 L 35.859375 47.316406 L 37.121094 47.320312 Z M 38.972656 46.105469 L 38.644531 46.105469 L 38.714844 45.785156 C 38.789062 45.453125 38.582031 45.128906 38.253906 45.054688 C 37.921875 44.980469 37.59375 45.191406 37.523438 45.519531 L 37.394531 46.101562 L 36.128906 46.097656 L 36.199219 45.785156 C 36.273438 45.453125 36.066406 45.128906 35.734375 45.054688 C 35.40625 44.980469 35.078125 45.191406 35.007812 45.519531 L 34.878906 46.09375 L 34.289062 46.089844 C 33.953125 46.089844 33.675781 46.363281 33.675781 46.699219 C 33.675781 46.863281 33.738281 47.015625 33.855469 47.132812 C 33.96875 47.25 34.121094 47.3125 34.285156 47.3125 L 34.605469 47.3125 L 34.332031 48.542969 L 33.734375 48.542969 C 33.398438 48.542969 33.121094 48.816406 33.121094 49.152344 C 33.121094 49.316406 33.183594 49.46875 33.300781 49.585938 C 33.414062 49.699219 33.566406 49.765625 33.730469 49.765625 L 34.0625 49.765625 L 33.988281 50.085938 C 33.953125 50.246094 33.980469 50.410156 34.070312 50.546875 C 34.15625 50.683594 34.292969 50.78125 34.453125 50.816406 C 34.777344 50.886719 35.113281 50.671875 35.183594 50.351562 L 35.3125 49.769531 L 36.574219 49.773438 L 36.503906 50.085938 C 36.433594 50.414062 36.640625 50.742188 36.96875 50.816406 C 37.011719 50.824219 37.058594 50.832031 37.101562 50.832031 C 37.386719 50.832031 37.636719 50.628906 37.699219 50.351562 L 37.828125 49.777344 L 38.417969 49.777344 C 38.753906 49.777344 39.027344 49.507812 39.03125 49.171875 C 39.03125 48.832031 38.757812 48.558594 38.421875 48.558594 L 38.097656 48.554688 L 38.375 47.324219 L 38.972656 47.328125 C 39.308594 47.328125 39.582031 47.054688 39.585938 46.71875 C 39.585938 46.382812 39.3125 46.105469 38.972656 46.105469 Z M 38.972656 47.132812 L 38.296875 47.132812 C 38.25 47.132812 38.210938 47.164062 38.203125 47.207031 L 37.886719 48.632812 C 37.878906 48.660156 37.886719 48.691406 37.902344 48.710938 C 37.921875 48.734375 37.949219 48.75 37.980469 48.75 L 38.417969 48.75 C 38.652344 48.75 38.835938 48.9375 38.835938 49.167969 C 38.835938 49.398438 38.648438 49.585938 38.417969 49.585938 L 37.75 49.585938 C 37.703125 49.585938 37.664062 49.617188 37.65625 49.660156 L 37.511719 50.308594 C 37.460938 50.53125 37.234375 50.675781 37.011719 50.628906 C 36.785156 50.578125 36.644531 50.351562 36.695312 50.128906 L 36.789062 49.699219 C 36.796875 49.667969 36.789062 49.640625 36.769531 49.617188 C 36.753906 49.59375 36.726562 49.582031 36.695312 49.582031 L 35.234375 49.578125 C 35.191406 49.578125 35.152344 49.609375 35.140625 49.652344 L 34.996094 50.308594 C 34.945312 50.53125 34.714844 50.675781 34.496094 50.628906 C 34.386719 50.601562 34.292969 50.539062 34.234375 50.445312 C 34.171875 50.347656 34.152344 50.238281 34.175781 50.128906 L 34.273438 49.691406 C 34.28125 49.660156 34.273438 49.632812 34.257812 49.609375 C 34.238281 49.585938 34.210938 49.574219 34.179688 49.574219 L 33.730469 49.570312 C 33.621094 49.570312 33.515625 49.527344 33.4375 49.449219 C 33.359375 49.367188 33.3125 49.265625 33.316406 49.152344 C 33.316406 48.921875 33.503906 48.734375 33.734375 48.734375 L 34.410156 48.738281 C 34.453125 48.738281 34.496094 48.707031 34.503906 48.660156 L 34.820312 47.238281 C 34.828125 47.210938 34.820312 47.179688 34.800781 47.15625 C 34.785156 47.132812 34.757812 47.121094 34.726562 47.121094 L 34.285156 47.121094 C 34.175781 47.121094 34.070312 47.074219 33.992188 46.996094 C 33.910156 46.917969 33.867188 46.8125 33.867188 46.699219 C 33.871094 46.46875 34.058594 46.285156 34.289062 46.285156 L 34.957031 46.285156 C 35 46.285156 35.039062 46.253906 35.050781 46.210938 L 35.195312 45.558594 C 35.246094 45.335938 35.46875 45.191406 35.695312 45.242188 C 35.917969 45.292969 36.0625 45.515625 36.011719 45.742188 L 35.917969 46.171875 C 35.910156 46.199219 35.917969 46.230469 35.933594 46.253906 C 35.953125 46.277344 35.980469 46.289062 36.011719 46.289062 L 37.46875 46.292969 C 37.511719 46.300781 37.554688 46.261719 37.566406 46.21875 L 37.710938 45.558594 C 37.761719 45.335938 37.984375 45.191406 38.210938 45.242188 C 38.4375 45.292969 38.578125 45.515625 38.527344 45.742188 L 38.429688 46.179688 C 38.425781 46.207031 38.429688 46.238281 38.449219 46.261719 C 38.46875 46.285156 38.496094 46.296875 38.523438 46.296875 L 38.972656 46.296875 C 39.203125 46.300781 39.390625 46.488281 39.390625 46.71875 C 39.390625 46.949219 39.203125 47.132812 38.972656 47.132812 Z M 38.972656 47.132812 " fill-opacity="1" fill-rule="nonzero"/></g></svg>