<svg xmlns="http://www.w3.org/2000/svg" xmlns:xlink="http://www.w3.org/1999/xlink" width="132" zoomAndPan="magnify" viewBox="0 0 98.88 98.999996" height="132" preserveAspectRatio="xMidYMid meet" version="1.0"><defs><clipPath id="a97049a1fa"><path d="M 0 0.0585938 L 98.761719 0.0585938 L 98.761719 98.9375 L 0 98.9375 Z M 0 0.0585938 " clip-rule="nonzero"/></clipPath><clipPath id="c1ed725bc4"><path d="M 51 59 L 82 59 L 82 89.988281 L 51 89.988281 Z M 51 59 " clip-rule="nonzero"/></clipPath><clipPath id="fa74677c20"><path d="M 25 9.085938 L 70 9.085938 L 70 85 L 25 85 Z M 25 9.085938 " clip-rule="nonzero"/></clipPath><clipPath id="b0f770ca7b"><path d="M 15.289062 70 L 35 70 L 35 85 L 15.289062 85 Z M 15.289062 70 " clip-rule="nonzero"/></clipPath><clipPath id="618bfe6534"><path d="M 64 33 L 83.457031 33 L 83.457031 47 L 64 47 Z M 64 33 " clip-rule="nonzero"/></clipPath></defs><g clip-path="url(#a97049a1fa)"><path fill="#ffffff" d="M 0 0.0585938 L 98.878906 0.0585938 L 98.878906 98.941406 L 0 98.941406 Z M 0 0.0585938 " fill-opacity="1" fill-rule="nonzero"/><path fill="#ffffff" d="M 0 0.0585938 L 98.878906 0.0585938 L 98.878906 98.941406 L 0 98.941406 Z M 0 0.0585938 " fill-opacity="1" fill-rule="nonzero"/></g><g clip-path="url(#c1ed725bc4)"><path fill="#fdbd28" d="M 64.132812 60.019531 C 64.523438 59.960938 64.914062 59.910156 65.308594 59.882812 L 65.257812 62.394531 C 65.25 62.816406 65.519531 63.199219 65.9375 63.25 L 68.355469 63.527344 C 68.777344 63.578125 69.125 63.261719 69.214844 62.847656 L 69.777344 60.207031 C 72.1875 60.753906 74.40625 61.886719 76.25 63.46875 L 74.441406 65.207031 C 74.136719 65.503906 74.054688 65.964844 74.316406 66.296875 L 75.832031 68.207031 C 76.09375 68.535156 76.5625 68.558594 76.917969 68.332031 L 79.179688 66.859375 C 80.242188 68.546875 80.992188 70.472656 81.316406 72.566406 C 81.378906 72.960938 81.425781 73.355469 81.453125 73.742188 L 78.945312 73.691406 C 78.519531 73.683594 78.136719 73.953125 78.089844 74.371094 L 77.808594 76.792969 C 77.761719 77.214844 78.078125 77.566406 78.488281 77.648438 L 81.128906 78.210938 C 80.582031 80.621094 79.449219 82.84375 77.863281 84.6875 L 76.125 82.878906 C 75.832031 82.570312 75.371094 82.488281 75.039062 82.753906 L 73.132812 84.269531 C 72.800781 84.53125 72.773438 85 73.007812 85.355469 L 74.476562 87.617188 C 72.789062 88.679688 70.867188 89.425781 68.769531 89.753906 C 68.375 89.816406 67.980469 89.859375 67.59375 89.890625 L 67.640625 87.382812 C 67.652344 86.953125 67.382812 86.570312 66.960938 86.523438 L 64.539062 86.246094 C 64.121094 86.195312 63.769531 86.507812 63.683594 86.925781 L 63.125 89.5625 C 60.714844 89.019531 58.492188 87.886719 56.652344 86.304688 L 58.457031 84.5625 C 58.765625 84.269531 58.847656 83.808594 58.582031 83.480469 L 57.070312 81.570312 C 56.804688 81.234375 56.335938 81.214844 55.980469 81.445312 L 53.71875 82.914062 C 52.65625 81.226562 51.910156 79.300781 51.582031 77.203125 C 51.523438 76.8125 51.476562 76.421875 51.445312 76.027344 L 53.953125 76.078125 C 54.382812 76.085938 54.765625 75.820312 54.8125 75.398438 L 55.089844 72.980469 C 55.140625 72.558594 54.828125 72.210938 54.410156 72.121094 L 51.773438 71.558594 C 52.320312 69.152344 53.453125 66.933594 55.03125 65.085938 L 56.773438 66.894531 C 57.066406 67.203125 57.527344 67.285156 57.859375 67.019531 L 59.765625 65.507812 C 60.101562 65.246094 60.121094 64.773438 59.890625 64.421875 L 58.421875 62.15625 C 60.109375 61.09375 62.035156 60.347656 64.132812 60.019531 Z M 65.359375 67.890625 C 69.222656 67.285156 72.84375 69.929688 73.445312 73.796875 C 74.050781 77.65625 71.40625 81.28125 67.539062 81.882812 C 63.679688 82.484375 60.054688 79.84375 59.453125 75.976562 C 58.855469 72.113281 61.496094 68.492188 65.359375 67.890625 Z M 65.359375 67.890625 " fill-opacity="1" fill-rule="evenodd"/></g><g clip-path="url(#fa74677c20)"><path fill="#512d7c" d="M 29.445312 9.097656 L 65.019531 9.097656 C 65.292969 9.097656 65.558594 9.121094 65.824219 9.175781 C 66.089844 9.226562 66.347656 9.308594 66.597656 9.410156 C 66.847656 9.515625 67.085938 9.640625 67.3125 9.792969 C 67.535156 9.941406 67.746094 10.113281 67.9375 10.304688 C 68.128906 10.496094 68.300781 10.703125 68.449219 10.929688 C 68.601562 11.152344 68.726562 11.390625 68.832031 11.640625 C 68.933594 11.890625 69.011719 12.148438 69.066406 12.414062 C 69.117188 12.679688 69.144531 12.949219 69.144531 13.21875 L 69.144531 80.433594 C 69.144531 80.703125 69.117188 80.972656 69.066406 81.238281 C 69.011719 81.503906 68.933594 81.761719 68.832031 82.011719 C 68.726562 82.261719 68.601562 82.5 68.449219 82.722656 C 68.300781 82.949219 68.128906 83.15625 67.9375 83.347656 C 67.746094 83.539062 67.535156 83.710938 67.3125 83.863281 C 67.085938 84.011719 66.847656 84.140625 66.597656 84.242188 C 66.347656 84.347656 66.089844 84.425781 65.824219 84.476562 C 65.558594 84.53125 65.292969 84.558594 65.019531 84.558594 L 29.445312 84.558594 C 29.175781 84.558594 28.90625 84.53125 28.640625 84.476562 C 28.375 84.425781 28.117188 84.347656 27.867188 84.242188 C 27.617188 84.140625 27.382812 84.011719 27.15625 83.863281 C 26.929688 83.710938 26.722656 83.539062 26.53125 83.347656 C 26.339844 83.15625 26.167969 82.949219 26.019531 82.722656 C 25.867188 82.5 25.742188 82.261719 25.636719 82.011719 C 25.535156 81.761719 25.457031 81.503906 25.402344 81.238281 C 25.351562 80.972656 25.324219 80.703125 25.324219 80.433594 L 25.324219 13.21875 C 25.324219 12.949219 25.351562 12.679688 25.402344 12.414062 C 25.457031 12.148438 25.535156 11.890625 25.636719 11.640625 C 25.742188 11.390625 25.867188 11.152344 26.019531 10.929688 C 26.167969 10.703125 26.339844 10.496094 26.53125 10.304688 C 26.722656 10.113281 26.929688 9.941406 27.15625 9.792969 C 27.382812 9.640625 27.617188 9.515625 27.867188 9.410156 C 28.117188 9.308594 28.375 9.226562 28.640625 9.175781 C 28.90625 9.121094 29.175781 9.097656 29.445312 9.097656 Z M 29.445312 9.097656 " fill-opacity="1" fill-rule="evenodd"/></g><path fill="#f5feff" d="M 26.503906 16.277344 L 67.960938 16.277344 L 67.960938 78.738281 L 26.503906 78.738281 Z M 26.503906 16.277344 " fill-opacity="1" fill-rule="evenodd"/><path fill="#e8eaff" d="M 29.234375 48.503906 L 64.871094 48.503906 L 64.871094 75.140625 L 29.234375 75.140625 Z M 29.234375 48.503906 " fill-opacity="1" fill-rule="evenodd"/><path fill="#e8eaff" d="M 29.234375 23.371094 L 39.417969 23.371094 L 39.417969 32.554688 L 29.234375 32.554688 Z M 29.234375 23.371094 " fill-opacity="1" fill-rule="evenodd"/><path fill="#fdbd28" d="M 41.960938 23.371094 L 52.144531 23.371094 L 52.144531 32.554688 L 41.960938 32.554688 Z M 41.960938 23.371094 " fill-opacity="1" fill-rule="evenodd"/><path fill="#512d7c" d="M 54.6875 23.371094 L 64.871094 23.371094 L 64.871094 32.554688 L 54.6875 32.554688 Z M 54.6875 23.371094 " fill-opacity="1" fill-rule="evenodd"/><path fill="#e8eaff" d="M 29.503906 20.1875 L 65.054688 20.1875 L 65.054688 21.003906 L 29.503906 21.003906 Z M 29.503906 20.1875 " fill-opacity="1" fill-rule="evenodd"/><g clip-path="url(#b0f770ca7b)"><path fill="#fdbd28" d="M 16.253906 70.566406 L 33.691406 70.566406 C 33.957031 70.566406 34.183594 70.660156 34.371094 70.847656 C 34.558594 71.035156 34.652344 71.265625 34.652344 71.53125 L 34.652344 83.675781 C 34.652344 83.941406 34.558594 84.167969 34.371094 84.355469 C 34.183594 84.542969 33.957031 84.636719 33.691406 84.636719 L 16.253906 84.636719 C 15.988281 84.636719 15.761719 84.542969 15.574219 84.355469 C 15.386719 84.167969 15.289062 83.941406 15.289062 83.675781 L 15.289062 71.53125 C 15.289062 71.265625 15.386719 71.035156 15.574219 70.847656 C 15.761719 70.660156 15.988281 70.566406 16.253906 70.566406 Z M 16.253906 70.566406 " fill-opacity="1" fill-rule="evenodd"/></g><path fill="#512d7c" d="M 22.144531 71.890625 C 22.253906 71.890625 22.363281 71.894531 22.464844 71.90625 L 22.347656 72.574219 C 22.328125 72.6875 22.386719 72.800781 22.496094 72.835938 L 23.136719 73.011719 C 23.246094 73.042969 23.351562 72.972656 23.394531 72.863281 L 23.652344 72.175781 C 24.277344 72.425781 24.828125 72.824219 25.257812 73.324219 L 24.699219 73.71875 C 24.601562 73.785156 24.5625 73.902344 24.617188 74 L 24.945312 74.578125 C 25 74.679688 25.125 74.703125 25.230469 74.660156 L 25.902344 74.359375 C 26.113281 74.855469 26.234375 75.402344 26.234375 75.980469 C 26.234375 76.089844 26.230469 76.195312 26.222656 76.304688 L 25.550781 76.183594 C 25.4375 76.164062 25.324219 76.21875 25.289062 76.328125 L 25.117188 76.96875 C 25.085938 77.078125 25.15625 77.1875 25.261719 77.226562 L 25.949219 77.488281 C 25.699219 78.113281 25.300781 78.660156 24.800781 79.089844 L 24.40625 78.53125 C 24.339844 78.4375 24.222656 78.398438 24.121094 78.453125 L 23.546875 78.777344 C 23.449219 78.835938 23.417969 78.960938 23.464844 79.066406 L 23.769531 79.734375 C 23.273438 79.949219 22.722656 80.070312 22.144531 80.070312 C 22.035156 80.070312 21.929688 80.066406 21.824219 80.054688 L 21.945312 79.386719 C 21.960938 79.273438 21.90625 79.15625 21.796875 79.128906 L 21.15625 78.953125 C 21.046875 78.917969 20.941406 78.988281 20.898438 79.097656 L 20.636719 79.78125 C 20.011719 79.53125 19.464844 79.136719 19.035156 78.636719 L 19.59375 78.246094 C 19.6875 78.179688 19.730469 78.058594 19.675781 77.957031 L 19.347656 77.382812 C 19.289062 77.28125 19.164062 77.257812 19.058594 77.304688 L 18.390625 77.601562 C 18.179688 77.105469 18.054688 76.558594 18.054688 75.980469 C 18.054688 75.875 18.058594 75.761719 18.070312 75.660156 L 18.742188 75.777344 C 18.855469 75.796875 18.96875 75.742188 18.996094 75.628906 L 19.175781 74.992188 C 19.207031 74.878906 19.136719 74.773438 19.027344 74.734375 L 18.34375 74.472656 C 18.59375 73.847656 18.992188 73.300781 19.492188 72.867188 L 19.878906 73.429688 C 19.945312 73.523438 20.066406 73.5625 20.167969 73.507812 L 20.746094 73.179688 C 20.84375 73.125 20.871094 73 20.820312 72.894531 L 20.523438 72.226562 C 21.019531 72.011719 21.570312 71.890625 22.144531 71.890625 Z M 22.144531 74.058594 C 23.210938 74.058594 24.070312 74.917969 24.070312 75.980469 C 24.070312 77.042969 23.210938 77.902344 22.144531 77.902344 C 21.082031 77.902344 20.222656 77.042969 20.222656 75.980469 C 20.222656 74.917969 21.082031 74.058594 22.144531 74.058594 Z M 22.144531 74.058594 " fill-opacity="1" fill-rule="evenodd"/><path fill="#512d7c" d="M 28.335938 76.414062 C 28.410156 76.402344 28.488281 76.394531 28.558594 76.390625 L 28.550781 76.875 C 28.546875 76.953125 28.597656 77.03125 28.679688 77.039062 L 29.140625 77.097656 C 29.222656 77.109375 29.292969 77.046875 29.308594 76.96875 L 29.421875 76.460938 C 29.882812 76.574219 30.3125 76.792969 30.664062 77.101562 L 30.3125 77.433594 C 30.25 77.488281 30.238281 77.578125 30.285156 77.640625 L 30.574219 78.011719 C 30.625 78.078125 30.714844 78.082031 30.78125 78.035156 L 31.222656 77.761719 C 31.425781 78.082031 31.566406 78.457031 31.625 78.859375 C 31.632812 78.9375 31.640625 79.015625 31.644531 79.089844 L 31.164062 79.074219 C 31.082031 79.074219 31.007812 79.121094 31 79.203125 L 30.941406 79.667969 C 30.929688 79.75 30.992188 79.820312 31.070312 79.835938 L 31.574219 79.949219 C 31.46875 80.410156 31.246094 80.839844 30.9375 81.1875 L 30.605469 80.839844 C 30.550781 80.78125 30.460938 80.761719 30.394531 80.8125 L 30.027344 81.101562 C 29.960938 81.152344 29.957031 81.238281 30 81.308594 L 30.277344 81.746094 C 29.953125 81.949219 29.582031 82.089844 29.179688 82.148438 C 29.101562 82.160156 29.023438 82.167969 28.949219 82.171875 L 28.964844 81.691406 C 28.964844 81.605469 28.917969 81.535156 28.835938 81.523438 L 28.367188 81.46875 C 28.289062 81.457031 28.222656 81.515625 28.203125 81.597656 L 28.089844 82.105469 C 27.625 81.992188 27.203125 81.773438 26.851562 81.464844 L 27.199219 81.132812 C 27.257812 81.078125 27.277344 80.984375 27.226562 80.921875 L 26.9375 80.550781 C 26.886719 80.488281 26.796875 80.480469 26.730469 80.527344 L 26.289062 80.804688 C 26.089844 80.476562 25.949219 80.105469 25.890625 79.703125 C 25.878906 79.628906 25.871094 79.550781 25.863281 79.476562 L 26.347656 79.488281 C 26.429688 79.492188 26.503906 79.441406 26.515625 79.359375 L 26.570312 78.898438 C 26.582031 78.816406 26.523438 78.746094 26.441406 78.726562 L 25.933594 78.617188 C 26.042969 78.152344 26.265625 77.726562 26.574219 77.375 L 26.90625 77.726562 C 26.964844 77.785156 27.050781 77.804688 27.113281 77.753906 L 27.484375 77.464844 C 27.546875 77.414062 27.554688 77.324219 27.511719 77.257812 L 27.234375 76.820312 C 27.558594 76.617188 27.929688 76.472656 28.335938 76.414062 Z M 28.554688 77.933594 C 29.304688 77.824219 29.996094 78.335938 30.105469 79.085938 C 30.214844 79.832031 29.699219 80.523438 28.953125 80.632812 C 28.210938 80.738281 27.515625 80.222656 27.40625 79.480469 C 27.296875 78.734375 27.8125 78.042969 28.554688 77.933594 Z M 28.554688 77.933594 " fill-opacity="1" fill-rule="evenodd"/><path fill="#fdbd28" d="M 18.492188 43.382812 L 28.4375 43.382812 C 28.613281 43.382812 28.765625 43.445312 28.886719 43.570312 C 29.011719 43.695312 29.074219 43.84375 29.074219 44.019531 L 29.074219 53.835938 C 29.074219 54.011719 29.011719 54.160156 28.886719 54.285156 C 28.765625 54.410156 28.613281 54.472656 28.4375 54.472656 L 18.492188 54.472656 C 18.316406 54.472656 18.164062 54.410156 18.039062 54.285156 C 17.917969 54.160156 17.855469 54.011719 17.855469 53.835938 L 17.855469 44.019531 C 17.855469 43.84375 17.917969 43.695312 18.039062 43.570312 C 18.164062 43.445312 18.316406 43.382812 18.492188 43.382812 Z M 18.492188 43.382812 " fill-opacity="1" fill-rule="evenodd"/><path fill="#e8eaff" d="M 24.664062 46.652344 L 24.664062 51.414062 L 20.925781 49.035156 Z M 24.664062 46.652344 " fill-opacity="1" fill-rule="nonzero"/><path fill="#e8eaff" d="M 29.503906 34.503906 L 55.292969 34.503906 L 55.292969 35.320312 L 29.503906 35.320312 Z M 29.503906 34.503906 " fill-opacity="1" fill-rule="evenodd"/><path fill="#e8eaff" d="M 29.503906 37.230469 L 65.054688 37.230469 L 65.054688 38.046875 L 29.503906 38.046875 Z M 29.503906 37.230469 " fill-opacity="1" fill-rule="evenodd"/><path fill="#e8eaff" d="M 29.503906 39.957031 L 60.621094 39.957031 L 60.621094 40.773438 L 29.503906 40.773438 Z M 29.503906 39.957031 " fill-opacity="1" fill-rule="evenodd"/><path fill="#e8eaff" d="M 29.503906 42.683594 L 54 42.683594 L 54 43.5 L 29.503906 43.5 Z M 29.503906 42.683594 " fill-opacity="1" fill-rule="evenodd"/><path fill="#e8eaff" d="M 29.503906 45.414062 L 65.054688 45.414062 L 65.054688 46.230469 L 29.503906 46.230469 Z M 29.503906 45.414062 " fill-opacity="1" fill-rule="evenodd"/><g clip-path="url(#618bfe6534)"><path fill="#fdbd28" d="M 65.847656 33.078125 L 82.574219 33.078125 C 82.707031 33.078125 82.835938 33.105469 82.957031 33.15625 C 83.082031 33.207031 83.1875 33.277344 83.28125 33.371094 C 83.375 33.464844 83.449219 33.574219 83.5 33.695312 C 83.550781 33.820312 83.574219 33.945312 83.574219 34.078125 L 83.574219 45.171875 C 83.574219 45.304688 83.550781 45.433594 83.5 45.554688 C 83.449219 45.675781 83.375 45.785156 83.28125 45.878906 C 83.1875 45.972656 83.082031 46.046875 82.957031 46.097656 C 82.835938 46.148438 82.707031 46.171875 82.574219 46.171875 L 65.847656 46.171875 C 65.714844 46.171875 65.589844 46.148438 65.464844 46.097656 C 65.34375 46.046875 65.234375 45.972656 65.140625 45.878906 C 65.046875 45.785156 64.976562 45.675781 64.925781 45.554688 C 64.875 45.433594 64.847656 45.304688 64.847656 45.171875 L 64.847656 34.078125 C 64.847656 33.945312 64.875 33.820312 64.925781 33.695312 C 64.976562 33.574219 65.046875 33.464844 65.140625 33.371094 C 65.234375 33.277344 65.34375 33.207031 65.464844 33.15625 C 65.589844 33.105469 65.714844 33.078125 65.847656 33.078125 Z M 65.847656 33.078125 " fill-opacity="1" fill-rule="evenodd"/></g><path fill="#e8eaff" d="M 75.199219 35.898438 L 76.195312 35.898438 L 73.160156 43.4375 L 72.164062 43.4375 Z M 75.199219 35.898438 " fill-opacity="1" fill-rule="evenodd"/><path fill="#e8eaff" d="M 76.785156 38.003906 C 76.578125 37.867188 76.519531 37.589844 76.652344 37.378906 C 76.789062 37.167969 77.070312 37.105469 77.28125 37.246094 L 80.371094 39.242188 C 80.582031 39.378906 80.640625 39.664062 80.503906 39.871094 C 80.46875 39.925781 80.421875 39.976562 80.363281 40.007812 L 77.28125 42.003906 C 77.070312 42.140625 76.789062 42.082031 76.652344 41.871094 C 76.519531 41.664062 76.578125 41.378906 76.785156 41.242188 L 79.292969 39.625 Z M 76.785156 38.003906 " fill-opacity="1" fill-rule="nonzero"/><path fill="#e8eaff" d="M 70.96875 37.246094 C 71.179688 37.105469 71.457031 37.167969 71.59375 37.378906 C 71.730469 37.589844 71.671875 37.867188 71.460938 38.003906 L 68.957031 39.625 L 71.460938 41.242188 C 71.671875 41.378906 71.730469 41.664062 71.59375 41.871094 C 71.457031 42.082031 71.179688 42.140625 70.96875 42.003906 L 67.882812 40.007812 C 67.828125 39.976562 67.78125 39.925781 67.742188 39.871094 C 67.605469 39.664062 67.664062 39.378906 67.875 39.242188 Z M 70.96875 37.246094 " fill-opacity="1" fill-rule="nonzero"/></svg>