<svg xmlns="http://www.w3.org/2000/svg" xmlns:xlink="http://www.w3.org/1999/xlink" width="132" zoomAndPan="magnify" viewBox="0 0 98.88 98.999996" height="132" preserveAspectRatio="xMidYMid meet" version="1.0"><defs><clipPath id="2b77714dd6"><path d="M 0 0.0585938 L 98.761719 0.0585938 L 98.761719 98.9375 L 0 98.9375 Z M 0 0.0585938 " clip-rule="nonzero"/></clipPath><clipPath id="76f96b6501"><path d="M 10.269531 10.328125 L 88.921875 10.328125 L 88.921875 88.984375 L 10.269531 88.984375 Z M 10.269531 10.328125 " clip-rule="nonzero"/></clipPath></defs><g clip-path="url(#2b77714dd6)"><path fill="#ffffff" d="M 0 0.0585938 L 98.878906 0.0585938 L 98.878906 98.941406 L 0 98.941406 Z M 0 0.0585938 " fill-opacity="1" fill-rule="nonzero"/><path fill="#ffffff" d="M 0 0.0585938 L 98.878906 0.0585938 L 98.878906 98.941406 L 0 98.941406 Z M 0 0.0585938 " fill-opacity="1" fill-rule="nonzero"/></g><g clip-path="url(#76f96b6501)"><path fill="#512d7c" d="M 84.8125 10.328125 L 14.066406 10.328125 C 11.972656 10.328125 10.269531 12.03125 10.269531 14.125 L 10.269531 84.871094 C 10.269531 86.964844 11.972656 88.667969 14.066406 88.667969 L 84.8125 88.667969 C 86.902344 88.667969 88.605469 86.964844 88.605469 84.871094 L 88.605469 14.125 C 88.605469 12.03125 86.902344 10.328125 84.8125 10.328125 Z M 87.167969 14.125 L 87.167969 23.144531 L 62.972656 23.144531 L 62.972656 11.765625 L 84.8125 11.765625 C 86.109375 11.765625 87.167969 12.824219 87.167969 14.125 Z M 37.339844 23.144531 L 37.339844 11.765625 L 61.535156 11.765625 L 61.535156 23.144531 Z M 61.535156 24.582031 L 61.535156 87.226562 L 37.339844 87.226562 L 37.339844 24.582031 Z M 14.066406 11.765625 L 35.902344 11.765625 L 35.902344 23.144531 L 11.707031 23.144531 L 11.707031 14.125 C 11.707031 12.824219 12.765625 11.765625 14.066406 11.765625 Z M 11.707031 84.871094 L 11.707031 24.582031 L 35.902344 24.582031 L 35.902344 87.226562 L 14.066406 87.226562 C 12.765625 87.226562 11.707031 86.171875 11.707031 84.871094 Z M 84.8125 87.226562 L 62.972656 87.226562 L 62.972656 24.582031 L 87.167969 24.582031 L 87.167969 84.871094 C 87.167969 86.171875 86.109375 87.226562 84.8125 87.226562 Z M 84.8125 87.226562 " fill-opacity="1" fill-rule="nonzero"/></g><path fill="#512d7c" d="M 18.335938 18.152344 L 29.269531 18.152344 C 29.667969 18.152344 29.992188 17.828125 29.992188 17.433594 C 29.992188 17.035156 29.667969 16.714844 29.269531 16.714844 L 18.335938 16.714844 C 17.941406 16.714844 17.617188 17.035156 17.617188 17.433594 C 17.617188 17.828125 17.941406 18.152344 18.335938 18.152344 Z M 18.335938 18.152344 " fill-opacity="1" fill-rule="nonzero"/><path fill="#512d7c" d="M 54.90625 16.714844 L 43.96875 16.714844 C 43.574219 16.714844 43.25 17.035156 43.25 17.433594 C 43.25 17.828125 43.574219 18.152344 43.96875 18.152344 L 54.90625 18.152344 C 55.300781 18.152344 55.625 17.828125 55.625 17.433594 C 55.625 17.035156 55.300781 16.714844 54.90625 16.714844 Z M 54.90625 16.714844 " fill-opacity="1" fill-rule="nonzero"/><path fill="#512d7c" d="M 69.605469 18.152344 L 80.539062 18.152344 C 80.9375 18.152344 81.257812 17.828125 81.257812 17.433594 C 81.257812 17.035156 80.9375 16.714844 80.539062 16.714844 L 69.605469 16.714844 C 69.207031 16.714844 68.882812 17.035156 68.882812 17.433594 C 68.882812 17.828125 69.207031 18.152344 69.605469 18.152344 Z M 69.605469 18.152344 " fill-opacity="1" fill-rule="nonzero"/><path fill="#512d7c" d="M 31.460938 28.140625 L 15.984375 28.140625 C 15.589844 28.140625 15.265625 28.464844 15.265625 28.863281 L 15.265625 44.335938 C 15.265625 44.734375 15.589844 45.054688 15.984375 45.054688 L 31.460938 45.054688 C 31.859375 45.054688 32.179688 44.734375 32.179688 44.335938 L 32.179688 28.863281 C 32.179688 28.464844 31.859375 28.140625 31.460938 28.140625 Z M 30.742188 43.617188 L 16.703125 43.617188 L 16.703125 29.582031 L 30.742188 29.582031 Z M 30.742188 43.617188 " fill-opacity="1" fill-rule="nonzero"/><path fill="#512d7c" d="M 19.332031 34.480469 L 28.113281 34.480469 C 28.511719 34.480469 28.832031 34.160156 28.832031 33.761719 C 28.832031 33.363281 28.511719 33.042969 28.113281 33.042969 L 19.332031 33.042969 C 18.933594 33.042969 18.613281 33.363281 18.613281 33.761719 C 18.613281 34.160156 18.933594 34.480469 19.332031 34.480469 Z M 19.332031 34.480469 " fill-opacity="1" fill-rule="nonzero"/><path fill="#512d7c" d="M 19.332031 39.082031 L 23.722656 39.082031 C 24.121094 39.082031 24.441406 38.757812 24.441406 38.363281 C 24.441406 37.964844 24.121094 37.644531 23.722656 37.644531 L 19.332031 37.644531 C 18.933594 37.644531 18.613281 37.964844 18.613281 38.363281 C 18.613281 38.757812 18.933594 39.082031 19.332031 39.082031 Z M 19.332031 39.082031 " fill-opacity="1" fill-rule="nonzero"/><path fill="#512d7c" d="M 41.699219 64.363281 L 57.175781 64.363281 C 57.574219 64.363281 57.894531 64.039062 57.894531 63.644531 L 57.894531 48.167969 C 57.894531 47.769531 57.574219 47.449219 57.175781 47.449219 L 41.699219 47.449219 C 41.300781 47.449219 40.980469 47.769531 40.980469 48.167969 L 40.980469 63.644531 C 40.980469 64.039062 41.300781 64.363281 41.699219 64.363281 Z M 42.417969 48.886719 L 56.457031 48.886719 L 56.457031 62.925781 L 42.417969 62.925781 Z M 42.417969 48.886719 " fill-opacity="1" fill-rule="nonzero"/><path fill="#512d7c" d="M 53.828125 52.347656 L 45.046875 52.347656 C 44.648438 52.347656 44.328125 52.671875 44.328125 53.066406 C 44.328125 53.464844 44.648438 53.785156 45.046875 53.785156 L 53.828125 53.785156 C 54.226562 53.785156 54.546875 53.464844 54.546875 53.066406 C 54.546875 52.671875 54.226562 52.347656 53.828125 52.347656 Z M 53.828125 52.347656 " fill-opacity="1" fill-rule="nonzero"/><path fill="#512d7c" d="M 49.4375 56.949219 L 45.046875 56.949219 C 44.648438 56.949219 44.328125 57.269531 44.328125 57.667969 C 44.328125 58.066406 44.648438 58.386719 45.046875 58.386719 L 49.4375 58.386719 C 49.835938 58.386719 50.15625 58.066406 50.15625 57.667969 C 50.15625 57.269531 49.835938 56.949219 49.4375 56.949219 Z M 49.4375 56.949219 " fill-opacity="1" fill-rule="nonzero"/><path fill="#512d7c" d="M 41.699219 83.667969 L 57.175781 83.667969 C 57.574219 83.667969 57.894531 83.347656 57.894531 82.949219 L 57.894531 67.472656 C 57.894531 67.078125 57.574219 66.753906 57.175781 66.753906 L 41.699219 66.753906 C 41.300781 66.753906 40.980469 67.078125 40.980469 67.472656 L 40.980469 82.949219 C 40.980469 83.347656 41.300781 83.667969 41.699219 83.667969 Z M 42.417969 68.191406 L 56.457031 68.191406 L 56.457031 82.230469 L 42.417969 82.230469 Z M 42.417969 68.191406 " fill-opacity="1" fill-rule="nonzero"/><path fill="#512d7c" d="M 53.828125 71.652344 L 45.046875 71.652344 C 44.648438 71.652344 44.328125 71.976562 44.328125 72.375 C 44.328125 72.769531 44.648438 73.09375 45.046875 73.09375 L 53.828125 73.09375 C 54.226562 73.09375 54.546875 72.769531 54.546875 72.375 C 54.546875 71.976562 54.226562 71.652344 53.828125 71.652344 Z M 53.828125 71.652344 " fill-opacity="1" fill-rule="nonzero"/><path fill="#512d7c" d="M 49.4375 76.253906 L 45.046875 76.253906 C 44.648438 76.253906 44.328125 76.578125 44.328125 76.972656 C 44.328125 77.371094 44.648438 77.691406 45.046875 77.691406 L 49.4375 77.691406 C 49.835938 77.691406 50.15625 77.371094 50.15625 76.972656 C 50.15625 76.578125 49.835938 76.253906 49.4375 76.253906 Z M 49.4375 76.253906 " fill-opacity="1" fill-rule="nonzero"/><path fill="#512d7c" d="M 82.808594 28.140625 L 67.332031 28.140625 C 66.9375 28.140625 66.613281 28.464844 66.613281 28.863281 L 66.613281 44.335938 C 66.613281 44.734375 66.9375 45.054688 67.332031 45.054688 L 82.808594 45.054688 C 83.207031 45.054688 83.527344 44.734375 83.527344 44.335938 L 83.527344 28.863281 C 83.527344 28.464844 83.207031 28.140625 82.808594 28.140625 Z M 82.089844 43.617188 L 68.050781 43.617188 L 68.050781 29.582031 L 82.089844 29.582031 Z M 82.089844 43.617188 " fill-opacity="1" fill-rule="nonzero"/><path fill="#512d7c" d="M 70.679688 34.480469 L 79.460938 34.480469 C 79.859375 34.480469 80.183594 34.160156 80.183594 33.761719 C 80.183594 33.363281 79.859375 33.042969 79.460938 33.042969 L 70.679688 33.042969 C 70.28125 33.042969 69.960938 33.363281 69.960938 33.761719 C 69.960938 34.160156 70.28125 34.480469 70.679688 34.480469 Z M 70.679688 34.480469 " fill-opacity="1" fill-rule="nonzero"/><path fill="#512d7c" d="M 70.679688 39.082031 L 75.070312 39.082031 C 75.46875 39.082031 75.789062 38.757812 75.789062 38.363281 C 75.789062 37.964844 75.46875 37.644531 75.070312 37.644531 L 70.679688 37.644531 C 70.28125 37.644531 69.960938 37.964844 69.960938 38.363281 C 69.960938 38.757812 70.28125 39.082031 70.679688 39.082031 Z M 70.679688 39.082031 " fill-opacity="1" fill-rule="nonzero"/><path fill="#512d7c" d="M 82.808594 47.449219 L 67.332031 47.449219 C 66.9375 47.449219 66.613281 47.769531 66.613281 48.167969 L 66.613281 63.644531 C 66.613281 64.039062 66.9375 64.363281 67.332031 64.363281 L 82.808594 64.363281 C 83.207031 64.363281 83.527344 64.039062 83.527344 63.644531 L 83.527344 48.167969 C 83.527344 47.769531 83.207031 47.449219 82.808594 47.449219 Z M 82.089844 62.925781 L 68.050781 62.925781 L 68.050781 48.886719 L 82.089844 48.886719 Z M 82.089844 62.925781 " fill-opacity="1" fill-rule="nonzero"/><path fill="#512d7c" d="M 70.679688 53.785156 L 79.460938 53.785156 C 79.859375 53.785156 80.183594 53.464844 80.183594 53.066406 C 80.183594 52.671875 79.859375 52.347656 79.460938 52.347656 L 70.679688 52.347656 C 70.28125 52.347656 69.960938 52.671875 69.960938 53.066406 C 69.960938 53.464844 70.28125 53.785156 70.679688 53.785156 Z M 70.679688 53.785156 " fill-opacity="1" fill-rule="nonzero"/><path fill="#512d7c" d="M 70.679688 58.386719 L 75.070312 58.386719 C 75.46875 58.386719 75.789062 58.066406 75.789062 57.667969 C 75.789062 57.269531 75.46875 56.949219 75.070312 56.949219 L 70.679688 56.949219 C 70.28125 56.949219 69.960938 57.269531 69.960938 57.667969 C 69.960938 58.066406 70.28125 58.386719 70.679688 58.386719 Z M 70.679688 58.386719 " fill-opacity="1" fill-rule="nonzero"/><path fill="#512d7c" d="M 75.578125 66.964844 C 75.574219 66.960938 75.570312 66.960938 75.566406 66.957031 C 75.503906 66.894531 75.429688 66.84375 75.347656 66.808594 C 75.078125 66.699219 74.769531 66.761719 74.5625 66.964844 L 71.761719 69.765625 C 71.484375 70.046875 71.484375 70.5 71.761719 70.78125 C 72.042969 71.0625 72.5 71.0625 72.78125 70.78125 L 74.351562 69.210938 L 74.351562 74.453125 L 67.332031 74.453125 C 66.9375 74.453125 66.613281 74.773438 66.613281 75.171875 C 66.613281 75.570312 66.9375 75.890625 67.332031 75.890625 L 75.070312 75.890625 C 75.46875 75.890625 75.789062 75.570312 75.789062 75.171875 L 75.789062 69.210938 L 77.363281 70.78125 C 77.503906 70.921875 77.6875 70.992188 77.871094 70.992188 C 78.054688 70.992188 78.238281 70.921875 78.378906 70.78125 C 78.660156 70.5 78.660156 70.046875 78.378906 69.765625 Z M 75.578125 66.964844 " fill-opacity="1" fill-rule="nonzero"/><path fill="#512d7c" d="M 41.699219 37.320312 L 48.71875 37.320312 L 48.71875 42.601562 L 47.144531 41.027344 C 46.867188 40.75 46.410156 40.75 46.128906 41.027344 C 45.847656 41.308594 45.847656 41.765625 46.128906 42.046875 L 48.929688 44.847656 C 49.066406 44.984375 49.25 45.054688 49.4375 45.054688 C 49.441406 45.054688 49.449219 45.054688 49.453125 45.054688 C 49.496094 45.054688 49.535156 45.050781 49.574219 45.042969 C 49.585938 45.042969 49.59375 45.035156 49.601562 45.035156 C 49.640625 45.027344 49.675781 45.015625 49.710938 45.003906 C 49.710938 45.003906 49.710938 45 49.714844 45 C 49.753906 44.984375 49.789062 44.964844 49.824219 44.945312 C 49.832031 44.9375 49.839844 44.929688 49.851562 44.921875 C 49.878906 44.902344 49.90625 44.882812 49.929688 44.859375 C 49.9375 44.855469 49.941406 44.851562 49.945312 44.847656 L 52.746094 42.046875 C 53.027344 41.765625 53.027344 41.308594 52.746094 41.03125 C 52.464844 40.75 52.007812 40.75 51.730469 41.03125 L 50.15625 42.601562 L 50.15625 36.597656 C 50.15625 36.203125 49.835938 35.878906 49.4375 35.878906 L 41.699219 35.878906 C 41.300781 35.878906 40.980469 36.203125 40.980469 36.597656 C 40.980469 36.996094 41.300781 37.320312 41.699219 37.320312 Z M 41.699219 37.320312 " fill-opacity="1" fill-rule="nonzero"/><path fill="#512d7c" d="M 29.167969 52.597656 C 28.890625 52.316406 28.433594 52.316406 28.152344 52.597656 C 27.871094 52.878906 27.871094 53.332031 28.152344 53.613281 L 29.726562 55.1875 L 24.441406 55.1875 L 24.441406 48.167969 C 24.441406 47.769531 24.121094 47.449219 23.722656 47.449219 C 23.324219 47.449219 23.003906 47.769531 23.003906 48.167969 L 23.003906 55.90625 C 23.003906 56.304688 23.324219 56.625 23.722656 56.625 L 29.726562 56.625 L 28.152344 58.195312 C 27.871094 58.476562 27.871094 58.933594 28.152344 59.214844 C 28.292969 59.355469 28.476562 59.425781 28.660156 59.425781 C 28.84375 59.425781 29.03125 59.355469 29.171875 59.214844 L 31.96875 56.414062 C 31.976562 56.410156 31.976562 56.40625 31.980469 56.398438 C 32.039062 56.335938 32.089844 56.265625 32.125 56.179688 C 32.238281 55.914062 32.175781 55.601562 31.96875 55.398438 Z M 29.167969 52.597656 " fill-opacity="1" fill-rule="nonzero"/></svg>