<svg xmlns="http://www.w3.org/2000/svg" xmlns:xlink="http://www.w3.org/1999/xlink" width="132" zoomAndPan="magnify" viewBox="0 0 98.88 98.999996" height="132" preserveAspectRatio="xMidYMid meet" version="1.0"><defs><clipPath id="508979ab09"><path d="M 0 0.0585938 L 98.761719 0.0585938 L 98.761719 98.9375 L 0 98.9375 Z M 0 0.0585938 " clip-rule="nonzero"/></clipPath><clipPath id="58f8899593"><path d="M 24 9.332031 L 74 9.332031 L 74 89.484375 L 24 89.484375 Z M 24 9.332031 " clip-rule="nonzero"/></clipPath></defs><g clip-path="url(#508979ab09)"><path fill="#ffffff" d="M 0 0.0585938 L 98.878906 0.0585938 L 98.878906 98.941406 L 0 98.941406 Z M 0 0.0585938 " fill-opacity="1" fill-rule="nonzero"/><path fill="#ffffff" d="M 0 0.0585938 L 98.878906 0.0585938 L 98.878906 98.941406 L 0 98.941406 Z M 0 0.0585938 " fill-opacity="1" fill-rule="nonzero"/></g><path fill="#512d7c" d="M 34.46875 68.90625 L 15.128906 68.90625 C 13.859375 68.90625 12.824219 67.871094 12.824219 66.554688 L 12.824219 55.964844 C 12.824219 54.695312 13.859375 53.660156 15.128906 53.660156 L 34.46875 53.660156 C 35.742188 53.660156 36.777344 54.695312 36.777344 55.964844 L 36.777344 66.554688 C 36.777344 67.871094 35.742188 68.90625 34.46875 68.90625 Z M 15.128906 55.210938 C 14.753906 55.210938 14.421875 55.589844 14.421875 55.964844 L 14.421875 66.554688 C 14.421875 66.976562 14.753906 67.304688 15.128906 67.304688 L 34.46875 67.304688 C 34.847656 67.304688 35.222656 66.976562 35.222656 66.554688 L 35.222656 55.964844 C 35.222656 55.589844 34.847656 55.210938 34.46875 55.210938 Z M 15.128906 55.210938 " fill-opacity="1" fill-rule="evenodd"/><path fill="#512d7c" d="M 24.824219 63.964844 C 24.636719 63.964844 24.445312 63.871094 24.304688 63.777344 L 13.671875 55.449219 C 13.292969 55.210938 13.246094 54.695312 13.53125 54.367188 C 13.765625 54.035156 14.28125 53.941406 14.613281 54.222656 L 24.824219 62.175781 L 34.988281 54.222656 C 35.316406 53.941406 35.835938 54.035156 36.117188 54.367188 C 36.351562 54.695312 36.304688 55.210938 35.976562 55.449219 L 25.292969 63.777344 C 25.152344 63.871094 24.964844 63.964844 24.824219 63.964844 Z M 24.824219 63.964844 " fill-opacity="1" fill-rule="evenodd"/><path fill="#512d7c" d="M 35.503906 68.484375 C 35.316406 68.484375 35.128906 68.4375 34.988281 68.339844 L 26.753906 61.894531 C 26.421875 61.613281 26.328125 61.140625 26.613281 60.8125 C 26.894531 60.4375 27.363281 60.390625 27.695312 60.671875 L 35.976562 67.070312 C 36.304688 67.355469 36.351562 67.871094 36.117188 68.199219 C 35.929688 68.390625 35.695312 68.484375 35.503906 68.484375 Z M 14.09375 68.484375 C 13.90625 68.484375 13.671875 68.390625 13.484375 68.199219 C 13.246094 67.871094 13.292969 67.355469 13.625 67.070312 L 21.765625 60.578125 C 22.09375 60.292969 22.613281 60.34375 22.847656 60.671875 C 23.128906 61 23.082031 61.519531 22.753906 61.800781 L 14.613281 68.292969 C 14.472656 68.4375 14.28125 68.484375 14.09375 68.484375 Z M 14.09375 68.484375 " fill-opacity="1" fill-rule="evenodd"/><g clip-path="url(#58f8899593)"><path fill="#512d7c" d="M 63.597656 89.660156 L 34.28125 89.660156 C 28.636719 89.660156 24.023438 85.046875 24.023438 79.351562 L 24.023438 68.105469 C 24.023438 67.683594 24.351562 67.304688 24.824219 67.304688 C 25.246094 67.304688 25.578125 67.683594 25.578125 68.105469 L 25.578125 79.351562 C 25.578125 84.152344 29.480469 88.058594 34.28125 88.058594 L 63.597656 88.058594 C 68.398438 88.058594 72.304688 84.152344 72.304688 79.351562 L 72.304688 71.542969 C 72.304688 71.117188 72.683594 70.789062 73.105469 70.789062 C 73.527344 70.789062 73.90625 71.117188 73.90625 71.542969 L 73.90625 79.351562 C 73.90625 85.046875 69.292969 89.660156 63.597656 89.660156 Z M 24.824219 55.210938 C 24.351562 55.210938 24.023438 54.882812 24.023438 54.460938 L 24.023438 46.460938 C 24.023438 46.035156 24.351562 45.660156 24.824219 45.660156 C 25.246094 45.660156 25.578125 46.035156 25.578125 46.460938 L 25.578125 54.460938 C 25.578125 54.882812 25.246094 55.210938 24.824219 55.210938 Z M 73.105469 54.554688 C 72.683594 54.554688 72.304688 54.175781 72.304688 53.753906 L 72.304688 48.71875 C 72.304688 48.296875 72.683594 47.964844 73.105469 47.964844 C 73.527344 47.964844 73.90625 48.296875 73.90625 48.71875 L 73.90625 53.753906 C 73.90625 54.175781 73.527344 54.554688 73.105469 54.554688 Z M 24.824219 31.683594 C 24.351562 31.683594 24.023438 31.308594 24.023438 30.882812 L 24.023438 19.589844 C 24.023438 13.941406 28.636719 9.332031 34.28125 9.332031 L 63.597656 9.332031 C 69.292969 9.332031 73.90625 13.941406 73.90625 19.589844 L 73.90625 25.707031 C 73.90625 26.128906 73.527344 26.507812 73.105469 26.507812 C 72.683594 26.507812 72.304688 26.128906 72.304688 25.707031 L 72.304688 19.589844 C 72.304688 14.789062 68.398438 10.882812 63.597656 10.882812 L 34.28125 10.882812 C 29.480469 10.882812 25.578125 14.789062 25.578125 19.589844 L 25.578125 30.882812 C 25.578125 31.308594 25.246094 31.683594 24.824219 31.683594 Z M 24.824219 31.683594 " fill-opacity="1" fill-rule="evenodd"/></g><path fill="#512d7c" d="M 73.105469 22.128906 L 24.824219 22.128906 C 24.351562 22.128906 24.023438 21.800781 24.023438 21.378906 C 24.023438 20.90625 24.351562 20.578125 24.824219 20.578125 L 73.105469 20.578125 C 73.527344 20.578125 73.90625 20.90625 73.90625 21.378906 C 73.90625 21.800781 73.527344 22.128906 73.105469 22.128906 Z M 73.105469 22.128906 " fill-opacity="1" fill-rule="evenodd"/><path fill="#512d7c" d="M 73.105469 75.917969 L 24.824219 75.917969 C 24.351562 75.917969 24.023438 75.589844 24.023438 75.164062 C 24.023438 74.695312 24.351562 74.363281 24.824219 74.363281 L 73.105469 74.363281 C 73.527344 74.363281 73.90625 74.695312 73.90625 75.164062 C 73.90625 75.589844 73.527344 75.917969 73.105469 75.917969 Z M 73.105469 75.917969 " fill-opacity="1" fill-rule="evenodd"/><path fill="#512d7c" d="M 50.613281 16.53125 L 39.976562 16.53125 C 39.550781 16.53125 39.222656 16.152344 39.222656 15.730469 C 39.222656 15.308594 39.550781 14.929688 39.976562 14.929688 L 50.613281 14.929688 C 51.035156 14.929688 51.410156 15.308594 51.410156 15.730469 C 51.410156 16.152344 51.035156 16.53125 50.613281 16.53125 Z M 50.613281 16.53125 " fill-opacity="1" fill-rule="evenodd"/><path fill="#512d7c" d="M 57.90625 16.53125 L 54.753906 16.53125 C 54.328125 16.53125 54 16.152344 54 15.730469 C 54 15.308594 54.328125 14.929688 54.753906 14.929688 L 57.90625 14.929688 C 58.375 14.929688 58.707031 15.308594 58.707031 15.730469 C 58.707031 16.152344 58.375 16.53125 57.90625 16.53125 Z M 57.90625 16.53125 " fill-opacity="1" fill-rule="evenodd"/><path fill="#512d7c" d="M 48.964844 86.222656 C 46.660156 86.222656 44.730469 84.339844 44.730469 81.988281 C 44.730469 79.683594 46.660156 77.800781 48.964844 77.800781 C 51.269531 77.800781 53.152344 79.683594 53.152344 81.988281 C 53.152344 84.339844 51.269531 86.222656 48.964844 86.222656 Z M 48.964844 79.351562 C 47.503906 79.351562 46.328125 80.53125 46.328125 81.988281 C 46.328125 83.449219 47.503906 84.625 48.964844 84.625 C 50.421875 84.625 51.601562 83.449219 51.601562 81.988281 C 51.601562 80.53125 50.421875 79.351562 48.964844 79.351562 Z M 48.964844 79.351562 " fill-opacity="1" fill-rule="evenodd"/><path fill="#512d7c" d="M 24.824219 47.257812 C 24.589844 47.257812 24.398438 47.164062 24.257812 47.023438 L 15.601562 38.367188 C 13.152344 35.917969 13.152344 31.917969 15.601562 29.472656 C 16.777344 28.296875 18.375 27.636719 20.023438 27.636719 C 21.71875 27.636719 23.316406 28.296875 24.492188 29.472656 L 24.824219 29.800781 L 25.105469 29.472656 C 26.328125 28.296875 27.882812 27.636719 29.578125 27.636719 C 31.269531 27.636719 32.824219 28.296875 34 29.472656 C 35.222656 30.648438 35.835938 32.199219 35.835938 33.894531 C 35.835938 35.589844 35.222656 37.1875 34 38.367188 L 25.339844 47.023438 C 25.199219 47.164062 25.011719 47.257812 24.824219 47.257812 Z M 20.023438 29.1875 C 18.753906 29.1875 17.578125 29.660156 16.683594 30.554688 C 14.847656 32.390625 14.847656 35.402344 16.683594 37.234375 L 24.824219 45.332031 L 32.917969 37.234375 C 33.8125 36.34375 34.28125 35.164062 34.28125 33.894531 C 34.28125 32.625 33.8125 31.449219 32.917969 30.554688 C 32.023438 29.660156 30.847656 29.1875 29.578125 29.1875 C 28.304688 29.1875 27.128906 29.660156 26.234375 30.554688 L 25.339844 31.449219 C 25.058594 31.730469 24.542969 31.730469 24.257812 31.449219 L 23.363281 30.554688 C 22.46875 29.660156 21.292969 29.1875 20.023438 29.1875 Z M 20.023438 29.1875 " fill-opacity="1" fill-rule="evenodd"/><path fill="#512d7c" d="M 67.175781 49.941406 L 62.5625 49.941406 C 61.574219 49.941406 60.777344 49.140625 60.777344 48.199219 L 60.777344 39.636719 C 60.777344 38.648438 61.574219 37.847656 62.5625 37.847656 L 67.175781 37.847656 C 67.503906 37.847656 67.789062 37.941406 68.070312 38.082031 L 71.929688 32.152344 L 71.929688 31.070312 C 71.882812 26.414062 71.882812 25.1875 72.964844 24.953125 C 73.953125 24.71875 74.515625 25.566406 76.777344 30.601562 C 76.824219 30.695312 76.824219 30.789062 76.824219 30.929688 L 76.824219 34.648438 L 82.988281 34.648438 C 84.304688 34.648438 85.433594 35.730469 85.433594 37.09375 C 85.433594 37.753906 85.152344 38.320312 84.777344 38.742188 C 85.152344 39.164062 85.433594 39.777344 85.433594 40.4375 C 85.433594 41.234375 85.011719 41.988281 84.351562 42.414062 C 84.632812 42.789062 84.777344 43.257812 84.777344 43.730469 C 84.777344 44.8125 84.117188 45.660156 83.175781 46.035156 C 83.363281 46.367188 83.410156 46.742188 83.410156 47.070312 C 83.410156 48.4375 82.328125 49.519531 80.964844 49.519531 L 70.234375 49.519531 C 69.8125 49.566406 69.199219 49.472656 68.632812 49.1875 C 68.304688 49.660156 67.789062 49.941406 67.175781 49.941406 Z M 62.5625 39.449219 C 62.46875 39.449219 62.375 39.542969 62.375 39.636719 L 62.375 48.199219 C 62.375 48.296875 62.46875 48.390625 62.5625 48.390625 L 67.175781 48.390625 C 67.269531 48.390625 67.363281 48.296875 67.363281 48.199219 C 67.363281 48.058594 67.410156 47.964844 67.457031 47.871094 C 67.410156 47.777344 67.410156 47.730469 67.410156 47.683594 C 67.363281 47.636719 67.363281 47.542969 67.363281 47.496094 L 67.363281 39.496094 C 67.316406 39.496094 67.269531 39.449219 67.175781 39.449219 Z M 68.964844 47.355469 C 69.199219 48.011719 70.046875 47.964844 70.140625 47.964844 C 70.140625 47.964844 70.1875 47.964844 70.1875 47.964844 L 80.964844 47.964844 C 81.480469 47.964844 81.859375 47.542969 81.859375 47.070312 C 81.859375 46.269531 80.730469 46.175781 80.398438 46.175781 C 79.976562 46.175781 79.597656 45.847656 79.597656 45.425781 C 79.597656 45 79.976562 44.625 80.398438 44.625 L 82.328125 44.625 C 82.800781 44.625 83.175781 44.246094 83.175781 43.730469 C 83.175781 43.257812 82.800781 42.882812 82.328125 42.882812 C 81.90625 42.882812 81.527344 42.507812 81.527344 42.082031 C 81.527344 41.660156 81.90625 41.285156 82.328125 41.285156 L 82.988281 41.285156 C 83.457031 41.285156 83.835938 40.90625 83.835938 40.4375 C 83.835938 39.917969 83.457031 39.542969 82.988281 39.542969 L 82.65625 39.542969 C 82.234375 39.542969 81.859375 39.164062 81.859375 38.742188 C 81.859375 38.320312 82.234375 37.988281 82.65625 37.988281 C 83.363281 37.988281 83.835938 37.613281 83.835938 37.09375 C 83.835938 36.625 83.457031 36.199219 82.988281 36.199219 L 76.070312 36.199219 C 75.644531 36.199219 75.269531 35.871094 75.269531 35.449219 L 75.269531 31.070312 C 74.894531 30.226562 74.09375 28.53125 73.527344 27.402344 C 73.480469 28.34375 73.480469 29.660156 73.480469 31.070312 L 73.480469 32.390625 C 73.480469 32.53125 73.433594 32.671875 73.339844 32.8125 L 68.964844 39.589844 Z M 68.964844 47.355469 " fill-opacity="1" fill-rule="evenodd"/><path fill="#512d7c" d="M 73.105469 72.339844 C 72.917969 72.339844 72.730469 72.246094 72.539062 72.105469 L 67.644531 67.210938 L 67.269531 67.210938 C 63.363281 67.210938 60.164062 64.011719 60.164062 60.105469 C 60.164062 56.152344 63.363281 52.953125 67.269531 52.953125 L 78.941406 52.953125 C 82.894531 52.953125 86.046875 56.152344 86.046875 60.105469 C 86.046875 63.496094 83.644531 66.460938 80.257812 67.070312 C 79.835938 67.164062 79.410156 67.210938 78.941406 67.210938 L 78.5625 67.210938 L 73.667969 72.105469 C 73.527344 72.246094 73.292969 72.339844 73.105469 72.339844 Z M 67.269531 54.554688 C 64.210938 54.554688 61.71875 57.046875 61.71875 60.105469 C 61.71875 63.164062 64.210938 65.660156 67.269531 65.660156 L 67.976562 65.660156 C 68.164062 65.660156 68.398438 65.707031 68.539062 65.847656 L 73.105469 70.460938 L 77.667969 65.847656 C 77.859375 65.707031 78.046875 65.660156 78.234375 65.660156 L 78.941406 65.660156 C 79.316406 65.660156 79.644531 65.613281 79.976562 65.519531 C 82.609375 65.046875 84.492188 62.742188 84.492188 60.105469 C 84.492188 57.046875 82 54.554688 78.941406 54.554688 Z M 67.269531 54.554688 " fill-opacity="1" fill-rule="evenodd"/><path fill="#512d7c" d="M 66.421875 60.859375 L 66.375 60.859375 C 65.953125 60.859375 65.621094 60.484375 65.621094 60.058594 C 65.621094 59.636719 65.953125 59.257812 66.375 59.257812 C 66.847656 59.257812 67.175781 59.636719 67.175781 60.058594 C 67.175781 60.484375 66.847656 60.859375 66.421875 60.859375 Z M 66.421875 60.859375 " fill-opacity="1" fill-rule="evenodd"/><path fill="#512d7c" d="M 70.894531 60.859375 L 70.847656 60.859375 C 70.421875 60.859375 70.09375 60.484375 70.09375 60.058594 C 70.09375 59.636719 70.421875 59.257812 70.847656 59.257812 C 71.316406 59.257812 71.644531 59.636719 71.644531 60.058594 C 71.644531 60.484375 71.316406 60.859375 70.894531 60.859375 Z M 70.894531 60.859375 " fill-opacity="1" fill-rule="evenodd"/><path fill="#512d7c" d="M 75.363281 60.859375 C 74.894531 60.859375 74.5625 60.484375 74.5625 60.058594 C 74.5625 59.636719 74.894531 59.257812 75.363281 59.257812 C 75.789062 59.257812 76.117188 59.636719 76.117188 60.058594 C 76.117188 60.484375 75.789062 60.859375 75.363281 60.859375 Z M 75.363281 60.859375 " fill-opacity="1" fill-rule="evenodd"/><path fill="#512d7c" d="M 79.835938 60.859375 C 79.363281 60.859375 79.035156 60.484375 79.035156 60.058594 C 79.035156 59.636719 79.363281 59.257812 79.835938 59.257812 C 80.257812 59.257812 80.585938 59.636719 80.585938 60.058594 C 80.585938 60.484375 80.257812 60.859375 79.835938 60.859375 Z M 79.835938 60.859375 " fill-opacity="1" fill-rule="evenodd"/><path fill="#512d7c" d="M 57.574219 61.140625 L 39.363281 61.140625 C 38.941406 61.140625 38.566406 60.765625 38.566406 60.34375 L 38.566406 40.34375 C 38.566406 39.917969 38.941406 39.589844 39.363281 39.589844 L 57.574219 39.589844 C 58 39.589844 58.328125 39.917969 58.328125 40.34375 L 58.328125 60.34375 C 58.328125 60.765625 58 61.140625 57.574219 61.140625 Z M 40.164062 59.542969 L 56.777344 59.542969 L 56.777344 41.140625 L 40.164062 41.140625 Z M 40.164062 59.542969 " fill-opacity="1" fill-rule="evenodd"/><path fill="#512d7c" d="M 45.105469 55.164062 C 44.964844 55.164062 44.824219 55.164062 44.730469 55.070312 C 44.445312 54.929688 44.304688 54.695312 44.304688 54.414062 L 44.304688 46.269531 C 44.304688 45.988281 44.445312 45.753906 44.730469 45.613281 C 44.964844 45.472656 45.246094 45.472656 45.527344 45.613281 L 52.210938 49.660156 C 52.445312 49.800781 52.585938 50.082031 52.585938 50.367188 C 52.585938 50.601562 52.445312 50.882812 52.210938 51.023438 L 45.527344 55.070312 C 45.386719 55.164062 45.246094 55.164062 45.105469 55.164062 Z M 45.90625 47.683594 L 45.90625 53 L 50.28125 50.367188 Z M 45.90625 47.683594 " fill-opacity="1" fill-rule="evenodd"/></svg>