<svg xmlns="http://www.w3.org/2000/svg" xmlns:xlink="http://www.w3.org/1999/xlink" width="132" zoomAndPan="magnify" viewBox="0 0 98.88 98.999996" height="132" preserveAspectRatio="xMidYMid meet" version="1.0"><defs><clipPath id="068994c269"><path d="M 0 0.0585938 L 98.761719 0.0585938 L 98.761719 98.9375 L 0 98.9375 Z M 0 0.0585938 " clip-rule="nonzero"/></clipPath><clipPath id="a2f862922d"><path d="M 9.886719 12.734375 L 89 12.734375 L 89 92 L 9.886719 92 Z M 9.886719 12.734375 " clip-rule="nonzero"/></clipPath></defs><g clip-path="url(#068994c269)"><path fill="#ffffff" d="M 0 0.0585938 L 98.878906 0.0585938 L 98.878906 98.941406 L 0 98.941406 Z M 0 0.0585938 " fill-opacity="1" fill-rule="nonzero"/><path fill="#ffffff" d="M 0 0.0585938 L 98.878906 0.0585938 L 98.878906 98.941406 L 0 98.941406 Z M 0 0.0585938 " fill-opacity="1" fill-rule="nonzero"/></g><g clip-path="url(#a2f862922d)"><path fill="#f3f5f7" d="M 49.441406 91.832031 C 71.21875 91.832031 88.988281 74.066406 88.988281 52.285156 C 88.988281 30.5 71.21875 12.734375 49.441406 12.734375 C 27.65625 12.734375 9.886719 30.5 9.886719 52.285156 C 9.886719 74.066406 27.65625 91.832031 49.441406 91.832031 Z M 49.441406 91.832031 " fill-opacity="1" fill-rule="evenodd"/></g><path fill="#f2b42c" d="M 57.125 45.023438 L 58.460938 46.359375 L 69.113281 35.707031 L 67.777344 34.371094 Z M 57.125 45.023438 " fill-opacity="1" fill-rule="evenodd"/><path fill="#f2b42c" d="M 43.074219 72.722656 L 40.964844 72.722656 C 40.167969 72.722656 39.523438 73.371094 39.523438 74.167969 L 39.523438 75.609375 L 53.53125 75.609375 L 53.53125 74.167969 C 53.53125 73.371094 52.882812 72.722656 52.089844 72.722656 Z M 43.074219 72.722656 " fill-opacity="1" fill-rule="evenodd"/><path fill="#f2b42c" d="M 44.6875 66.617188 C 44.4375 68.679688 44.09375 70.398438 43.832031 71.53125 L 49.222656 71.527344 C 48.960938 70.394531 48.613281 68.667969 48.367188 66.617188 Z M 44.6875 66.617188 " fill-opacity="1" fill-rule="evenodd"/><path fill="#f2b42c" d="M 54.945312 42.839844 L 65.59375 32.191406 L 66.929688 33.527344 L 56.28125 44.175781 Z M 54.945312 42.839844 " fill-opacity="1" fill-rule="nonzero"/><path fill="#f2b42c" d="M 72.09375 32.726562 L 68.578125 29.207031 L 66.4375 31.347656 L 69.957031 34.859375 Z M 72.09375 32.726562 " fill-opacity="1" fill-rule="evenodd"/><path fill="#f2b42c" d="M 53.773438 47.527344 L 57.246094 46.835938 L 54.46875 44.050781 Z M 53.773438 47.527344 " fill-opacity="1" fill-rule="evenodd"/><path fill="#f2b42c" d="M 30.648438 65.421875 L 62.40625 65.421875 C 64.671875 65.421875 66.519531 63.582031 66.519531 61.3125 L 66.519531 60.746094 L 26.535156 60.746094 L 26.535156 61.3125 C 26.535156 63.582031 28.378906 65.421875 30.648438 65.421875 Z M 30.648438 65.421875 " fill-opacity="1" fill-rule="evenodd"/><path fill="#512d7c" d="M 46.640625 47.6875 C 46.308594 47.6875 46.042969 47.957031 46.042969 48.289062 L 46.042969 51.550781 C 46.042969 52.457031 45.304688 53.199219 44.394531 53.199219 C 43.488281 53.199219 42.75 52.457031 42.75 51.550781 L 42.75 48.289062 C 42.75 47.957031 42.484375 47.6875 42.152344 47.6875 C 41.820312 47.6875 41.554688 47.957031 41.554688 48.289062 L 41.554688 51.550781 C 41.554688 53.117188 42.832031 54.394531 44.394531 54.394531 C 45.960938 54.394531 47.234375 53.117188 47.234375 51.550781 L 47.238281 48.289062 C 47.238281 47.957031 46.96875 47.6875 46.640625 47.6875 Z M 46.640625 47.6875 " fill-opacity="1" fill-rule="evenodd"/><path fill="#512d7c" d="M 34.503906 47.6875 C 34.171875 47.6875 33.90625 47.957031 33.90625 48.289062 L 33.90625 51.550781 C 33.90625 52.457031 33.167969 53.199219 32.261719 53.199219 C 31.351562 53.199219 30.617188 52.457031 30.617188 51.550781 L 30.617188 48.289062 C 30.617188 47.957031 30.347656 47.6875 30.015625 47.6875 C 29.6875 47.6875 29.421875 47.957031 29.421875 48.289062 L 29.421875 51.550781 C 29.421875 53.117188 30.691406 54.394531 32.261719 54.394531 C 33.824219 54.394531 35.101562 53.117188 35.101562 51.550781 L 35.101562 48.289062 C 35.101562 47.957031 34.835938 47.6875 34.503906 47.6875 Z M 34.503906 47.6875 " fill-opacity="1" fill-rule="evenodd"/><path fill="#512d7c" d="M 26.535156 60.746094 L 66.519531 60.746094 L 66.519531 61.3125 C 66.519531 63.582031 64.671875 65.421875 62.40625 65.421875 L 30.648438 65.421875 C 28.378906 65.421875 26.535156 63.582031 26.535156 61.3125 Z M 26.535156 39.742188 C 26.535156 37.476562 28.378906 35.632812 30.648438 35.632812 L 60.460938 35.632812 L 53.679688 42.417969 L 53.675781 42.417969 C 53.648438 42.445312 53.621094 42.476562 53.601562 42.511719 C 53.601562 42.511719 53.597656 42.511719 53.597656 42.515625 C 53.578125 42.546875 53.5625 42.578125 53.546875 42.613281 C 53.546875 42.613281 53.546875 42.621094 53.542969 42.621094 C 53.53125 42.652344 53.519531 42.6875 53.515625 42.726562 L 53.511719 42.726562 L 52.453125 48.035156 L 50.921875 50.054688 L 49.308594 47.925781 C 49.105469 47.664062 48.730469 47.613281 48.46875 47.8125 C 48.207031 48.011719 48.15625 48.386719 48.355469 48.648438 L 50.171875 51.042969 L 48.355469 53.433594 C 48.15625 53.695312 48.207031 54.074219 48.46875 54.273438 C 48.730469 54.472656 49.105469 54.417969 49.308594 54.15625 L 50.921875 52.03125 L 52.539062 54.15625 C 52.65625 54.3125 52.832031 54.394531 53.015625 54.394531 C 53.140625 54.394531 53.269531 54.351562 53.375 54.273438 C 53.640625 54.074219 53.691406 53.695312 53.488281 53.433594 L 51.671875 51.042969 L 53.355469 48.832031 L 58.574219 47.789062 C 58.582031 47.789062 58.585938 47.785156 58.59375 47.785156 C 58.605469 47.78125 58.621094 47.78125 58.632812 47.773438 C 58.648438 47.769531 58.664062 47.765625 58.675781 47.761719 C 58.679688 47.757812 58.683594 47.757812 58.6875 47.753906 C 58.707031 47.75 58.71875 47.738281 58.734375 47.734375 C 58.738281 47.730469 58.738281 47.730469 58.742188 47.730469 C 58.757812 47.71875 58.769531 47.714844 58.785156 47.703125 C 58.789062 47.703125 58.789062 47.699219 58.792969 47.699219 C 58.808594 47.6875 58.820312 47.679688 58.832031 47.667969 L 58.839844 47.664062 C 58.851562 47.65625 58.863281 47.644531 58.878906 47.628906 C 58.878906 47.628906 58.878906 47.628906 58.882812 47.628906 L 58.882812 47.621094 L 66.519531 39.992188 L 66.519531 59.550781 L 26.535156 59.550781 Z M 65.59375 32.191406 L 66.929688 33.527344 L 56.28125 44.175781 L 54.945312 42.839844 Z M 68.578125 29.207031 L 72.09375 32.726562 L 69.957031 34.859375 L 66.4375 31.347656 Z M 57.246094 46.835938 L 53.773438 47.527344 L 54.46875 44.050781 Z M 58.460938 46.359375 L 57.125 45.023438 L 67.777344 34.371094 L 69.113281 35.707031 Z M 43.832031 71.527344 C 44.09375 70.398438 44.4375 68.679688 44.6875 66.617188 L 48.367188 66.617188 C 48.613281 68.667969 48.960938 70.394531 49.222656 71.53125 Z M 49.980469 72.722656 L 52.089844 72.722656 C 52.882812 72.722656 53.53125 73.371094 53.53125 74.167969 L 53.53125 75.609375 L 39.523438 75.609375 L 39.523438 74.167969 C 39.523438 73.371094 40.167969 72.722656 40.964844 72.722656 Z M 30.648438 66.617188 L 43.484375 66.617188 C 43.222656 68.738281 42.859375 70.46875 42.605469 71.53125 L 40.964844 71.527344 C 39.511719 71.527344 38.328125 72.714844 38.328125 74.167969 L 38.328125 76.207031 C 38.328125 76.539062 38.59375 76.804688 38.925781 76.804688 L 54.128906 76.804688 C 54.460938 76.804688 54.726562 76.539062 54.726562 76.207031 L 54.726562 74.167969 C 54.726562 72.714844 53.546875 71.53125 52.089844 71.53125 L 50.453125 71.527344 C 50.199219 70.460938 49.832031 68.722656 49.570312 66.617188 L 62.40625 66.617188 C 65.332031 66.617188 67.714844 64.238281 67.714844 61.3125 L 67.714844 39.742188 C 67.714844 39.445312 67.683594 39.15625 67.636719 38.871094 L 73.359375 33.144531 C 73.59375 32.914062 73.59375 32.535156 73.359375 32.300781 L 69 27.9375 C 68.890625 27.828125 68.738281 27.761719 68.578125 27.761719 C 68.417969 27.761719 68.265625 27.828125 68.15625 27.9375 L 61.65625 34.4375 L 30.648438 34.4375 C 27.722656 34.4375 25.339844 36.820312 25.339844 39.742188 L 25.339844 61.3125 C 25.339844 64.238281 27.722656 66.617188 30.648438 66.617188 Z M 30.648438 66.617188 " fill-opacity="1" fill-rule="evenodd"/><path fill="#512d7c" d="M 36.847656 47.6875 C 36.519531 47.6875 36.253906 47.957031 36.253906 48.289062 L 36.253906 53.796875 C 36.253906 54.125 36.519531 54.394531 36.847656 54.394531 C 37.179688 54.394531 37.449219 54.125 37.449219 53.796875 L 37.449219 48.289062 C 37.449219 47.957031 37.179688 47.6875 36.847656 47.6875 Z M 36.847656 47.6875 " fill-opacity="1" fill-rule="evenodd"/></svg>